{
.appVersion = "1287";
date = "2020-01-09 09:55:21 +0000";
familyName = "Atavía Typeface";
fontMaster = (
{
ascender = 800;
capHeight = 700;
descender = -200;
id = "A1B629DE-12A3-463D-9110-6FB76C8F6166";
userData = {
GSCornerRadius = 90;
};
xHeight = 500;
}
);
glyphs = (
{
glyphname = A;
lastChange = "2021-02-18 15:46:58 +0000";
layers = (
{
layerId = "A1B629DE-12A3-463D-9110-6FB76C8F6166";
paths = (
{
closed = 1;
nodes = (
"597 -4 OFFCURVE",
"625 -4 OFFCURVE",
"635 6 CURVE SMOOTH",
"649 20 OFFCURVE",
"648 31 OFFCURVE",
"642 53 CURVE",
"637 72 OFFCURVE",
"649 68 OFFCURVE",
"654 67 CURVE SMOOTH",
"695 45 OFFCURVE",
"721 43 OFFCURVE",
"738 43 CURVE SMOOTH",
"771 43 OFFCURVE",
"779 55 OFFCURVE",
"774 61 CURVE SMOOTH",
"772 62 OFFCURVE",
"751 82 OFFCURVE",
"751 82 CURVE SMOOTH",
"751 82 OFFCURVE",
"778 122 OFFCURVE",
"761 144 CURVE",
"745 166 OFFCURVE",
"723 144 OFFCURVE",
"733 129 CURVE SMOOTH",
"745 108 OFFCURVE",
"731 98 OFFCURVE",
"700 98 CURVE SMOOTH",
"678 98 OFFCURVE",
"654 120 OFFCURVE",
"654 157 CURVE SMOOTH",
"654 211 OFFCURVE",
"709 232 OFFCURVE",
"745 232 CURVE SMOOTH",
"784 232 OFFCURVE",
"843 210 OFFCURVE",
"843 153 CURVE SMOOTH",
"843 102 OFFCURVE",
"820 82 OFFCURVE",
"820 82 CURVE SMOOTH",
"820 82 OFFCURVE",
"902 0 OFFCURVE",
"1041 0 CURVE SMOOTH",
"1148 0 OFFCURVE",
"1202 61 OFFCURVE",
"1202 176 CURVE SMOOTH",
"1202 273 OFFCURVE",
"1143 300 OFFCURVE",
"1143 300 CURVE",
"1143 385 LINE",
"1143 385 OFFCURVE",
"1202 412 OFFCURVE",
"1202 508 CURVE SMOOTH",
"1202 605 OFFCURVE",
"1148 682 OFFCURVE",
"1041 682 CURVE SMOOTH",
"902 682 OFFCURVE",
"820 600 OFFCURVE",
"820 600 CURVE SMOOTH",
"820 600 OFFCURVE",
"843 583 OFFCURVE",
"843 531 CURVE SMOOTH",
"843 478 OFFCURVE",
"794 450 OFFCURVE",
"745 450 CURVE SMOOTH",
"709 450 OFFCURVE",
"654 474 OFFCURVE",
"654 526 CURVE SMOOTH",
"654 563 OFFCURVE",
"678 586 OFFCURVE",
"700 586 CURVE SMOOTH",
"731 586 OFFCURVE",
"747 569 OFFCURVE",
"733 555 CURVE SMOOTH",
"717 540 OFFCURVE",
"743 518 OFFCURVE",
"761 539 CURVE SMOOTH",
"794 573 OFFCURVE",
"751 601 OFFCURVE",
"751 601 CURVE SMOOTH",
"751 601 OFFCURVE",
"772 621 OFFCURVE",
"774 622 CURVE SMOOTH",
"779 628 OFFCURVE",
"771 641 OFFCURVE",
"738 641 CURVE SMOOTH",
"721 641 OFFCURVE",
"695 635 OFFCURVE",
"654 614 CURVE SMOOTH",
"654 614 OFFCURVE",
"637 610 OFFCURVE",
"642 631 CURVE",
"648 652 OFFCURVE",
"648 663 OFFCURVE",
"635 676 CURVE SMOOTH",
"625 686 OFFCURVE",
"598 686 OFFCURVE",
"587 676 CURVE SMOOTH",
"574 665 OFFCURVE",
"574 652 OFFCURVE",
"579 631 CURVE",
"584 611 OFFCURVE",
"570 613 OFFCURVE",
"566 617 CURVE SMOOTH",
"529 641 OFFCURVE",
"501 641 OFFCURVE",
"482 641 CURVE SMOOTH",
"453 641 OFFCURVE",
"447 628 OFFCURVE",
"451 622 CURVE SMOOTH",
"453 621 OFFCURVE",
"473 601 OFFCURVE",
"473 601 CURVE SMOOTH",
"473 601 OFFCURVE",
"437 573 OFFCURVE",
"460 539 CURVE SMOOTH",
"474 518 OFFCURVE",
"499 539 OFFCURVE",
"488 555 CURVE SMOOTH",
"477 572 OFFCURVE",
"489 586 OFFCURVE",
"521 586 CURVE SMOOTH",
"545 586 OFFCURVE",
"566 563 OFFCURVE",
"566 526 CURVE SMOOTH",
"566 474 OFFCURVE",
"518 450 OFFCURVE",
"475 450 CURVE SMOOTH",
"429 450 OFFCURVE",
"381 475 OFFCURVE",
"381 531 CURVE SMOOTH",
"381 563 OFFCURVE",
"385 576 OFFCURVE",
"399 600 CURVE SMOOTH",
"399 600 OFFCURVE",
"320 682 OFFCURVE",
"180 682 CURVE SMOOTH",
"74 682 OFFCURVE",
"20 605 OFFCURVE",
"20 508 CURVE SMOOTH",
"20 424 OFFCURVE",
"84 385 OFFCURVE",
"84 385 CURVE",
"84 300 LINE",
"84 300 OFFCURVE",
"20 273 OFFCURVE",
"21 176 CURVE SMOOTH",
"23 75 OFFCURVE",
"75 0 OFFCURVE",
"181 0 CURVE SMOOTH",
"323 0 OFFCURVE",
"399 82 OFFCURVE",
"399 82 CURVE SMOOTH",
"399 82 OFFCURVE",
"381 102 OFFCURVE",
"381 153 CURVE SMOOTH",
"381 210 OFFCURVE",
"441 232 OFFCURVE",
"475 232 CURVE SMOOTH",
"512 232 OFFCURVE",
"566 211 OFFCURVE",
"566 157 CURVE SMOOTH",
"566 120 OFFCURVE",
"545 98 OFFCURVE",
"521 98 CURVE SMOOTH",
"489 98 OFFCURVE",
"477 109 OFFCURVE",
"488 129 CURVE SMOOTH",
"498 144 OFFCURVE",
"475 166 OFFCURVE",
"460 144 CURVE",
"447 122 OFFCURVE",
"473 82 OFFCURVE",
"473 82 CURVE SMOOTH",
"473 82 OFFCURVE",
"453 62 OFFCURVE",
"451 61 CURVE SMOOTH",
"447 55 OFFCURVE",
"453 43 OFFCURVE",
"482 43 CURVE SMOOTH",
"501 43 OFFCURVE",
"528 48 OFFCURVE",
"566 67 CURVE SMOOTH",
"569 68 OFFCURVE",
"584 72 OFFCURVE",
"579 53 CURVE",
"574 31 OFFCURVE",
"574 19 OFFCURVE",
"587 6 CURVE SMOOTH"
);
},
{
closed = 1;
nodes = (
"184 169 OFFCURVE",
"177 180 OFFCURVE",
"177 188 CURVE SMOOTH",
"177 194 OFFCURVE",
"184 200 OFFCURVE",
"195 210 CURVE SMOOTH",
"205 217 OFFCURVE",
"201 234 OFFCURVE",
"178 234 CURVE SMOOTH",
"142 234 OFFCURVE",
"140 191 OFFCURVE",
"140 191 CURVE",
"69 191 LINE SMOOTH",
"69 191 OFFCURVE",
"74 283 OFFCURVE",
"166 283 CURVE SMOOTH",
"235 283 OFFCURVE",
"248 245 OFFCURVE",
"248 219 CURVE SMOOTH",
"248 183 OFFCURVE",
"225 169 OFFCURVE",
"201 169 CURVE SMOOTH"
);
},
{
closed = 1;
nodes = (
"69 40 OFFCURVE",
"69 157 OFFCURVE",
"69 157 CURVE",
"140 157 LINE",
"140 157 OFFCURVE",
"159 125 OFFCURVE",
"202 125 CURVE SMOOTH",
"248 125 OFFCURVE",
"282 169 OFFCURVE",
"282 214 CURVE SMOOTH",
"282 282 OFFCURVE",
"214 317 OFFCURVE",
"266 317 CURVE SMOOTH",
"277 317 OFFCURVE",
"280 310 OFFCURVE",
"293 310 CURVE SMOOTH",
"311 310 OFFCURVE",
"314 324 OFFCURVE",
"314 324 CURVE",
"314 314 OFFCURVE",
"359 304 OFFCURVE",
"365 300 CURVE",
"365 251 LINE",
"391 251 LINE",
"311 191 OFFCURVE",
"293 40 OFFCURVE",
"181 40 CURVE SMOOTH"
);
},
{
closed = 1;
nodes = (
"74 400 OFFCURVE",
"68 492 OFFCURVE",
"68 492 CURVE",
"140 492 LINE",
"140 492 OFFCURVE",
"143 449 OFFCURVE",
"178 449 CURVE",
"200 449 OFFCURVE",
"207 470 OFFCURVE",
"195 475 CURVE SMOOTH",
"184 482 OFFCURVE",
"177 487 OFFCURVE",
"177 495 CURVE SMOOTH",
"177 505 OFFCURVE",
"184 512 OFFCURVE",
"201 512 CURVE SMOOTH",
"225 512 OFFCURVE",
"248 499 OFFCURVE",
"248 464 CURVE SMOOTH",
"248 439 OFFCURVE",
"235 400 OFFCURVE",
"166 400 CURVE SMOOTH"
);
},
{
closed = 1;
nodes = (
"314 364 OFFCURVE",
"311 374 OFFCURVE",
"293 374 CURVE SMOOTH",
"280 374 OFFCURVE",
"277 364 OFFCURVE",
"266 364 CURVE SMOOTH",
"214 364 OFFCURVE",
"282 402 OFFCURVE",
"282 470 CURVE SMOOTH",
"282 516 OFFCURVE",
"248 557 OFFCURVE",
"202 557 CURVE SMOOTH",
"159 557 OFFCURVE",
"140 526 OFFCURVE",
"140 526 CURVE SMOOTH",
"68 526 LINE SMOOTH",
"68 526 OFFCURVE",
"68 644 OFFCURVE",
"180 644 CURVE SMOOTH",
"292 644 OFFCURVE",
"311 492 OFFCURVE",
"391 432 CURVE",
"365 432 LINE",
"365 385 LINE",
"359 379 OFFCURVE",
"314 368 OFFCURVE",
"314 359 CURVE"
);
},
{
closed = 1;
nodes = (
"608 211 OFFCURVE",
"600 231 OFFCURVE",
"579 245 CURVE",
"642 245 LINE",
"624 231 OFFCURVE",
"615 211 OFFCURVE",
"611 188 CURVE"
);
},
{
closed = 1;
nodes = (
"405 405 LINE",
"819 405 LINE",
"819 279 LINE",
"405 279 LINE"
);
},
{
closed = 1;
nodes = (
"598 453 OFFCURVE",
"608 473 OFFCURVE",
"611 495 CURVE",
"615 473 OFFCURVE",
"627 454 OFFCURVE",
"642 439 CURVE",
"579 439 LINE"
);
},
{
closed = 1;
nodes = (
"931 40 OFFCURVE",
"909 191 OFFCURVE",
"830 251 CURVE",
"857 251 LINE",
"857 300 LINE",
"861 304 OFFCURVE",
"907 314 OFFCURVE",
"907 324 CURVE",
"907 324 OFFCURVE",
"909 310 OFFCURVE",
"929 310 CURVE SMOOTH",
"939 310 OFFCURVE",
"949 317 OFFCURVE",
"960 317 CURVE SMOOTH",
"1008 317 OFFCURVE",
"938 282 OFFCURVE",
"938 214 CURVE SMOOTH",
"938 169 OFFCURVE",
"975 125 OFFCURVE",
"1018 125 CURVE SMOOTH",
"1064 125 OFFCURVE",
"1081 157 OFFCURVE",
"1081 157 CURVE",
"1153 157 LINE",
"1153 157 OFFCURVE",
"1154 40 OFFCURVE",
"1041 40 CURVE SMOOTH"
);
},
{
closed = 1;
nodes = (
"994 169 OFFCURVE",
"975 183 OFFCURVE",
"975 219 CURVE SMOOTH",
"975 245 OFFCURVE",
"987 283 OFFCURVE",
"1055 283 CURVE SMOOTH",
"1148 283 OFFCURVE",
"1153 191 OFFCURVE",
"1153 191 CURVE SMOOTH",
"1081 191 LINE",
"1081 191 OFFCURVE",
"1078 234 OFFCURVE",
"1042 234 CURVE SMOOTH",
"1021 234 OFFCURVE",
"1013 214 OFFCURVE",
"1027 210 CURVE SMOOTH",
"1040 204 OFFCURVE",
"1044 194 OFFCURVE",
"1044 188 CURVE SMOOTH",
"1044 180 OFFCURVE",
"1038 169 OFFCURVE",
"1020 169 CURVE SMOOTH"
);
},
{
closed = 1;
nodes = (
"907 368 OFFCURVE",
"861 379 OFFCURVE",
"857 385 CURVE",
"857 432 LINE",
"830 432 LINE",
"909 492 OFFCURVE",
"931 644 OFFCURVE",
"1041 644 CURVE SMOOTH",
"1154 644 OFFCURVE",
"1153 526 OFFCURVE",
"1153 526 CURVE SMOOTH",
"1081 526 LINE SMOOTH",
"1081 526 OFFCURVE",
"1064 557 OFFCURVE",
"1018 557 CURVE SMOOTH",
"975 557 OFFCURVE",
"938 516 OFFCURVE",
"938 470 CURVE SMOOTH",
"938 402 OFFCURVE",
"1008 364 OFFCURVE",
"960 364 CURVE SMOOTH",
"949 364 OFFCURVE",
"939 374 OFFCURVE",
"929 374 CURVE SMOOTH",
"909 374 OFFCURVE",
"907 359 OFFCURVE",
"907 359 CURVE"
);
},
{
closed = 1;
nodes = (
"987 400 OFFCURVE",
"975 439 OFFCURVE",
"975 464 CURVE SMOOTH",
"975 499 OFFCURVE",
"994 512 OFFCURVE",
"1020 512 CURVE SMOOTH",
"1038 512 OFFCURVE",
"1044 505 OFFCURVE",
"1044 495 CURVE SMOOTH",
"1044 487 OFFCURVE",
"1038 482 OFFCURVE",
"1027 475 CURVE SMOOTH",
"1013 470 OFFCURVE",
"1023 449 OFFCURVE",
"1042 449 CURVE SMOOTH",
"1078 449 OFFCURVE",
"1081 492 OFFCURVE",
"1081 492 CURVE",
"1153 492 LINE",
"1153 492 OFFCURVE",
"1148 400 OFFCURVE",
"1055 400 CURVE SMOOTH"
);
}
);
width = 1222;
}
);
unicode = 0041;
},
{
glyphname = Aacute;
lastChange = "2021-02-23 13:33:05 +0000";
layers = (
{
layerId = "A1B629DE-12A3-463D-9110-6FB76C8F6166";
paths = (
{
closed = 1;
nodes = (
"597 -4 OFFCURVE",
"625 -4 OFFCURVE",
"635 6 CURVE SMOOTH",
"649 20 OFFCURVE",
"648 31 OFFCURVE",
"642 53 CURVE",
"637 72 OFFCURVE",
"649 68 OFFCURVE",
"654 67 CURVE SMOOTH",
"695 45 OFFCURVE",
"721 43 OFFCURVE",
"738 43 CURVE SMOOTH",
"771 43 OFFCURVE",
"779 55 OFFCURVE",
"774 61 CURVE SMOOTH",
"772 62 OFFCURVE",
"751 82 OFFCURVE",
"751 82 CURVE SMOOTH",
"751 82 OFFCURVE",
"778 122 OFFCURVE",
"761 144 CURVE",
"745 166 OFFCURVE",
"723 144 OFFCURVE",
"733 129 CURVE SMOOTH",
"745 108 OFFCURVE",
"731 98 OFFCURVE",
"700 98 CURVE SMOOTH",
"678 98 OFFCURVE",
"654 120 OFFCURVE",
"654 157 CURVE SMOOTH",
"654 211 OFFCURVE",
"709 232 OFFCURVE",
"745 232 CURVE SMOOTH",
"784 232 OFFCURVE",
"843 210 OFFCURVE",
"843 153 CURVE SMOOTH",
"843 102 OFFCURVE",
"820 82 OFFCURVE",
"820 82 CURVE SMOOTH",
"820 82 OFFCURVE",
"902 0 OFFCURVE",
"1041 0 CURVE SMOOTH",
"1148 0 OFFCURVE",
"1202 61 OFFCURVE",
"1202 176 CURVE SMOOTH",
"1202 273 OFFCURVE",
"1143 300 OFFCURVE",
"1143 300 CURVE",
"1143 385 LINE",
"1143 385 OFFCURVE",
"1202 412 OFFCURVE",
"1202 508 CURVE SMOOTH",
"1202 605 OFFCURVE",
"1148 682 OFFCURVE",
"1041 682 CURVE SMOOTH",
"902 682 OFFCURVE",
"820 600 OFFCURVE",
"820 600 CURVE SMOOTH",
"820 600 OFFCURVE",
"843 583 OFFCURVE",
"843 531 CURVE SMOOTH",
"843 478 OFFCURVE",
"794 450 OFFCURVE",
"745 450 CURVE SMOOTH",
"709 450 OFFCURVE",
"654 474 OFFCURVE",
"654 526 CURVE SMOOTH",
"654 563 OFFCURVE",
"678 586 OFFCURVE",
"700 586 CURVE SMOOTH",
"731 586 OFFCURVE",
"747 569 OFFCURVE",
"733 555 CURVE SMOOTH",
"717 540 OFFCURVE",
"743 518 OFFCURVE",
"761 539 CURVE SMOOTH",
"794 573 OFFCURVE",
"751 601 OFFCURVE",
"751 601 CURVE SMOOTH",
"751 601 OFFCURVE",
"772 621 OFFCURVE",
"774 622 CURVE SMOOTH",
"779 628 OFFCURVE",
"771 641 OFFCURVE",
"738 641 CURVE SMOOTH",
"721 641 OFFCURVE",
"695 635 OFFCURVE",
"654 614 CURVE SMOOTH",
"654 614 OFFCURVE",
"637 610 OFFCURVE",
"642 631 CURVE",
"648 652 OFFCURVE",
"648 663 OFFCURVE",
"635 676 CURVE SMOOTH",
"625 686 OFFCURVE",
"598 686 OFFCURVE",
"587 676 CURVE SMOOTH",
"574 665 OFFCURVE",
"574 652 OFFCURVE",
"579 631 CURVE",
"584 611 OFFCURVE",
"570 613 OFFCURVE",
"566 617 CURVE SMOOTH",
"529 641 OFFCURVE",
"501 641 OFFCURVE",
"482 641 CURVE SMOOTH",
"453 641 OFFCURVE",
"447 628 OFFCURVE",
"451 622 CURVE SMOOTH",
"453 621 OFFCURVE",
"473 601 OFFCURVE",
"473 601 CURVE SMOOTH",
"473 601 OFFCURVE",
"437 573 OFFCURVE",
"460 539 CURVE SMOOTH",
"474 518 OFFCURVE",
"499 539 OFFCURVE",
"488 555 CURVE SMOOTH",
"477 572 OFFCURVE",
"489 586 OFFCURVE",
"521 586 CURVE SMOOTH",
"545 586 OFFCURVE",
"566 563 OFFCURVE",
"566 526 CURVE SMOOTH",
"566 474 OFFCURVE",
"518 450 OFFCURVE",
"475 450 CURVE SMOOTH",
"429 450 OFFCURVE",
"381 475 OFFCURVE",
"381 531 CURVE SMOOTH",
"381 563 OFFCURVE",
"385 576 OFFCURVE",
"399 600 CURVE SMOOTH",
"399 600 OFFCURVE",
"320 682 OFFCURVE",
"180 682 CURVE SMOOTH",
"74 682 OFFCURVE",
"20 605 OFFCURVE",
"20 508 CURVE SMOOTH",
"20 424 OFFCURVE",
"84 385 OFFCURVE",
"84 385 CURVE",
"84 300 LINE",
"84 300 OFFCURVE",
"20 273 OFFCURVE",
"21 176 CURVE SMOOTH",
"23 75 OFFCURVE",
"75 0 OFFCURVE",
"181 0 CURVE SMOOTH",
"323 0 OFFCURVE",
"399 82 OFFCURVE",
"399 82 CURVE SMOOTH",
"399 82 OFFCURVE",
"381 102 OFFCURVE",
"381 153 CURVE SMOOTH",
"381 210 OFFCURVE",
"441 232 OFFCURVE",
"475 232 CURVE SMOOTH",
"512 232 OFFCURVE",
"566 211 OFFCURVE",
"566 157 CURVE SMOOTH",
"566 120 OFFCURVE",
"545 98 OFFCURVE",
"521 98 CURVE SMOOTH",
"489 98 OFFCURVE",
"477 109 OFFCURVE",
"488 129 CURVE SMOOTH",
"498 144 OFFCURVE",
"475 166 OFFCURVE",
"460 144 CURVE",
"447 122 OFFCURVE",
"473 82 OFFCURVE",
"473 82 CURVE SMOOTH",
"473 82 OFFCURVE",
"453 62 OFFCURVE",
"451 61 CURVE SMOOTH",
"447 55 OFFCURVE",
"453 43 OFFCURVE",
"482 43 CURVE SMOOTH",
"501 43 OFFCURVE",
"528 48 OFFCURVE",
"566 67 CURVE SMOOTH",
"569 68 OFFCURVE",
"584 72 OFFCURVE",
"579 53 CURVE",
"574 31 OFFCURVE",
"574 19 OFFCURVE",
"587 6 CURVE SMOOTH"
);
},
{
closed = 1;
nodes = (
"184 169 OFFCURVE",
"177 180 OFFCURVE",
"177 188 CURVE SMOOTH",
"177 194 OFFCURVE",
"184 200 OFFCURVE",
"195 210 CURVE SMOOTH",
"205 217 OFFCURVE",
"201 234 OFFCURVE",
"178 234 CURVE SMOOTH",
"142 234 OFFCURVE",
"140 191 OFFCURVE",
"140 191 CURVE",
"69 191 LINE SMOOTH",
"69 191 OFFCURVE",
"74 283 OFFCURVE",
"166 283 CURVE SMOOTH",
"235 283 OFFCURVE",
"248 245 OFFCURVE",
"248 219 CURVE SMOOTH",
"248 183 OFFCURVE",
"225 169 OFFCURVE",
"201 169 CURVE SMOOTH"
);
},
{
closed = 1;
nodes = (
"69 40 OFFCURVE",
"69 157 OFFCURVE",
"69 157 CURVE",
"140 157 LINE",
"140 157 OFFCURVE",
"159 125 OFFCURVE",
"202 125 CURVE SMOOTH",
"248 125 OFFCURVE",
"282 169 OFFCURVE",
"282 214 CURVE SMOOTH",
"282 282 OFFCURVE",
"214 317 OFFCURVE",
"266 317 CURVE SMOOTH",
"277 317 OFFCURVE",
"280 310 OFFCURVE",
"293 310 CURVE SMOOTH",
"311 310 OFFCURVE",
"314 324 OFFCURVE",
"314 324 CURVE",
"314 314 OFFCURVE",
"359 304 OFFCURVE",
"365 300 CURVE",
"365 251 LINE",
"391 251 LINE",
"311 191 OFFCURVE",
"293 40 OFFCURVE",
"181 40 CURVE SMOOTH"
);
},
{
closed = 1;
nodes = (
"74 400 OFFCURVE",
"68 492 OFFCURVE",
"68 492 CURVE",
"140 492 LINE",
"140 492 OFFCURVE",
"143 449 OFFCURVE",
"178 449 CURVE",
"200 449 OFFCURVE",
"207 470 OFFCURVE",
"195 475 CURVE SMOOTH",
"184 482 OFFCURVE",
"177 487 OFFCURVE",
"177 495 CURVE SMOOTH",
"177 505 OFFCURVE",
"184 512 OFFCURVE",
"201 512 CURVE SMOOTH",
"225 512 OFFCURVE",
"248 499 OFFCURVE",
"248 464 CURVE SMOOTH",
"248 439 OFFCURVE",
"235 400 OFFCURVE",
"166 400 CURVE SMOOTH"
);
},
{
closed = 1;
nodes = (
"314 364 OFFCURVE",
"311 374 OFFCURVE",
"293 374 CURVE SMOOTH",
"280 374 OFFCURVE",
"277 364 OFFCURVE",
"266 364 CURVE SMOOTH",
"214 364 OFFCURVE",
"282 402 OFFCURVE",
"282 470 CURVE SMOOTH",
"282 516 OFFCURVE",
"248 557 OFFCURVE",
"202 557 CURVE SMOOTH",
"159 557 OFFCURVE",
"140 526 OFFCURVE",
"140 526 CURVE SMOOTH",
"68 526 LINE SMOOTH",
"68 526 OFFCURVE",
"68 644 OFFCURVE",
"180 644 CURVE SMOOTH",
"292 644 OFFCURVE",
"311 492 OFFCURVE",
"391 432 CURVE",
"365 432 LINE",
"365 385 LINE",
"359 379 OFFCURVE",
"314 368 OFFCURVE",
"314 359 CURVE"
);
},
{
closed = 1;
nodes = (
"608 211 OFFCURVE",
"600 231 OFFCURVE",
"579 245 CURVE",
"642 245 LINE",
"624 231 OFFCURVE",
"615 211 OFFCURVE",
"611 188 CURVE"
);
},
{
closed = 1;
nodes = (
"405 405 LINE",
"819 405 LINE",
"819 279 LINE",
"405 279 LINE"
);
},
{
closed = 1;
nodes = (
"598 453 OFFCURVE",
"608 473 OFFCURVE",
"611 495 CURVE",
"615 473 OFFCURVE",
"627 454 OFFCURVE",
"642 439 CURVE",
"579 439 LINE"
);
},
{
closed = 1;
nodes = (
"931 40 OFFCURVE",
"909 191 OFFCURVE",
"830 251 CURVE",
"857 251 LINE",
"857 300 LINE",
"861 304 OFFCURVE",
"907 314 OFFCURVE",
"907 324 CURVE",
"907 324 OFFCURVE",
"909 310 OFFCURVE",
"929 310 CURVE SMOOTH",
"939 310 OFFCURVE",
"949 317 OFFCURVE",
"960 317 CURVE SMOOTH",
"1008 317 OFFCURVE",
"938 282 OFFCURVE",
"938 214 CURVE SMOOTH",
"938 169 OFFCURVE",
"975 125 OFFCURVE",
"1018 125 CURVE SMOOTH",
"1064 125 OFFCURVE",
"1081 157 OFFCURVE",
"1081 157 CURVE",
"1153 157 LINE",
"1153 157 OFFCURVE",
"1154 40 OFFCURVE",
"1041 40 CURVE SMOOTH"
);
},
{
closed = 1;
nodes = (
"994 169 OFFCURVE",
"975 183 OFFCURVE",
"975 219 CURVE SMOOTH",
"975 245 OFFCURVE",
"987 283 OFFCURVE",
"1055 283 CURVE SMOOTH",
"1148 283 OFFCURVE",
"1153 191 OFFCURVE",
"1153 191 CURVE SMOOTH",
"1081 191 LINE",
"1081 191 OFFCURVE",
"1078 234 OFFCURVE",
"1042 234 CURVE SMOOTH",
"1021 234 OFFCURVE",
"1013 214 OFFCURVE",
"1027 210 CURVE SMOOTH",
"1040 204 OFFCURVE",
"1044 194 OFFCURVE",
"1044 188 CURVE SMOOTH",
"1044 180 OFFCURVE",
"1038 169 OFFCURVE",
"1020 169 CURVE SMOOTH"
);
},
{
closed = 1;
nodes = (
"907 368 OFFCURVE",
"861 379 OFFCURVE",
"857 385 CURVE",
"857 432 LINE",
"830 432 LINE",
"909 492 OFFCURVE",
"931 644 OFFCURVE",
"1041 644 CURVE SMOOTH",
"1154 644 OFFCURVE",
"1153 526 OFFCURVE",
"1153 526 CURVE SMOOTH",
"1081 526 LINE SMOOTH",
"1081 526 OFFCURVE",
"1064 557 OFFCURVE",
"1018 557 CURVE SMOOTH",
"975 557 OFFCURVE",
"938 516 OFFCURVE",
"938 470 CURVE SMOOTH",
"938 402 OFFCURVE",
"1008 364 OFFCURVE",
"960 364 CURVE SMOOTH",
"949 364 OFFCURVE",
"939 374 OFFCURVE",
"929 374 CURVE SMOOTH",
"909 374 OFFCURVE",
"907 359 OFFCURVE",
"907 359 CURVE"
);
},
{
closed = 1;
nodes = (
"987 400 OFFCURVE",
"975 439 OFFCURVE",
"975 464 CURVE SMOOTH",
"975 499 OFFCURVE",
"994 512 OFFCURVE",
"1020 512 CURVE SMOOTH",
"1038 512 OFFCURVE",
"1044 505 OFFCURVE",
"1044 495 CURVE SMOOTH",
"1044 487 OFFCURVE",
"1038 482 OFFCURVE",
"1027 475 CURVE SMOOTH",
"1013 470 OFFCURVE",
"1023 449 OFFCURVE",
"1042 449 CURVE SMOOTH",
"1078 449 OFFCURVE",
"1081 492 OFFCURVE",
"1081 492 CURVE",
"1153 492 LINE",
"1153 492 OFFCURVE",
"1148 400 OFFCURVE",
"1055 400 CURVE SMOOTH"
);
},
{
closed = 1;
nodes = (
"642 778 LINE",
"698 778 LINE",
"623 696 LINE",
"578 696 LINE"
);
},
{
closed = 0;
nodes = (
"615 685 LINE"
);
}
);
width = 1222;
}
);
unicode = 00C1;
},
{
glyphname = B;
lastChange = "2021-02-18 15:33:03 +0000";
layers = (
{
layerId = "A1B629DE-12A3-463D-9110-6FB76C8F6166";
paths = (
{
closed = 1;
nodes = (
"466 133 OFFCURVE",
"559 225 OFFCURVE",
"559 339 CURVE",
"559 454 OFFCURVE",
"466 548 OFFCURVE",
"352 548 CURVE",
"238 548 OFFCURVE",
"145 454 OFFCURVE",
"145 339 CURVE",
"145 225 OFFCURVE",
"238 133 OFFCURVE",
"352 133 CURVE"
);
},
{
closed = 1;
nodes = (
"134 70 OFFCURVE",
"180 69 OFFCURVE",
"207 96 CURVE SMOOTH",
"233 122 OFFCURVE",
"233 166 OFFCURVE",
"207 195 CURVE",
"180 223 OFFCURVE",
"134 220 OFFCURVE",
"110 195 CURVE SMOOTH",
"82 165 OFFCURVE",
"84 124 OFFCURVE",
"110 96 CURVE SMOOTH"
);
},
{
closed = 1;
nodes = (
"126 136 OFFCURVE",
"125 154 OFFCURVE",
"137 168 CURVE",
"148 179 OFFCURVE",
"167 179 OFFCURVE",
"178 168 CURVE SMOOTH",
"192 154 OFFCURVE",
"191 137 OFFCURVE",
"178 125 CURVE SMOOTH",
"166 114 OFFCURVE",
"148 114 OFFCURVE",
"137 125 CURVE SMOOTH"
);
},
{
closed = 1;
nodes = (
"389 -3 OFFCURVE",
"420 30 OFFCURVE",
"420 66 CURVE SMOOTH",
"420 106 OFFCURVE",
"387 137 OFFCURVE",
"352 136 CURVE",
"312 136 OFFCURVE",
"282 104 OFFCURVE",
"282 67 CURVE SMOOTH",
"282 30 OFFCURVE",
"312 -3 OFFCURVE",
"352 -3 CURVE"
);
},
{
closed = 1;
nodes = (
"335 38 OFFCURVE",
"321 51 OFFCURVE",
"321 67 CURVE SMOOTH",
"321 82 OFFCURVE",
"334 97 OFFCURVE",
"352 97 CURVE SMOOTH",
"368 97 OFFCURVE",
"381 84 OFFCURVE",
"381 67 CURVE SMOOTH",
"381 49 OFFCURVE",
"368 38 OFFCURVE",
"352 38 CURVE SMOOTH"
);
},
{
closed = 1;
nodes = (
"258 174 OFFCURVE",
"184 247 OFFCURVE",
"184 339 CURVE",
"184 434 OFFCURVE",
"258 507 OFFCURVE",
"352 507 CURVE",
"444 507 OFFCURVE",
"517 434 OFFCURVE",
"517 339 CURVE",
"517 247 OFFCURVE",
"444 174 OFFCURVE",
"352 174 CURVE"
);
},
{
closed = 1;
nodes = (
"419 220 OFFCURVE",
"471 273 OFFCURVE",
"471 339 CURVE",
"471 405 OFFCURVE",
"419 459 OFFCURVE",
"352 459 CURVE",
"286 459 OFFCURVE",
"232 405 OFFCURVE",
"232 339 CURVE",
"232 273 OFFCURVE",
"286 220 OFFCURVE",
"352 220 CURVE"
);
},
{
closed = 1;
nodes = (
"664 269 OFFCURVE",
"695 302 OFFCURVE",
"695 338 CURVE SMOOTH",
"695 378 OFFCURVE",
"662 410 OFFCURVE",
"627 408 CURVE",
"587 408 OFFCURVE",
"557 377 OFFCURVE",
"557 339 CURVE SMOOTH",
"557 302 OFFCURVE",
"587 269 OFFCURVE",
"627 269 CURVE"
);
},
{
closed = 1;
nodes = (
"610 311 OFFCURVE",
"596 323 OFFCURVE",
"596 339 CURVE SMOOTH",
"596 355 OFFCURVE",
"609 370 OFFCURVE",
"627 370 CURVE SMOOTH",
"643 370 OFFCURVE",
"656 356 OFFCURVE",
"656 339 CURVE SMOOTH",
"656 322 OFFCURVE",
"643 311 OFFCURVE",
"627 311 CURVE"
);
},
{
closed = 1;
nodes = (
"389 546 OFFCURVE",
"420 579 OFFCURVE",
"420 614 CURVE SMOOTH",
"420 654 OFFCURVE",
"387 686 OFFCURVE",
"352 685 CURVE",
"312 685 OFFCURVE",
"282 653 OFFCURVE",
"282 616 CURVE SMOOTH",
"282 579 OFFCURVE",
"312 546 OFFCURVE",
"352 546 CURVE"
);
},
{
closed = 1;
nodes = (
"335 587 OFFCURVE",
"321 599 OFFCURVE",
"321 616 CURVE SMOOTH",
"321 631 OFFCURVE",
"334 646 OFFCURVE",
"352 646 CURVE SMOOTH",
"368 646 OFFCURVE",
"381 632 OFFCURVE",
"381 616 CURVE SMOOTH",
"381 598 OFFCURVE",
"368 587 OFFCURVE",
"352 587 CURVE SMOOTH"
);
},
{
closed = 1;
nodes = (
"119 271 OFFCURVE",
"151 304 OFFCURVE",
"151 339 CURVE SMOOTH",
"151 379 OFFCURVE",
"118 411 OFFCURVE",
"82 410 CURVE",
"42 410 OFFCURVE",
"12 378 OFFCURVE",
"12 341 CURVE SMOOTH",
"12 304 OFFCURVE",
"42 271 OFFCURVE",
"82 271 CURVE"
);
},
{
closed = 1;
nodes = (
"66 312 OFFCURVE",
"52 324 OFFCURVE",
"52 341 CURVE SMOOTH",
"52 356 OFFCURVE",
"64 371 OFFCURVE",
"82 371 CURVE SMOOTH",
"99 371 OFFCURVE",
"111 357 OFFCURVE",
"111 341 CURVE SMOOTH",
"111 323 OFFCURVE",
"99 312 OFFCURVE",
"82 312 CURVE"
);
},
{
closed = 1;
nodes = (
"134 459 OFFCURVE",
"180 458 OFFCURVE",
"207 485 CURVE SMOOTH",
"233 511 OFFCURVE",
"233 555 OFFCURVE",
"207 584 CURVE",
"180 612 OFFCURVE",
"134 609 OFFCURVE",
"110 584 CURVE SMOOTH",
"82 554 OFFCURVE",
"84 513 OFFCURVE",
"110 485 CURVE SMOOTH"
);
},
{
closed = 1;
nodes = (
"126 525 OFFCURVE",
"125 543 OFFCURVE",
"137 557 CURVE",
"148 568 OFFCURVE",
"167 568 OFFCURVE",
"178 557 CURVE",
"192 543 OFFCURVE",
"191 526 OFFCURVE",
"178 514 CURVE SMOOTH",
"166 503 OFFCURVE",
"148 503 OFFCURVE",
"137 514 CURVE SMOOTH"
);
},
{
closed = 1;
nodes = (
"521 70 OFFCURVE",
"566 68 OFFCURVE",
"594 96 CURVE SMOOTH",
"620 122 OFFCURVE",
"620 166 OFFCURVE",
"594 195 CURVE",
"566 223 OFFCURVE",
"521 220 OFFCURVE",
"496 195 CURVE SMOOTH",
"467 166 OFFCURVE",
"470 124 OFFCURVE",
"496 96 CURVE SMOOTH"
);
},
{
closed = 1;
nodes = (
"513 136 OFFCURVE",
"511 154 OFFCURVE",
"524 168 CURVE",
"535 179 OFFCURVE",
"554 179 OFFCURVE",
"565 168 CURVE SMOOTH",
"579 154 OFFCURVE",
"577 136 OFFCURVE",
"565 125 CURVE SMOOTH",
"552 113 OFFCURVE",
"535 114 OFFCURVE",
"524 125 CURVE SMOOTH"
);
},
{
closed = 1;
nodes = (
"519 459 OFFCURVE",
"565 458 OFFCURVE",
"592 485 CURVE SMOOTH",
"618 511 OFFCURVE",
"618 555 OFFCURVE",
"592 584 CURVE",
"565 612 OFFCURVE",
"519 609 OFFCURVE",
"495 584 CURVE SMOOTH",
"467 554 OFFCURVE",
"469 513 OFFCURVE",
"495 485 CURVE SMOOTH"
);
},
{
closed = 1;
nodes = (
"511 525 OFFCURVE",
"510 543 OFFCURVE",
"522 557 CURVE",
"533 568 OFFCURVE",
"552 568 OFFCURVE",
"563 557 CURVE",
"577 543 OFFCURVE",
"576 526 OFFCURVE",
"563 514 CURVE SMOOTH",
"551 503 OFFCURVE",
"533 503 OFFCURVE",
"522 514 CURVE SMOOTH"
);
}
);
width = 707;
}
);
unicode = 0042;
},
{
glyphname = C;
lastChange = "2021-02-18 15:33:23 +0000";
layers = (
{
layerId = "A1B629DE-12A3-463D-9110-6FB76C8F6166";
paths = (
{
closed = 1;
nodes = (
"414 7 LINE",
"485 78 LINE",
"485 181 LINE",
"528 224 LINE",
"629 224 LINE",
"705 298 LINE",
"705 399 LINE",
"629 472 LINE",
"528 472 LINE",
"485 513 LINE",
"485 618 LINE",
"414 689 LINE",
"311 689 LINE",
"240 618 LINE",
"240 513 LINE",
"195 471 LINE",
"94 471 LINE",
"20 399 LINE",
"20 297 LINE",
"94 224 LINE",
"195 224 LINE",
"240 181 LINE",
"238 181 LINE",
"238 78 LINE",
"311 7 LINE"
);
},
{
closed = 1;
nodes = (
"394 53 LINE",
"439 98 LINE",
"439 164 LINE",
"394 210 LINE",
"330 210 LINE",
"282 164 LINE",
"282 98 LINE",
"330 53 LINE"
);
},
{
closed = 1;
nodes = (
"44 304 LINE",
"44 388 LINE",
"104 448 LINE",
"187 448 LINE",
"247 388 LINE",
"247 304 LINE",
"187 247 LINE",
"104 247 LINE"
);
},
{
closed = 1;
nodes = (
"177 269 LINE",
"223 315 LINE",
"223 381 LINE",
"177 425 LINE",
"113 425 LINE",
"66 381 LINE",
"66 315 LINE",
"113 269 LINE"
);
},
{
closed = 1;
nodes = (
"177 269 LINE",
"223 315 LINE",
"223 381 LINE",
"177 425 LINE",
"113 425 LINE",
"66 381 LINE",
"66 315 LINE",
"113 269 LINE"
);
},
{
closed = 1;
nodes = (
"217 240 LINE",
"255 277 LINE",
"292 238 LINE",
"255 201 LINE"
);
},
{
closed = 1;
nodes = (
"261 90 LINE",
"261 174 LINE",
"320 232 LINE",
"402 232 LINE",
"462 174 LINE",
"462 90 LINE",
"402 31 LINE",
"320 31 LINE"
);
},
{
closed = 1;
nodes = (
"429 240 LINE",
"468 277 LINE",
"506 238 LINE",
"468 201 LINE"
);
},
{
closed = 1;
nodes = (
"268 297 LINE",
"268 399 LINE",
"311 442 LINE",
"414 442 LINE",
"455 401 LINE",
"455 297 LINE",
"414 254 LINE",
"311 254 LINE"
);
},
{
closed = 1;
nodes = (
"217 458 LINE",
"255 495 LINE",
"292 456 LINE",
"255 419 LINE"
);
},
{
closed = 1;
nodes = (
"429 458 LINE",
"468 495 LINE",
"506 456 LINE",
"468 419 LINE"
);
},
{
closed = 1;
nodes = (
"478 305 LINE",
"478 389 LINE",
"538 448 LINE",
"621 448 LINE",
"679 389 LINE",
"679 305 LINE",
"621 248 LINE",
"538 248 LINE"
);
},
{
closed = 1;
nodes = (
"612 269 LINE",
"658 315 LINE",
"658 381 LINE",
"612 425 LINE",
"548 425 LINE",
"501 381 LINE",
"501 315 LINE",
"548 269 LINE"
);
},
{
closed = 1;
nodes = (
"261 523 LINE",
"261 606 LINE",
"320 666 LINE",
"402 666 LINE",
"462 606 LINE",
"462 523 LINE",
"402 463 LINE",
"320 463 LINE"
);
},
{
closed = 1;
nodes = (
"394 488 LINE",
"439 532 LINE",
"439 596 LINE",
"394 643 LINE",
"330 643 LINE",
"285 596 LINE",
"285 532 LINE",
"330 488 LINE"
);
}
);
width = 725;
}
);
unicode = 0043;
},
{
glyphname = D;
lastChange = "2021-02-18 15:33:41 +0000";
layers = (
{
layerId = "A1B629DE-12A3-463D-9110-6FB76C8F6166";
paths = (
{
closed = 1;
nodes = (
"22 139 OFFCURVE",
"61 97 OFFCURVE",
"106 97 CURVE SMOOTH",
"185 97 OFFCURVE",
"178 222 OFFCURVE",
"106 222 CURVE SMOOTH",
"79 222 OFFCURVE",
"79 187 OFFCURVE",
"106 187 CURVE SMOOTH",
"154 187 OFFCURVE",
"155 129 OFFCURVE",
"105 129 CURVE SMOOTH",
"86 129 OFFCURVE",
"49 147 OFFCURVE",
"49 197 CURVE SMOOTH",
"49 245 OFFCURVE",
"79 273 OFFCURVE",
"119 273 CURVE SMOOTH",
"164 273 OFFCURVE",
"185 240 OFFCURVE",
"212 199 CURVE",
"196 183 OFFCURVE",
"185 163 OFFCURVE",
"185 142 CURVE SMOOTH",
"185 92 OFFCURVE",
"235 89 OFFCURVE",
"248 103 CURVE SMOOTH",
"256 113 OFFCURVE",
"246 132 OFFCURVE",
"235 120 CURVE SMOOTH",
"219 105 OFFCURVE",
"205 125 OFFCURVE",
"205 142 CURVE SMOOTH",
"205 160 OFFCURVE",
"212 176 OFFCURVE",
"222 185 CURVE",
"245 150 LINE SMOOTH",
"282 95 OFFCURVE",
"349 -7 OFFCURVE",
"415 -7 CURVE SMOOTH",
"451 -7 OFFCURVE",
"502 12 OFFCURVE",
"502 82 CURVE SMOOTH",
"502 140 OFFCURVE",
"464 176 OFFCURVE",
"415 176 CURVE SMOOTH",
"349 176 OFFCURVE",
"329 87 OFFCURVE",
"379 63 CURVE SMOOTH",
"382 62 OFFCURVE",
"382 60 OFFCURVE",
"378 62 CURVE SMOOTH",
"297 89 OFFCURVE",
"324 272 OFFCURVE",
"389 213 CURVE SMOOTH",
"415 190 OFFCURVE",
"437 219 OFFCURVE",
"409 239 CURVE SMOOTH",
"394 250 OFFCURVE",
"377 257 OFFCURVE",
"357 257 CURVE",
"401 273 OFFCURVE",
"434 295 OFFCURVE",
"434 325 CURVE",
"487 325 OFFCURVE",
"481 172 OFFCURVE",
"481 172 CURVE",
"498 172 OFFCURVE",
"507 145 OFFCURVE",
"511 133 CURVE",
"515 145 OFFCURVE",
"524 172 OFFCURVE",
"541 172 CURVE",
"541 172 OFFCURVE",
"535 325 OFFCURVE",
"588 325 CURVE",
"588 295 OFFCURVE",
"621 273 OFFCURVE",
"665 257 CURVE",
"645 257 OFFCURVE",
"628 250 OFFCURVE",
"612 239 CURVE SMOOTH",
"585 219 OFFCURVE",
"607 190 OFFCURVE",
"632 213 CURVE SMOOTH",
"698 272 OFFCURVE",
"725 89 OFFCURVE",
"644 62 CURVE SMOOTH",
"640 60 OFFCURVE",
"640 62 OFFCURVE",
"642 63 CURVE SMOOTH",
"693 87 OFFCURVE",
"673 176 OFFCURVE",
"607 176 CURVE SMOOTH",
"558 176 OFFCURVE",
"520 140 OFFCURVE",
"520 82 CURVE SMOOTH",
"520 12 OFFCURVE",
"571 -7 OFFCURVE",
"607 -7 CURVE SMOOTH",
"673 -7 OFFCURVE",
"740 95 OFFCURVE",
"777 150 CURVE SMOOTH",
"800 185 LINE",
"810 176 OFFCURVE",
"817 160 OFFCURVE",
"817 142 CURVE SMOOTH",
"817 125 OFFCURVE",
"803 105 OFFCURVE",
"787 120 CURVE SMOOTH",
"775 132 OFFCURVE",
"765 113 OFFCURVE",
"774 103 CURVE SMOOTH",
"787 89 OFFCURVE",
"837 92 OFFCURVE",
"837 142 CURVE SMOOTH",
"837 163 OFFCURVE",
"825 183 OFFCURVE",
"810 199 CURVE",
"837 240 OFFCURVE",
"858 273 OFFCURVE",
"903 273 CURVE SMOOTH",
"943 273 OFFCURVE",
"973 245 OFFCURVE",
"973 197 CURVE SMOOTH",
"973 147 OFFCURVE",
"936 129 OFFCURVE",
"917 129 CURVE SMOOTH",
"867 129 OFFCURVE",
"868 187 OFFCURVE",
"916 187 CURVE SMOOTH",
"943 187 OFFCURVE",
"943 222 OFFCURVE",
"916 222 CURVE SMOOTH",
"844 222 OFFCURVE",
"837 97 OFFCURVE",
"916 97 CURVE SMOOTH",
"961 97 OFFCURVE",
"1000 139 OFFCURVE",
"1000 197 CURVE SMOOTH",
"1000 273 OFFCURVE",
"953 303 OFFCURVE",
"903 303 CURVE SMOOTH",
"846 303 OFFCURVE",
"817 263 OFFCURVE",
"790 219 CURVE",
"740 259 OFFCURVE",
"665 288 OFFCURVE",
"665 303 CURVE",
"665 303 OFFCURVE",
"733 263 OFFCURVE",
"754 320 CURVE",
"834 320 LINE SMOOTH",
"841 320 OFFCURVE",
"844 318 OFFCURVE",
"844 313 CURVE",
"844 313 OFFCURVE",
"931 310 OFFCURVE",
"931 330 CURVE SMOOTH",
"931 336 OFFCURVE",
"936 336 OFFCURVE",
"936 330 CURVE SMOOTH",
"936 320 OFFCURVE",
"961 320 OFFCURVE",
"961 340 CURVE SMOOTH",
"961 360 OFFCURVE",
"936 360 OFFCURVE",
"936 350 CURVE SMOOTH",
"936 345 OFFCURVE",
"931 345 OFFCURVE",
"931 350 CURVE SMOOTH",
"931 370 OFFCURVE",
"844 368 OFFCURVE",
"844 368 CURVE",
"844 363 OFFCURVE",
"841 360 OFFCURVE",
"834 360 CURVE SMOOTH",
"754 360 LINE",
"733 418 OFFCURVE",
"665 378 OFFCURVE",
"665 378 CURVE",
"665 393 OFFCURVE",
"740 422 OFFCURVE",
"790 462 CURVE",
"817 418 OFFCURVE",
"846 378 OFFCURVE",
"903 378 CURVE SMOOTH",
"953 378 OFFCURVE",
"1000 408 OFFCURVE",
"1000 483 CURVE SMOOTH",
"1000 542 OFFCURVE",
"961 583 OFFCURVE",
"916 583 CURVE SMOOTH",
"837 583 OFFCURVE",
"844 459 OFFCURVE",
"916 459 CURVE SMOOTH",
"943 459 OFFCURVE",
"943 493 OFFCURVE",
"916 493 CURVE SMOOTH",
"868 493 OFFCURVE",
"867 552 OFFCURVE",
"917 552 CURVE SMOOTH",
"936 552 OFFCURVE",
"973 533 OFFCURVE",
"973 483 CURVE SMOOTH",
"973 436 OFFCURVE",
"943 408 OFFCURVE",
"903 408 CURVE SMOOTH",
"858 408 OFFCURVE",
"837 441 OFFCURVE",
"810 482 CURVE",
"825 498 OFFCURVE",
"837 518 OFFCURVE",
"837 539 CURVE SMOOTH",
"837 589 OFFCURVE",
"787 592 OFFCURVE",
"774 578 CURVE SMOOTH",
"765 568 OFFCURVE",
"775 549 OFFCURVE",
"787 561 CURVE SMOOTH",
"803 576 OFFCURVE",
"817 556 OFFCURVE",
"817 539 CURVE SMOOTH",
"817 521 OFFCURVE",
"810 505 OFFCURVE",
"800 496 CURVE",
"777 531 LINE SMOOTH",
"740 586 OFFCURVE",
"673 688 OFFCURVE",
"607 688 CURVE SMOOTH",
"571 688 OFFCURVE",
"520 669 OFFCURVE",
"520 599 CURVE SMOOTH",
"520 541 OFFCURVE",
"558 505 OFFCURVE",
"607 505 CURVE SMOOTH",
"673 505 OFFCURVE",
"693 593 OFFCURVE",
"642 618 CURVE SMOOTH",
"640 619 OFFCURVE",
"640 621 OFFCURVE",
"644 619 CURVE SMOOTH",
"725 592 OFFCURVE",
"698 409 OFFCURVE",
"632 468 CURVE SMOOTH",
"607 491 OFFCURVE",
"585 462 OFFCURVE",
"612 442 CURVE SMOOTH",
"628 430 OFFCURVE",
"645 423 OFFCURVE",
"665 423 CURVE",
"621 408 OFFCURVE",
"588 386 OFFCURVE",
"588 356 CURVE",
"535 356 OFFCURVE",
"541 509 OFFCURVE",
"541 509 CURVE",
"524 509 OFFCURVE",
"515 536 OFFCURVE",
"511 548 CURVE",
"507 536 OFFCURVE",
"498 509 OFFCURVE",
"481 509 CURVE",
"481 509 OFFCURVE",
"487 356 OFFCURVE",
"434 356 CURVE",
"434 386 OFFCURVE",
"401 408 OFFCURVE",
"357 423 CURVE",
"377 423 OFFCURVE",
"394 430 OFFCURVE",
"409 442 CURVE SMOOTH",
"437 462 OFFCURVE",
"415 491 OFFCURVE",
"389 468 CURVE SMOOTH",
"324 409 OFFCURVE",
"297 592 OFFCURVE",
"378 619 CURVE SMOOTH",
"382 621 OFFCURVE",
"382 619 OFFCURVE",
"379 618 CURVE SMOOTH",
"329 593 OFFCURVE",
"349 505 OFFCURVE",
"415 505 CURVE SMOOTH",
"464 505 OFFCURVE",
"502 541 OFFCURVE",
"502 599 CURVE SMOOTH",
"502 669 OFFCURVE",
"451 688 OFFCURVE",
"415 688 CURVE SMOOTH",
"349 688 OFFCURVE",
"282 586 OFFCURVE",
"245 531 CURVE SMOOTH",
"222 496 LINE",
"212 505 OFFCURVE",
"205 521 OFFCURVE",
"205 539 CURVE SMOOTH",
"205 556 OFFCURVE",
"219 576 OFFCURVE",
"235 561 CURVE SMOOTH",
"246 549 OFFCURVE",
"256 568 OFFCURVE",
"248 578 CURVE SMOOTH",
"235 592 OFFCURVE",
"185 589 OFFCURVE",
"185 539 CURVE SMOOTH",
"185 518 OFFCURVE",
"196 498 OFFCURVE",
"212 482 CURVE",
"185 441 OFFCURVE",
"164 408 OFFCURVE",
"119 408 CURVE SMOOTH",
"79 408 OFFCURVE",
"49 436 OFFCURVE",
"49 483 CURVE SMOOTH",
"49 533 OFFCURVE",
"86 552 OFFCURVE",
"105 552 CURVE SMOOTH",
"155 552 OFFCURVE",
"154 493 OFFCURVE",
"106 493 CURVE SMOOTH",
"79 493 OFFCURVE",
"79 459 OFFCURVE",
"106 459 CURVE SMOOTH",
"178 459 OFFCURVE",
"185 583 OFFCURVE",
"106 583 CURVE SMOOTH",
"61 583 OFFCURVE",
"22 542 OFFCURVE",
"22 483 CURVE SMOOTH",
"22 408 OFFCURVE",
"69 378 OFFCURVE",
"119 378 CURVE SMOOTH",
"176 378 OFFCURVE",
"205 418 OFFCURVE",
"232 462 CURVE",
"282 422 OFFCURVE",
"357 393 OFFCURVE",
"357 378 CURVE",
"357 378 OFFCURVE",
"289 418 OFFCURVE",
"268 360 CURVE",
"188 360 LINE SMOOTH",
"181 360 OFFCURVE",
"178 363 OFFCURVE",
"178 368 CURVE",
"178 368 OFFCURVE",
"91 370 OFFCURVE",
"91 350 CURVE SMOOTH",
"91 345 OFFCURVE",
"86 345 OFFCURVE",
"86 350 CURVE SMOOTH",
"86 360 OFFCURVE",
"61 360 OFFCURVE",
"61 340 CURVE SMOOTH",
"61 320 OFFCURVE",
"86 320 OFFCURVE",
"86 330 CURVE SMOOTH",
"86 336 OFFCURVE",
"91 336 OFFCURVE",
"91 330 CURVE SMOOTH",
"91 310 OFFCURVE",
"178 313 OFFCURVE",
"178 313 CURVE",
"178 318 OFFCURVE",
"181 320 OFFCURVE",
"188 320 CURVE SMOOTH",
"268 320 LINE",
"289 263 OFFCURVE",
"357 303 OFFCURVE",
"357 303 CURVE",
"357 288 OFFCURVE",
"282 259 OFFCURVE",
"232 219 CURVE",
"205 263 OFFCURVE",
"176 303 OFFCURVE",
"119 303 CURVE SMOOTH",
"69 303 OFFCURVE",
"22 273 OFFCURVE",
"22 197 CURVE SMOOTH"
);
},
{
closed = 1;
nodes = (
"268 219 OFFCURVE",
"299 233 OFFCURVE",
"328 243 CURVE",
"315 233 OFFCURVE",
"305 205 OFFCURVE",
"305 166 CURVE SMOOTH",
"305 97 OFFCURVE",
"349 53 OFFCURVE",
"409 53 CURVE SMOOTH",
"439 53 OFFCURVE",
"451 86 OFFCURVE",
"411 86 CURVE SMOOTH",
"362 86 OFFCURVE",
"367 146 OFFCURVE",
"415 146 CURVE SMOOTH",
"438 146 OFFCURVE",
"478 133 OFFCURVE",
"478 82 CURVE SMOOTH",
"478 49 OFFCURVE",
"462 22 OFFCURVE",
"415 22 CURVE SMOOTH",
"365 22 OFFCURVE",
"309 107 OFFCURVE",
"262 170 CURVE SMOOTH",
"241 199 LINE"
);
},
{
closed = 1;
nodes = (
"262 511 LINE SMOOTH",
"309 573 OFFCURVE",
"365 659 OFFCURVE",
"415 659 CURVE SMOOTH",
"462 659 OFFCURVE",
"478 632 OFFCURVE",
"478 599 CURVE SMOOTH",
"478 548 OFFCURVE",
"438 535 OFFCURVE",
"415 535 CURVE SMOOTH",
"367 535 OFFCURVE",
"362 595 OFFCURVE",
"411 595 CURVE SMOOTH",
"451 595 OFFCURVE",
"439 628 OFFCURVE",
"409 628 CURVE SMOOTH",
"349 628 OFFCURVE",
"305 583 OFFCURVE",
"305 515 CURVE SMOOTH",
"305 476 OFFCURVE",
"315 448 OFFCURVE",
"328 438 CURVE",
"299 448 OFFCURVE",
"268 462 OFFCURVE",
"241 482 CURVE"
);
},
{
closed = 1;
nodes = (
"488 345 OFFCURVE",
"490 363 OFFCURVE",
"511 365 CURVE",
"532 363 OFFCURVE",
"534 345 OFFCURVE",
"534 340 CURVE SMOOTH",
"534 336 OFFCURVE",
"532 318 OFFCURVE",
"511 316 CURVE",
"490 318 OFFCURVE",
"488 336 OFFCURVE",
"488 340 CURVE SMOOTH"
);
},
{
closed = 1;
nodes = (
"544 632 OFFCURVE",
"560 659 OFFCURVE",
"607 659 CURVE SMOOTH",
"657 659 OFFCURVE",
"713 573 OFFCURVE",
"760 511 CURVE SMOOTH",
"781 482 LINE",
"754 462 OFFCURVE",
"723 448 OFFCURVE",
"694 438 CURVE",
"707 448 OFFCURVE",
"717 476 OFFCURVE",
"717 515 CURVE SMOOTH",
"717 583 OFFCURVE",
"673 628 OFFCURVE",
"612 628 CURVE SMOOTH",
"582 628 OFFCURVE",
"571 595 OFFCURVE",
"611 595 CURVE SMOOTH",
"660 595 OFFCURVE",
"655 535 OFFCURVE",
"607 535 CURVE SMOOTH",
"584 535 OFFCURVE",
"544 548 OFFCURVE",
"544 599 CURVE SMOOTH"
);
},
{
closed = 1;
nodes = (
"545 133 OFFCURVE",
"585 146 OFFCURVE",
"608 146 CURVE SMOOTH",
"657 146 OFFCURVE",
"661 86 OFFCURVE",
"612 86 CURVE SMOOTH",
"572 86 OFFCURVE",
"584 53 OFFCURVE",
"614 53 CURVE SMOOTH",
"674 53 OFFCURVE",
"718 97 OFFCURVE",
"718 166 CURVE SMOOTH",
"718 205 OFFCURVE",
"708 233 OFFCURVE",
"695 243 CURVE",
"724 233 OFFCURVE",
"755 219 OFFCURVE",
"783 199 CURVE",
"761 170 LINE SMOOTH",
"714 107 OFFCURVE",
"658 22 OFFCURVE",
"608 22 CURVE SMOOTH",
"561 22 OFFCURVE",
"545 49 OFFCURVE",
"545 82 CURVE SMOOTH"
);
}
);
width = 1012;
}
);
unicode = 0044;
},
{
glyphname = E;
lastChange = "2021-02-22 15:41:56 +0000";
layers = (
{
layerId = "A1B629DE-12A3-463D-9110-6FB76C8F6166";
paths = (
{
closed = 1;
nodes = (
"735 348 LINE",
"375 714 LINE",
"10 348 LINE",
"375 -10 LINE"
);
},
{
closed = 1;
nodes = (
"64 345 LINE",
"375 660 LINE",
"681 348 LINE",
"372 40 LINE"
);
},
{
closed = 1;
nodes = (
"356 315 OFFCURVE",
"339 328 OFFCURVE",
"339 348 CURVE",
"339 370 OFFCURVE",
"356 383 OFFCURVE",
"375 383 CURVE",
"394 383 OFFCURVE",
"410 370 OFFCURVE",
"410 348 CURVE",
"410 328 OFFCURVE",
"394 315 OFFCURVE",
"375 315 CURVE"
);
},
{
closed = 1;
nodes = (
"428 506 OFFCURVE",
"460 445 OFFCURVE",
"418 396 CURVE",
"465 433 OFFCURVE",
"531 398 OFFCURVE",
"588 351 CURVE",
"534 303 OFFCURVE",
"468 261 OFFCURVE",
"420 304 CURVE",
"453 264 OFFCURVE",
"435 206 OFFCURVE",
"373 132 CURVE",
"319 193 OFFCURVE",
"287 252 OFFCURVE",
"330 302 CURVE",
"281 266 OFFCURVE",
"218 299 OFFCURVE",
"160 347 CURVE",
"213 394 OFFCURVE",
"278 437 OFFCURVE",
"328 393 CURVE",
"294 436 OFFCURVE",
"311 494 OFFCURVE",
"372 566 CURVE"
);
},
{
closed = 1;
nodes = (
"310 549 OFFCURVE",
"273 499 OFFCURVE",
"273 449 CURVE",
"223 447 OFFCURVE",
"186 420 OFFCURVE",
"102 347 CURVE",
"182 278 OFFCURVE",
"224 253 OFFCURVE",
"273 248 CURVE",
"273 198 OFFCURVE",
"305 152 OFFCURVE",
"375 77 CURVE",
"449 158 OFFCURVE",
"461 185 OFFCURVE",
"475 248 CURVE",
"524 251 OFFCURVE",
"560 278 OFFCURVE",
"645 351 CURVE",
"564 420 OFFCURVE",
"523 444 OFFCURVE",
"475 449 CURVE",
"475 495 OFFCURVE",
"444 539 OFFCURVE",
"372 623 CURVE"
);
}
);
width = 745;
}
);
unicode = 0045;
},
{
glyphname = F;
lastChange = "2021-02-22 15:41:45 +0000";
layers = (
{
layerId = "A1B629DE-12A3-463D-9110-6FB76C8F6166";
paths = (
{
closed = 1;
nodes = (
"68 250 OFFCURVE",
"55 283 OFFCURVE",
"72 283 CURVE SMOOTH",
"103 283 OFFCURVE",
"134 236 OFFCURVE",
"134 152 CURVE",
"104 152 OFFCURVE",
"89 150 OFFCURVE",
"95 175 CURVE SMOOTH",
"100 198 OFFCURVE",
"71 198 OFFCURVE",
"71 175 CURVE SMOOTH",
"71 169 OFFCURVE",
"74 158 OFFCURVE",
"95 140 CURVE SMOOTH",
"139 104 OFFCURVE",
"91 -13 OFFCURVE",
"192 -13 CURVE SMOOTH",
"233 -13 OFFCURVE",
"142 71 OFFCURVE",
"191 71 CURVE SMOOTH",
"196 71 OFFCURVE",
"197 152 OFFCURVE",
"197 212 CURVE SMOOTH",
"197 386 OFFCURVE",
"134 415 OFFCURVE",
"176 415 CURVE SMOOTH",
"193 415 OFFCURVE",
"211 420 OFFCURVE",
"217 429 CURVE",
"217 -13 LINE",
"262 -13 LINE",
"262 429 LINE",
"267 420 OFFCURVE",
"284 415 OFFCURVE",
"301 415 CURVE SMOOTH",
"343 415 OFFCURVE",
"280 386 OFFCURVE",
"280 212 CURVE SMOOTH",
"280 152 OFFCURVE",
"282 71 OFFCURVE",
"287 71 CURVE SMOOTH",
"336 71 OFFCURVE",
"245 -13 OFFCURVE",
"286 -13 CURVE SMOOTH",
"386 -13 OFFCURVE",
"338 104 OFFCURVE",
"382 140 CURVE SMOOTH",
"404 158 OFFCURVE",
"407 169 OFFCURVE",
"407 175 CURVE SMOOTH",
"407 198 OFFCURVE",
"376 198 OFFCURVE",
"382 175 CURVE SMOOTH",
"390 150 OFFCURVE",
"374 152 OFFCURVE",
"343 152 CURVE",
"343 236 OFFCURVE",
"375 283 OFFCURVE",
"405 283 CURVE SMOOTH",
"422 283 OFFCURVE",
"408 250 OFFCURVE",
"438 250 CURVE SMOOTH",
"482 250 OFFCURVE",
"479 316 OFFCURVE",
"419 317 CURVE SMOOTH",
"351 319 OFFCURVE",
"312 167 OFFCURVE",
"303 167 CURVE",
"303 250 OFFCURVE",
"434 403 OFFCURVE",
"434 524 CURVE SMOOTH",
"434 629 OFFCURVE",
"386 691 OFFCURVE",
"309 691 CURVE SMOOTH",
"258 691 OFFCURVE",
"249 640 OFFCURVE",
"268 640 CURVE SMOOTH",
"284 640 OFFCURVE",
"255 602 OFFCURVE",
"275 602 CURVE SMOOTH",
"299 602 OFFCURVE",
"275 564 OFFCURVE",
"287 542 CURVE SMOOTH",
"304 517 OFFCURVE",
"290 521 OFFCURVE",
"290 504 CURVE SMOOTH",
"290 479 OFFCURVE",
"375 483 OFFCURVE",
"343 536 CURVE SMOOTH",
"336 552 OFFCURVE",
"317 560 OFFCURVE",
"311 579 CURVE SMOOTH",
"303 606 OFFCURVE",
"324 610 OFFCURVE",
"349 606 CURVE SMOOTH",
"444 583 OFFCURVE",
"309 284 OFFCURVE",
"309 284 CURVE",
"309 363 OFFCURVE",
"376 475 OFFCURVE",
"296 475 CURVE SMOOTH",
"284 475 OFFCURVE",
"267 470 OFFCURVE",
"262 466 CURVE",
"262 591 LINE",
"262 591 OFFCURVE",
"254 600 OFFCURVE",
"254 606 CURVE",
"254 606 OFFCURVE",
"262 610 OFFCURVE",
"262 619 CURVE SMOOTH",
"262 631 OFFCURVE",
"250 637 OFFCURVE",
"246 637 CURVE SMOOTH",
"246 637 OFFCURVE",
"241 669 OFFCURVE",
"257 674 CURVE SMOOTH",
"276 679 OFFCURVE",
"259 727 OFFCURVE",
"238 727 CURVE",
"216 727 OFFCURVE",
"204 677 OFFCURVE",
"221 674 CURVE SMOOTH",
"236 670 OFFCURVE",
"232 637 OFFCURVE",
"232 637 CURVE SMOOTH",
"228 637 OFFCURVE",
"216 631 OFFCURVE",
"216 619 CURVE SMOOTH",
"216 610 OFFCURVE",
"224 606 OFFCURVE",
"224 606 CURVE",
"224 600 OFFCURVE",
"217 591 OFFCURVE",
"217 591 CURVE",
"217 466 LINE",
"211 470 OFFCURVE",
"193 475 OFFCURVE",
"180 475 CURVE SMOOTH",
"101 475 OFFCURVE",
"168 363 OFFCURVE",
"168 284 CURVE",
"168 284 OFFCURVE",
"33 583 OFFCURVE",
"129 606 CURVE SMOOTH",
"153 610 OFFCURVE",
"174 606 OFFCURVE",
"167 579 CURVE SMOOTH",
"162 560 OFFCURVE",
"142 552 OFFCURVE",
"134 536 CURVE SMOOTH",
"103 483 OFFCURVE",
"188 479 OFFCURVE",
"188 504 CURVE SMOOTH",
"188 521 OFFCURVE",
"175 516 OFFCURVE",
"191 542 CURVE SMOOTH",
"201 565 OFFCURVE",
"178 602 OFFCURVE",
"203 602 CURVE SMOOTH",
"222 602 OFFCURVE",
"193 640 OFFCURVE",
"208 640 CURVE SMOOTH",
"229 640 OFFCURVE",
"220 691 OFFCURVE",
"168 691 CURVE SMOOTH",
"91 691 OFFCURVE",
"43 629 OFFCURVE",
"43 524 CURVE SMOOTH",
"43 403 OFFCURVE",
"175 250 OFFCURVE",
"175 167 CURVE",
"166 167 OFFCURVE",
"125 317 OFFCURVE",
"59 317 CURVE SMOOTH",
"-1 317 OFFCURVE",
"-4 250 OFFCURVE",
"38 250 CURVE SMOOTH"
);
}
);
width = 478;
}
);
unicode = 0046;
},
{
glyphname = G;
lastChange = "2021-02-22 15:41:39 +0000";
layers = (
{
layerId = "A1B629DE-12A3-463D-9110-6FB76C8F6166";
paths = (
{
closed = 1;
nodes = (
"74 178 OFFCURVE",
"41 282 OFFCURVE",
"97 338 CURVE SMOOTH",
"152 393 OFFCURVE",
"216 380 OFFCURVE",
"216 345 CURVE SMOOTH",
"216 327 OFFCURVE",
"203 327 OFFCURVE",
"203 317 CURVE SMOOTH",
"203 309 OFFCURVE",
"207 302 OFFCURVE",
"220 304 CURVE",
"217 302 OFFCURVE",
"217 289 OFFCURVE",
"220 288 CURVE",
"199 297 OFFCURVE",
"167 298 OFFCURVE",
"134 277 CURVE SMOOTH",
"86 247 OFFCURVE",
"74 186 OFFCURVE",
"74 178 CURVE"
);
},
{
closed = 1;
nodes = (
"95 385 OFFCURVE",
"128 427 OFFCURVE",
"183 443 CURVE SMOOTH",
"259 465 OFFCURVE",
"259 418 OFFCURVE",
"240 384 CURVE",
"229 392 OFFCURVE",
"203 404 OFFCURVE",
"177 404 CURVE SMOOTH",
"139 404 OFFCURVE",
"97 384 OFFCURVE",
"83 370 CURVE"
);
},
{
closed = 1;
nodes = (
"118 209 OFFCURVE",
"147 240 OFFCURVE",
"177 240 CURVE SMOOTH",
"212 240 OFFCURVE",
"220 206 OFFCURVE",
"199 206 CURVE",
"199 199 OFFCURVE",
"211 192 OFFCURVE",
"223 192 CURVE SMOOTH",
"253 192 OFFCURVE",
"267 231 OFFCURVE",
"240 260 CURVE",
"267 261 OFFCURVE",
"283 243 OFFCURVE",
"288 231 CURVE",
"288 231 OFFCURVE",
"277 238 OFFCURVE",
"271 228 CURVE SMOOTH",
"266 220 OFFCURVE",
"273 212 OFFCURVE",
"269 200 CURVE SMOOTH",
"264 184 OFFCURVE",
"261 166 OFFCURVE",
"264 155 CURVE",
"264 155 OFFCURVE",
"174 187 OFFCURVE",
"174 77 CURVE",
"174 77 OFFCURVE",
"118 105 OFFCURVE",
"118 155 CURVE SMOOTH"
);
},
{
closed = 1;
nodes = (
"173 539 OFFCURVE",
"190 551 OFFCURVE",
"213 538 CURVE SMOOTH",
"234 526 OFFCURVE",
"273 490 OFFCURVE",
"255 490 CURVE SMOOTH",
"228 490 OFFCURVE",
"220 495 OFFCURVE",
"211 508 CURVE SMOOTH",
"205 516 OFFCURVE",
"173 502 OFFCURVE",
"173 525 CURVE SMOOTH"
);
},
{
closed = 1;
nodes = (
"189 107 OFFCURVE",
"262 128 OFFCURVE",
"261 67 CURVE",
"234 58 OFFCURVE",
"210 61 OFFCURVE",
"188 73 CURVE"
);
},
{
closed = 1;
nodes = (
"210 568 OFFCURVE",
"233 621 OFFCURVE",
"267 605 CURVE SMOOTH",
"298 590 OFFCURVE",
"303 522 OFFCURVE",
"283 522 CURVE SMOOTH",
"250 522 OFFCURVE",
"248 568 OFFCURVE",
"228 568 CURVE SMOOTH"
);
},
{
closed = 1;
nodes = (
"322 221 OFFCURVE",
"360 209 OFFCURVE",
"360 182 CURVE SMOOTH",
"360 155 OFFCURVE",
"337 163 OFFCURVE",
"337 130 CURVE",
"322 118 LINE",
"308 130 LINE",
"308 163 OFFCURVE",
"283 155 OFFCURVE",
"283 182 CURVE SMOOTH",
"283 209 OFFCURVE",
"322 222 OFFCURVE",
"322 222 CURVE"
);
},
{
closed = 1;
nodes = (
"306 553 OFFCURVE",
"315 566 OFFCURVE",
"322 573 CURVE",
"328 566 OFFCURVE",
"338 553 OFFCURVE",
"338 538 CURVE SMOOTH",
"338 524 OFFCURVE",
"328 516 OFFCURVE",
"322 508 CURVE",
"315 516 OFFCURVE",
"306 524 OFFCURVE",
"306 538 CURVE SMOOTH"
);
},
{
closed = 1;
nodes = (
"360 243 OFFCURVE",
"376 261 OFFCURVE",
"404 260 CURVE",
"376 231 OFFCURVE",
"391 192 OFFCURVE",
"421 192 CURVE SMOOTH",
"434 192 OFFCURVE",
"444 199 OFFCURVE",
"444 206 CURVE",
"424 206 OFFCURVE",
"432 240 OFFCURVE",
"468 240 CURVE SMOOTH",
"497 240 OFFCURVE",
"526 207 OFFCURVE",
"526 155 CURVE SMOOTH",
"526 105 OFFCURVE",
"469 77 OFFCURVE",
"469 77 CURVE",
"469 187 OFFCURVE",
"381 155 OFFCURVE",
"381 155 CURVE",
"383 166 OFFCURVE",
"382 184 OFFCURVE",
"375 200 CURVE SMOOTH",
"369 214 OFFCURVE",
"379 221 OFFCURVE",
"374 228 CURVE SMOOTH",
"367 238 OFFCURVE",
"357 231 OFFCURVE",
"357 231 CURVE"
);
},
{
closed = 1;
nodes = (
"342 522 OFFCURVE",
"346 590 OFFCURVE",
"376 605 CURVE SMOOTH",
"410 622 OFFCURVE",
"435 568 OFFCURVE",
"416 568 CURVE SMOOTH",
"397 568 OFFCURVE",
"393 522 OFFCURVE",
"360 522 CURVE SMOOTH"
);
},
{
closed = 1;
nodes = (
"388 128 OFFCURVE",
"454 107 OFFCURVE",
"456 73 CURVE",
"435 61 OFFCURVE",
"409 58 OFFCURVE",
"383 67 CURVE"
);
},
{
closed = 1;
nodes = (
"371 490 OFFCURVE",
"410 525 OFFCURVE",
"431 538 CURVE SMOOTH",
"452 551 OFFCURVE",
"470 539 OFFCURVE",
"470 525 CURVE SMOOTH",
"470 502 OFFCURVE",
"438 516 OFFCURVE",
"434 508 CURVE SMOOTH",
"427 493 OFFCURVE",
"416 490 OFFCURVE",
"388 490 CURVE SMOOTH"
);
},
{
closed = 1;
nodes = (
"386 418 OFFCURVE",
"386 467 OFFCURVE",
"462 443 CURVE SMOOTH",
"517 426 OFFCURVE",
"549 385 OFFCURVE",
"562 370 CURVE",
"547 384 OFFCURVE",
"505 404 OFFCURVE",
"468 404 CURVE SMOOTH",
"441 404 OFFCURVE",
"415 392 OFFCURVE",
"404 384 CURVE"
);
},
{
closed = 1;
nodes = (
"425 289 OFFCURVE",
"425 302 OFFCURVE",
"424 304 CURVE",
"437 302 OFFCURVE",
"441 309 OFFCURVE",
"441 317 CURVE SMOOTH",
"441 327 OFFCURVE",
"429 327 OFFCURVE",
"429 345 CURVE SMOOTH",
"429 380 OFFCURVE",
"492 392 OFFCURVE",
"547 338 CURVE SMOOTH",
"605 282 OFFCURVE",
"569 178 OFFCURVE",
"569 178 CURVE",
"569 186 OFFCURVE",
"557 244 OFFCURVE",
"511 277 CURVE SMOOTH",
"479 300 OFFCURVE",
"444 297 OFFCURVE",
"424 288 CURVE"
);
},
{
closed = 1;
nodes = (
"799 360 OFFCURVE",
"481 478 CURVE",
"513 495 OFFCURVE",
"492 573 OFFCURVE",
"447 560 CURVE",
"452 600 OFFCURVE",
"421 639 OFFCURVE",
"367 633 CURVE",
"367 633 OFFCURVE",
"357 671 OFFCURVE",
"328 683 CURVE",
"323 686 OFFCURVE",
"321 686 OFFCURVE",
"315 683 CURVE",
"288 671 OFFCURVE",
"277 633 OFFCURVE",
"277 633 CURVE",
"223 639 OFFCURVE",
"193 600 OFFCURVE",
"198 560 CURVE",
"152 573 OFFCURVE",
"131 495 OFFCURVE",
"163 478 CURVE",
"-146 360 OFFCURVE",
"111 -157 OFFCURVE",
"322 56 CURVE",
"535 -157 OFFCURVE"
);
}
);
width = 648;
}
);
unicode = 0047;
},
{
glyphname = H;
lastChange = "2021-02-18 15:36:31 +0000";
layers = (
{
layerId = "A1B629DE-12A3-463D-9110-6FB76C8F6166";
paths = (
{
closed = 1;
nodes = (
"277 401 OFFCURVE",
"316 442 OFFCURVE",
"369 442 CURVE SMOOTH",
"420 442 OFFCURVE",
"459 401 OFFCURVE",
"459 351 CURVE SMOOTH",
"459 298 OFFCURVE",
"420 259 OFFCURVE",
"369 259 CURVE SMOOTH",
"316 259 OFFCURVE",
"277 298 OFFCURVE",
"277 351 CURVE SMOOTH"
);
},
{
closed = 1;
nodes = (
"333 369 OFFCURVE",
"348 386 OFFCURVE",
"369 386 CURVE",
"390 386 OFFCURVE",
"404 369 OFFCURVE",
"404 350 CURVE",
"404 330 OFFCURVE",
"390 315 OFFCURVE",
"369 315 CURVE",
"348 315 OFFCURVE",
"333 330 OFFCURVE",
"333 350 CURVE"
);
},
{
closed = 1;
nodes = (
"568 392 OFFCURVE",
"543 417 OFFCURVE",
"512 423 CURVE",
"539 450 OFFCURVE",
"551 478 OFFCURVE",
"525 504 CURVE SMOOTH",
"497 532 OFFCURVE",
"455 512 OFFCURVE",
"443 492 CURVE",
"434 525 OFFCURVE",
"404 550 OFFCURVE",
"369 550 CURVE SMOOTH",
"333 550 OFFCURVE",
"304 525 OFFCURVE",
"294 492 CURVE",
"279 515 OFFCURVE",
"241 535 OFFCURVE",
"212 504 CURVE SMOOTH",
"187 478 OFFCURVE",
"194 443 OFFCURVE",
"226 423 CURVE",
"192 412 OFFCURVE",
"169 383 OFFCURVE",
"169 351 CURVE SMOOTH",
"169 311 OFFCURVE",
"191 287 OFFCURVE",
"226 278 CURVE",
"198 251 OFFCURVE",
"192 218 OFFCURVE",
"212 197 CURVE SMOOTH",
"240 168 OFFCURVE",
"279 186 OFFCURVE",
"294 211 CURVE",
"299 176 OFFCURVE",
"333 151 OFFCURVE",
"369 151 CURVE SMOOTH",
"404 151 OFFCURVE",
"434 176 OFFCURVE",
"443 211 CURVE",
"468 184 OFFCURVE",
"505 179 OFFCURVE",
"525 197 CURVE SMOOTH",
"554 226 OFFCURVE",
"543 255 OFFCURVE",
"512 278 CURVE",
"547 284 OFFCURVE",
"568 318 OFFCURVE",
"568 351 CURVE SMOOTH"
);
},
{
closed = 1;
nodes = (
"291 564 OFFCURVE",
"304 575 OFFCURVE",
"330 582 CURVE",
"330 582 OFFCURVE",
"365 695 OFFCURVE",
"294 695 CURVE SMOOTH",
"252 695 OFFCURVE",
"252 656 OFFCURVE",
"252 656 CURVE",
"252 656 OFFCURVE",
"227 690 OFFCURVE",
"190 671 CURVE SMOOTH",
"133 642 OFFCURVE",
"217 556 OFFCURVE",
"217 556 CURVE",
"237 561 OFFCURVE",
"255 558 OFFCURVE",
"279 553 CURVE"
);
},
{
closed = 1;
nodes = (
"448 564 OFFCURVE",
"432 575 OFFCURVE",
"409 582 CURVE",
"409 582 OFFCURVE",
"377 695 OFFCURVE",
"445 695 CURVE",
"490 695 OFFCURVE",
"490 656 OFFCURVE",
"490 656 CURVE",
"490 656 OFFCURVE",
"511 695 OFFCURVE",
"551 671 CURVE SMOOTH",
"605 640 OFFCURVE",
"522 556 OFFCURVE",
"522 556 CURVE",
"507 561 OFFCURVE",
"483 558 OFFCURVE",
"458 553 CURVE"
);
},
{
closed = 1;
nodes = (
"153 278 OFFCURVE",
"140 293 OFFCURVE",
"131 315 CURVE",
"131 315 OFFCURVE",
"20 348 OFFCURVE",
"20 282 CURVE SMOOTH",
"20 239 OFFCURVE",
"60 239 OFFCURVE",
"60 239 CURVE",
"60 239 OFFCURVE",
"24 218 OFFCURVE",
"45 176 CURVE SMOOTH",
"73 120 OFFCURVE",
"163 198 OFFCURVE",
"163 198 CURVE",
"156 220 OFFCURVE",
"158 240 OFFCURVE",
"166 264 CURVE"
);
},
{
closed = 1;
nodes = (
"153 426 OFFCURVE",
"140 408 OFFCURVE",
"131 386 CURVE",
"131 386 OFFCURVE",
"20 348 OFFCURVE",
"20 423 CURVE SMOOTH",
"20 464 OFFCURVE",
"60 468 OFFCURVE",
"60 468 CURVE",
"60 468 OFFCURVE",
"21 487 OFFCURVE",
"45 529 CURVE SMOOTH",
"76 585 OFFCURVE",
"163 503 OFFCURVE",
"163 503 CURVE",
"156 483 OFFCURVE",
"158 461 OFFCURVE",
"166 437 CURVE"
);
},
{
closed = 1;
nodes = (
"445 136 OFFCURVE",
"430 126 OFFCURVE",
"407 119 CURVE",
"407 119 OFFCURVE",
"369 9 OFFCURVE",
"443 6 CURVE SMOOTH",
"483 5 OFFCURVE",
"487 47 OFFCURVE",
"487 47 CURVE",
"487 47 OFFCURVE",
"512 13 OFFCURVE",
"548 29 CURVE SMOOTH",
"605 55 OFFCURVE",
"521 145 OFFCURVE",
"521 145 CURVE",
"504 140 OFFCURVE",
"480 143 OFFCURVE",
"455 148 CURVE"
);
},
{
closed = 1;
nodes = (
"291 136 OFFCURVE",
"308 126 OFFCURVE",
"330 119 CURVE",
"330 119 OFFCURVE",
"369 9 OFFCURVE",
"294 6 CURVE SMOOTH",
"252 5 OFFCURVE",
"252 47 OFFCURVE",
"252 47 CURVE",
"252 47 OFFCURVE",
"223 8 OFFCURVE",
"190 29 CURVE SMOOTH",
"134 66 OFFCURVE",
"217 145 OFFCURVE",
"217 145 CURVE",
"234 140 OFFCURVE",
"255 143 OFFCURVE",
"279 148 CURVE"
);
},
{
closed = 1;
nodes = (
"590 426 OFFCURVE",
"600 408 OFFCURVE",
"605 386 CURVE",
"605 386 OFFCURVE",
"717 351 OFFCURVE",
"717 423 CURVE SMOOTH",
"717 468 OFFCURVE",
"678 468 OFFCURVE",
"678 468 CURVE",
"678 468 OFFCURVE",
"717 492 OFFCURVE",
"696 528 CURVE SMOOTH",
"664 579 OFFCURVE",
"576 503 OFFCURVE",
"576 503 CURVE",
"582 479 OFFCURVE",
"579 461 OFFCURVE",
"571 437 CURVE"
);
},
{
closed = 1;
nodes = (
"586 278 OFFCURVE",
"597 293 OFFCURVE",
"605 315 CURVE",
"605 315 OFFCURVE",
"717 351 OFFCURVE",
"717 282 CURVE SMOOTH",
"717 236 OFFCURVE",
"678 239 OFFCURVE",
"678 239 CURVE",
"678 239 OFFCURVE",
"710 205 OFFCURVE",
"694 176 CURVE",
"662 120 OFFCURVE",
"576 198 OFFCURVE",
"576 198 CURVE",
"580 220 OFFCURVE",
"579 240 OFFCURVE",
"571 264 CURVE"
);
}
);
width = 737;
}
);
unicode = 0048;
},
{
glyphname = I;
lastChange = "2021-02-18 15:37:03 +0000";
layers = (
{
layerId = "A1B629DE-12A3-463D-9110-6FB76C8F6166";
paths = (
{
closed = 1;
nodes = (
"89 256 OFFCURVE",
"122 196 OFFCURVE",
"114 131 CURVE",
"154 105 OFFCURVE",
"183 62 OFFCURVE",
"188 15 CURVE",
"340 30 LINE",
"494 15 LINE",
"499 62 OFFCURVE",
"530 105 OFFCURVE",
"565 131 CURVE",
"560 196 OFFCURVE",
"593 256 OFFCURVE",
"648 288 CURVE",
"613 350 OFFCURVE",
"623 413 OFFCURVE",
"648 474 CURVE",
"593 515 OFFCURVE",
"544 586 OFFCURVE",
"541 650 CURVE",
"528 649 OFFCURVE",
"515 647 OFFCURVE",
"499 647 CURVE SMOOTH",
"437 647 OFFCURVE",
"368 668 OFFCURVE",
"340 706 CURVE",
"312 668 OFFCURVE",
"243 647 OFFCURVE",
"182 647 CURVE SMOOTH",
"167 647 OFFCURVE",
"154 649 OFFCURVE",
"139 650 CURVE",
"136 587 OFFCURVE",
"91 515 OFFCURVE",
"35 474 CURVE",
"57 413 OFFCURVE",
"69 350 OFFCURVE",
"35 288 CURVE"
);
},
{
closed = 1;
nodes = (
"127 474 OFFCURVE",
"145 495 OFFCURVE",
"160 520 CURVE SMOOTH",
"170 537 OFFCURVE",
"182 554 OFFCURVE",
"188 571 CURVE",
"236 507 LINE",
"152 389 LINE",
"111 442 LINE",
"108 455 LINE"
);
},
{
closed = 1;
nodes = (
"152 364 LINE",
"235 250 LINE",
"176 172 LINE",
"173 197 OFFCURVE",
"166 226 OFFCURVE",
"154 251 CURVE SMOOTH",
"144 273 OFFCURVE",
"127 292 OFFCURVE",
"111 308 CURVE"
);
},
{
closed = 1;
nodes = (
"119 355 OFFCURVE",
"120 367 OFFCURVE",
"120 382 CURVE SMOOTH",
"120 392 OFFCURVE",
"119 399 OFFCURVE",
"119 408 CURVE",
"142 375 LINE",
"117 342 LINE"
);
},
{
closed = 1;
nodes = (
"243 492 LINE",
"328 379 LINE",
"243 262 LINE",
"160 375 LINE"
);
},
{
closed = 1;
nodes = (
"243 238 LINE",
"328 119 LINE",
"306 90 LINE",
"233 83 LINE",
"221 110 OFFCURVE",
"204 132 OFFCURVE",
"185 156 CURVE"
);
},
{
closed = 1;
nodes = (
"235 586 OFFCURVE",
"276 595 OFFCURVE",
"312 608 CURVE",
"243 518 LINE",
"199 584 LINE"
);
},
{
closed = 1;
nodes = (
"337 367 LINE",
"422 250 LINE",
"337 134 LINE",
"252 250 LINE"
);
},
{
closed = 1;
nodes = (
"337 618 LINE",
"421 507 LINE",
"337 394 LINE",
"255 507 LINE"
);
},
{
closed = 1;
nodes = (
"337 110 LINE",
"349 93 LINE",
"346 93 OFFCURVE",
"343 93 OFFCURVE",
"340 93 CURVE SMOOTH",
"334 93 LINE",
"326 91 LINE"
);
},
{
closed = 1;
nodes = (
"431 238 LINE",
"496 153 LINE",
"477 132 OFFCURVE",
"458 110 OFFCURVE",
"447 83 CURVE",
"368 90 LINE",
"348 119 LINE"
);
},
{
closed = 1;
nodes = (
"430 492 LINE",
"512 376 LINE",
"431 262 LINE",
"348 379 LINE"
);
},
{
closed = 1;
nodes = (
"399 598 OFFCURVE",
"441 587 OFFCURVE",
"481 584 CURVE",
"430 518 LINE",
"362 614 LINE"
);
},
{
closed = 1;
nodes = (
"524 364 LINE",
"565 304 LINE",
"550 288 OFFCURVE",
"537 272 OFFCURVE",
"528 251 CURVE SMOOTH",
"516 223 OFFCURVE",
"505 194 OFFCURVE",
"502 165 CURVE",
"439 250 LINE"
);
},
{
closed = 1;
nodes = (
"493 577 LINE",
"499 558 OFFCURVE",
"508 539 OFFCURVE",
"519 520 CURVE SMOOTH",
"534 496 OFFCURVE",
"552 476 OFFCURVE",
"572 455 CURVE",
"524 389 LINE",
"439 507 LINE"
);
},
{
closed = 1;
nodes = (
"565 423 LINE",
"563 410 OFFCURVE",
"563 398 OFFCURVE",
"562 382 CURVE SMOOTH",
"560 366 OFFCURVE",
"562 351 OFFCURVE",
"563 335 CURVE",
"532 376 LINE"
);
}
);
width = 678;
}
);
unicode = 0049;
},
{
glyphname = Iacute;
lastChange = "2021-02-25 17:11:34 +0000";
layers = (
{
layerId = "A1B629DE-12A3-463D-9110-6FB76C8F6166";
paths = (
{
closed = 1;
nodes = (
"89 256 OFFCURVE",
"122 196 OFFCURVE",
"114 131 CURVE",
"154 105 OFFCURVE",
"183 62 OFFCURVE",
"188 15 CURVE",
"340 30 LINE",
"494 15 LINE",
"499 62 OFFCURVE",
"530 105 OFFCURVE",
"565 131 CURVE",
"560 196 OFFCURVE",
"593 256 OFFCURVE",
"648 288 CURVE",
"613 350 OFFCURVE",
"623 413 OFFCURVE",
"648 474 CURVE",
"593 515 OFFCURVE",
"544 586 OFFCURVE",
"541 650 CURVE",
"528 649 OFFCURVE",
"515 647 OFFCURVE",
"499 647 CURVE SMOOTH",
"437 647 OFFCURVE",
"368 668 OFFCURVE",
"340 706 CURVE",
"312 668 OFFCURVE",
"243 647 OFFCURVE",
"182 647 CURVE SMOOTH",
"167 647 OFFCURVE",
"154 649 OFFCURVE",
"139 650 CURVE",
"136 587 OFFCURVE",
"91 515 OFFCURVE",
"35 474 CURVE",
"57 413 OFFCURVE",
"69 350 OFFCURVE",
"35 288 CURVE"
);
},
{
closed = 1;
nodes = (
"127 474 OFFCURVE",
"145 495 OFFCURVE",
"160 520 CURVE SMOOTH",
"170 537 OFFCURVE",
"182 554 OFFCURVE",
"188 571 CURVE",
"236 507 LINE",
"152 389 LINE",
"111 442 LINE",
"108 455 LINE"
);
},
{
closed = 1;
nodes = (
"152 364 LINE",
"235 250 LINE",
"176 172 LINE",
"173 197 OFFCURVE",
"166 226 OFFCURVE",
"154 251 CURVE SMOOTH",
"144 273 OFFCURVE",
"127 292 OFFCURVE",
"111 308 CURVE"
);
},
{
closed = 1;
nodes = (
"119 355 OFFCURVE",
"120 367 OFFCURVE",
"120 382 CURVE SMOOTH",
"120 392 OFFCURVE",
"119 399 OFFCURVE",
"119 408 CURVE",
"142 375 LINE",
"117 342 LINE"
);
},
{
closed = 1;
nodes = (
"243 492 LINE",
"328 379 LINE",
"243 262 LINE",
"160 375 LINE"
);
},
{
closed = 1;
nodes = (
"243 238 LINE",
"328 119 LINE",
"306 90 LINE",
"233 83 LINE",
"221 110 OFFCURVE",
"204 132 OFFCURVE",
"185 156 CURVE"
);
},
{
closed = 1;
nodes = (
"235 586 OFFCURVE",
"276 595 OFFCURVE",
"312 608 CURVE",
"243 518 LINE",
"199 584 LINE"
);
},
{
closed = 1;
nodes = (
"337 367 LINE",
"422 250 LINE",
"337 134 LINE",
"252 250 LINE"
);
},
{
closed = 1;
nodes = (
"337 618 LINE",
"421 507 LINE",
"337 394 LINE",
"255 507 LINE"
);
},
{
closed = 1;
nodes = (
"337 110 LINE",
"349 93 LINE",
"346 93 OFFCURVE",
"343 93 OFFCURVE",
"340 93 CURVE SMOOTH",
"334 93 LINE",
"326 91 LINE"
);
},
{
closed = 1;
nodes = (
"431 238 LINE",
"496 153 LINE",
"477 132 OFFCURVE",
"458 110 OFFCURVE",
"447 83 CURVE",
"368 90 LINE",
"348 119 LINE"
);
},
{
closed = 1;
nodes = (
"430 492 LINE",
"512 376 LINE",
"431 262 LINE",
"348 379 LINE"
);
},
{
closed = 1;
nodes = (
"399 598 OFFCURVE",
"441 587 OFFCURVE",
"481 584 CURVE",
"430 518 LINE",
"362 614 LINE"
);
},
{
closed = 1;
nodes = (
"524 364 LINE",
"565 304 LINE",
"550 288 OFFCURVE",
"537 272 OFFCURVE",
"528 251 CURVE SMOOTH",
"516 223 OFFCURVE",
"505 194 OFFCURVE",
"502 165 CURVE",
"439 250 LINE"
);
},
{
closed = 1;
nodes = (
"493 577 LINE",
"499 558 OFFCURVE",
"508 539 OFFCURVE",
"519 520 CURVE SMOOTH",
"534 496 OFFCURVE",
"552 476 OFFCURVE",
"572 455 CURVE",
"524 389 LINE",
"439 507 LINE"
);
},
{
closed = 1;
nodes = (
"565 423 LINE",
"563 410 OFFCURVE",
"563 398 OFFCURVE",
"562 382 CURVE SMOOTH",
"560 366 OFFCURVE",
"562 351 OFFCURVE",
"563 335 CURVE",
"532 376 LINE"
);
},
{
closed = 1;
nodes = (
"541 776 LINE",
"599 776 LINE",
"521 694 LINE",
"479 694 LINE"
);
},
{
closed = 0;
nodes = (
"516 683 LINE"
);
}
);
width = 683;
}
);
unicode = 00CD;
},
{
glyphname = J;
lastChange = "2021-02-22 15:42:17 +0000";
layers = (
{
layerId = "A1B629DE-12A3-463D-9110-6FB76C8F6166";
paths = (
{
closed = 1;
nodes = (
"327 304 OFFCURVE",
"351 283 OFFCURVE",
"379 283 CURVE",
"411 283 OFFCURVE",
"432 304 OFFCURVE",
"432 337 CURVE",
"432 364 OFFCURVE",
"411 389 OFFCURVE",
"379 389 CURVE",
"351 389 OFFCURVE",
"327 364 OFFCURVE",
"327 337 CURVE"
);
},
{
closed = 1;
nodes = (
"283 389 OFFCURVE",
"327 435 OFFCURVE",
"379 435 CURVE",
"432 435 OFFCURVE",
"477 389 OFFCURVE",
"477 337 CURVE",
"477 283 OFFCURVE",
"432 241 OFFCURVE",
"379 241 CURVE",
"327 241 OFFCURVE",
"283 283 OFFCURVE",
"283 337 CURVE"
);
},
{
closed = 1;
nodes = (
"443 649 OFFCURVE",
"409 657 OFFCURVE",
"395 668 CURVE SMOOTH",
"386 676 OFFCURVE",
"384 695 OFFCURVE",
"379 695 CURVE SMOOTH",
"374 695 OFFCURVE",
"373 676 OFFCURVE",
"364 668 CURVE SMOOTH",
"350 657 OFFCURVE",
"315 649 OFFCURVE",
"315 591 CURVE SMOOTH",
"315 528 OFFCURVE",
"361 449 OFFCURVE",
"361 449 CURVE",
"372 451 OFFCURVE",
"387 451 OFFCURVE",
"397 449 CURVE",
"396 450 OFFCURVE",
"443 528 OFFCURVE",
"443 591 CURVE SMOOTH"
);
},
{
closed = 1;
nodes = (
"694 273 OFFCURVE",
"701 308 OFFCURVE",
"713 322 CURVE SMOOTH",
"721 331 OFFCURVE",
"740 332 OFFCURVE",
"740 337 CURVE SMOOTH",
"740 342 OFFCURVE",
"721 344 OFFCURVE",
"713 353 CURVE SMOOTH",
"701 367 OFFCURVE",
"694 401 OFFCURVE",
"636 401 CURVE SMOOTH",
"573 401 OFFCURVE",
"493 355 OFFCURVE",
"493 355 CURVE",
"496 345 OFFCURVE",
"496 330 OFFCURVE",
"493 319 CURVE",
"495 321 OFFCURVE",
"573 273 OFFCURVE",
"636 273 CURVE SMOOTH"
);
},
{
closed = 1;
nodes = (
"315 24 OFFCURVE",
"350 16 OFFCURVE",
"364 5 CURVE SMOOTH",
"373 -3 OFFCURVE",
"374 -22 OFFCURVE",
"379 -22 CURVE SMOOTH",
"384 -22 OFFCURVE",
"386 -3 OFFCURVE",
"395 5 CURVE SMOOTH",
"409 16 OFFCURVE",
"443 24 OFFCURVE",
"443 82 CURVE SMOOTH",
"443 145 OFFCURVE",
"397 224 OFFCURVE",
"397 224 CURVE",
"387 222 OFFCURVE",
"372 222 OFFCURVE",
"361 224 CURVE",
"363 223 OFFCURVE",
"315 145 OFFCURVE",
"315 82 CURVE SMOOTH"
);
},
{
closed = 1;
nodes = (
"66 401 OFFCURVE",
"58 367 OFFCURVE",
"47 353 CURVE SMOOTH",
"39 344 OFFCURVE",
"20 342 OFFCURVE",
"20 337 CURVE SMOOTH",
"20 332 OFFCURVE",
"39 331 OFFCURVE",
"47 322 CURVE SMOOTH",
"58 308 OFFCURVE",
"66 273 OFFCURVE",
"124 273 CURVE SMOOTH",
"187 273 OFFCURVE",
"266 319 OFFCURVE",
"266 319 CURVE",
"264 330 OFFCURVE",
"264 345 OFFCURVE",
"266 355 CURVE",
"265 354 OFFCURVE",
"187 401 OFFCURVE",
"124 401 CURVE SMOOTH"
);
},
{
closed = 1;
nodes = (
"650 512 OFFCURVE",
"632 541 OFFCURVE",
"629 560 CURVE SMOOTH",
"628 572 OFFCURVE",
"641 586 OFFCURVE",
"637 590 CURVE SMOOTH",
"633 594 OFFCURVE",
"619 581 OFFCURVE",
"608 582 CURVE SMOOTH",
"590 585 OFFCURVE",
"559 603 OFFCURVE",
"518 562 CURVE SMOOTH",
"473 517 OFFCURVE",
"450 428 OFFCURVE",
"450 428 CURVE",
"459 423 OFFCURVE",
"470 412 OFFCURVE",
"475 403 CURVE",
"475 405 OFFCURVE",
"564 426 OFFCURVE",
"609 471 CURVE SMOOTH"
);
},
{
closed = 1;
nodes = (
"556 68 OFFCURVE",
"587 87 OFFCURVE",
"606 90 CURVE SMOOTH",
"618 91 OFFCURVE",
"632 78 OFFCURVE",
"636 82 CURVE SMOOTH",
"640 86 OFFCURVE",
"627 100 OFFCURVE",
"628 111 CURVE SMOOTH",
"631 129 OFFCURVE",
"649 159 OFFCURVE",
"608 200 CURVE SMOOTH",
"563 245 OFFCURVE",
"474 268 OFFCURVE",
"474 268 CURVE",
"469 259 OFFCURVE",
"458 249 OFFCURVE",
"449 242 CURVE",
"451 242 OFFCURVE",
"473 154 OFFCURVE",
"517 109 CURVE SMOOTH"
);
},
{
closed = 1;
nodes = (
"112 156 OFFCURVE",
"130 127 OFFCURVE",
"133 109 CURVE SMOOTH",
"134 97 OFFCURVE",
"121 83 OFFCURVE",
"125 79 CURVE SMOOTH",
"129 76 OFFCURVE",
"143 88 OFFCURVE",
"155 87 CURVE SMOOTH",
"173 84 OFFCURVE",
"203 67 OFFCURVE",
"245 108 CURVE SMOOTH",
"288 151 OFFCURVE",
"313 241 OFFCURVE",
"313 241 CURVE",
"304 246 OFFCURVE",
"292 256 OFFCURVE",
"287 267 CURVE",
"287 264 OFFCURVE",
"198 242 OFFCURVE",
"153 197 CURVE SMOOTH"
);
},
{
closed = 1;
nodes = (
"202 604 OFFCURVE",
"173 585 OFFCURVE",
"155 582 CURVE SMOOTH",
"143 581 OFFCURVE",
"129 594 OFFCURVE",
"125 591 CURVE SMOOTH",
"120 589 OFFCURVE",
"134 573 OFFCURVE",
"133 560 CURVE SMOOTH",
"132 543 OFFCURVE",
"112 513 OFFCURVE",
"153 472 CURVE SMOOTH",
"198 427 OFFCURVE",
"287 404 OFFCURVE",
"287 404 CURVE",
"292 413 OFFCURVE",
"302 424 OFFCURVE",
"311 430 CURVE",
"310 430 OFFCURVE",
"288 518 OFFCURVE",
"243 563 CURVE SMOOTH"
);
}
);
width = 760;
}
);
unicode = 004A;
},
{
glyphname = K;
lastChange = "2021-02-22 15:42:25 +0000";
layers = (
{
layerId = "A1B629DE-12A3-463D-9110-6FB76C8F6166";
paths = (
{
closed = 1;
nodes = (
"247 -40 OFFCURVE",
"428 -40 OFFCURVE",
"482 88 CURVE",
"619 68 OFFCURVE",
"708 226 OFFCURVE",
"624 334 CURVE",
"708 444 OFFCURVE",
"619 601 OFFCURVE",
"482 582 CURVE",
"428 710 OFFCURVE",
"247 710 OFFCURVE",
"195 582 CURVE",
"58 601 OFFCURVE",
"-32 444 OFFCURVE",
"53 334 CURVE",
"-32 226 OFFCURVE",
"58 68 OFFCURVE",
"195 88 CURVE"
);
},
{
closed = 1;
nodes = (
"324 133 OFFCURVE",
"251 153 OFFCURVE",
"208 110 CURVE",
"224 165 OFFCURVE",
"180 217 OFFCURVE",
"113 205 CURVE",
"157 247 OFFCURVE",
"137 320 OFFCURVE",
"79 334 CURVE",
"137 350 OFFCURVE",
"157 423 OFFCURVE",
"113 465 CURVE",
"164 448 OFFCURVE",
"226 497 OFFCURVE",
"208 560 CURVE",
"252 515 OFFCURVE",
"324 536 OFFCURVE",
"338 595 CURVE",
"353 535 OFFCURVE",
"426 517 OFFCURVE",
"469 560 CURVE",
"450 501 OFFCURVE",
"512 444 OFFCURVE",
"562 465 CURVE",
"519 423 OFFCURVE",
"539 350 OFFCURVE",
"598 334 CURVE",
"539 320 OFFCURVE",
"519 247 OFFCURVE",
"562 205 CURVE",
"499 218 OFFCURVE",
"452 166 OFFCURVE",
"469 110 CURVE",
"426 153 OFFCURVE",
"353 133 OFFCURVE",
"338 75 CURVE"
);
},
{
closed = 1;
nodes = (
"310 285 OFFCURVE",
"287 307 OFFCURVE",
"287 334 CURVE",
"287 363 OFFCURVE",
"310 385 OFFCURVE",
"338 385 CURVE",
"366 385 OFFCURVE",
"389 363 OFFCURVE",
"389 334 CURVE",
"389 307 OFFCURVE",
"366 285 OFFCURVE",
"338 285 CURVE"
);
},
{
closed = 1;
nodes = (
"346 272 LINE",
"330 272 LINE",
"330 11 LINE",
"346 11 LINE"
);
},
{
closed = 1;
nodes = (
"605 326 LINE",
"605 342 LINE",
"397 342 LINE",
"397 326 LINE"
);
},
{
closed = 1;
nodes = (
"346 663 LINE",
"330 663 LINE",
"330 402 LINE",
"346 402 LINE"
);
},
{
closed = 1;
nodes = (
"67 342 LINE",
"67 326 LINE",
"276 326 LINE",
"276 342 LINE"
);
},
{
closed = 1;
nodes = (
"346 272 LINE",
"330 272 LINE",
"330 11 LINE",
"346 11 LINE"
);
},
{
closed = 1;
nodes = (
"605 326 LINE",
"605 342 LINE",
"397 342 LINE",
"397 326 LINE"
);
},
{
closed = 1;
nodes = (
"67 342 LINE",
"67 326 LINE",
"276 326 LINE",
"276 342 LINE"
);
},
{
closed = 0;
nodes = (
"278 309 LINE",
"53 179 LINE"
);
},
{
closed = 0;
nodes = (
"359 279 LINE",
"463 99 LINE"
);
},
{
closed = 1;
nodes = (
"625 492 LINE",
"617 505 LINE",
"392 375 LINE",
"400 362 LINE"
);
},
{
closed = 0;
nodes = (
"312 393 LINE",
"208 573 LINE"
);
},
{
closed = 1;
nodes = (
"286 296 LINE",
"278 309 LINE",
"53 179 LINE",
"61 166 LINE"
);
},
{
closed = 1;
nodes = (
"463 99 LINE",
"476 107 LINE",
"372 287 LINE",
"359 279 LINE"
);
},
{
closed = 1;
nodes = (
"208 573 LINE",
"195 565 LINE",
"299 385 LINE",
"312 393 LINE"
);
},
{
closed = 0;
nodes = (
"389 296 LINE",
"615 166 LINE"
);
},
{
closed = 0;
nodes = (
"375 381 LINE",
"479 561 LINE"
);
},
{
closed = 1;
nodes = (
"58 505 LINE",
"50 492 LINE",
"276 362 LINE",
"283 375 LINE"
);
},
{
closed = 0;
nodes = (
"300 283 LINE",
"196 103 LINE"
);
},
{
closed = 1;
nodes = (
"397 309 LINE",
"389 296 LINE",
"615 166 LINE",
"622 179 LINE"
);
},
{
closed = 1;
nodes = (
"479 561 LINE",
"466 569 LINE",
"362 389 LINE",
"375 381 LINE"
);
},
{
closed = 1;
nodes = (
"196 103 LINE",
"209 96 LINE",
"313 275 LINE",
"300 283 LINE"
);
},
{
closed = 1;
nodes = (
"238 279 OFFCURVE",
"283 234 OFFCURVE",
"338 234 CURVE",
"394 234 OFFCURVE",
"439 279 OFFCURVE",
"439 334 CURVE",
"439 390 OFFCURVE",
"394 435 OFFCURVE",
"338 435 CURVE",
"283 435 OFFCURVE",
"238 390 OFFCURVE",
"238 334 CURVE"
);
}
);
width = 677;
}
);
unicode = 004B;
},
{
glyphname = L;
lastChange = "2021-02-22 15:42:32 +0000";
layers = (
{
layerId = "A1B629DE-12A3-463D-9110-6FB76C8F6166";
paths = (
{
closed = 1;
nodes = (
"285 150 OFFCURVE",
"331 150 OFFCURVE",
"361 179 CURVE SMOOTH",
"391 206 OFFCURVE",
"401 256 OFFCURVE",
"405 305 CURVE",
"445 265 LINE",
"413 236 OFFCURVE",
"384 205 OFFCURVE",
"392 168 CURVE SMOOTH",
"402 119 OFFCURVE",
"470 115 OFFCURVE",
"497 152 CURVE SMOOTH",
"509 167 OFFCURVE",
"511 183 OFFCURVE",
"501 207 CURVE",
"541 168 LINE",
"535 168 OFFCURVE",
"528 164 OFFCURVE",
"523 159 CURVE SMOOTH",
"511 146 OFFCURVE",
"530 133 OFFCURVE",
"536 142 CURVE SMOOTH",
"547 156 OFFCURVE",
"553 156 OFFCURVE",
"562 148 CURVE SMOOTH",
"602 107 LINE",
"604 104 OFFCURVE",
"606 99 OFFCURVE",
"602 96 CURVE SMOOTH",
"587 88 OFFCURVE",
"538 77 OFFCURVE",
"504 119 CURVE",
"466 66 OFFCURVE",
"377 72 OFFCURVE",
"369 142 CURVE",
"282 74 OFFCURVE",
"155 176 OFFCURVE",
"208 282 CURVE",
"96 267 OFFCURVE",
"74 398 OFFCURVE",
"145 449 CURVE",
"114 471 OFFCURVE",
"119 538 OFFCURVE",
"152 572 CURVE SMOOTH",
"189 611 OFFCURVE",
"255 610 OFFCURVE",
"276 581 CURVE",
"326 648 OFFCURVE",
"456 626 OFFCURVE",
"444 517 CURVE",
"547 569 OFFCURVE",
"648 440 OFFCURVE",
"581 354 CURVE",
"653 350 OFFCURVE",
"657 256 OFFCURVE",
"603 220 CURVE",
"647 186 OFFCURVE",
"649 150 OFFCURVE",
"630 122 CURVE SMOOTH",
"626 118 OFFCURVE",
"622 118 OFFCURVE",
"617 122 CURVE",
"576 164 LINE SMOOTH",
"566 172 OFFCURVE",
"570 176 OFFCURVE",
"581 186 CURVE SMOOTH",
"592 198 OFFCURVE",
"579 214 OFFCURVE",
"566 202 CURVE SMOOTH",
"561 197 OFFCURVE",
"556 188 OFFCURVE",
"557 182 CURVE",
"516 222 LINE",
"542 216 OFFCURVE",
"560 214 OFFCURVE",
"570 222 CURVE SMOOTH",
"611 254 OFFCURVE",
"599 326 OFFCURVE",
"554 335 CURVE SMOOTH",
"524 341 OFFCURVE",
"486 308 OFFCURVE",
"462 279 CURVE",
"422 319 LINE",
"489 319 OFFCURVE",
"527 338 OFFCURVE",
"545 354 CURVE SMOOTH",
"579 388 OFFCURVE",
"566 434 OFFCURVE",
"535 466 CURVE SMOOTH",
"505 496 OFFCURVE",
"474 497 OFFCURVE",
"454 490 CURVE SMOOTH",
"406 475 OFFCURVE",
"392 407 OFFCURVE",
"387 353 CURVE",
"349 388 LINE",
"341 399 OFFCURVE",
"345 422 OFFCURVE",
"361 440 CURVE SMOOTH",
"371 448 OFFCURVE",
"354 466 OFFCURVE",
"341 452 CURVE SMOOTH",
"333 444 OFFCURVE",
"329 428 OFFCURVE",
"327 411 CURVE",
"297 440 LINE",
"292 445 OFFCURVE",
"292 445 OFFCURVE",
"292 498 CURVE SMOOTH",
"292 524 OFFCURVE",
"299 565 OFFCURVE",
"337 574 CURVE SMOOTH",
"377 585 OFFCURVE",
"405 561 OFFCURVE",
"398 520 CURVE SMOOTH",
"394 493 OFFCURVE",
"375 483 OFFCURVE",
"357 486 CURVE SMOOTH",
"345 487 OFFCURVE",
"333 496 OFFCURVE",
"333 517 CURVE SMOOTH",
"333 532 OFFCURVE",
"342 538 OFFCURVE",
"350 538 CURVE SMOOTH",
"361 538 OFFCURVE",
"361 532 OFFCURVE",
"361 524 CURVE SMOOTH",
"361 511 OFFCURVE",
"382 509 OFFCURVE",
"382 527 CURVE SMOOTH",
"382 546 OFFCURVE",
"372 558 OFFCURVE",
"354 558 CURVE SMOOTH",
"331 558 OFFCURVE",
"315 545 OFFCURVE",
"312 520 CURVE SMOOTH",
"310 496 OFFCURVE",
"326 467 OFFCURVE",
"356 466 CURVE SMOOTH",
"384 464 OFFCURVE",
"410 478 OFFCURVE",
"418 520 CURVE SMOOTH",
"436 606 OFFCURVE",
"307 625 OFFCURVE",
"278 546 CURVE",
"255 592 OFFCURVE",
"197 593 OFFCURVE",
"164 561 CURVE SMOOTH",
"131 528 OFFCURVE",
"133 471 OFFCURVE",
"183 449 CURVE",
"151 434 OFFCURVE",
"127 399 OFFCURVE",
"131 366 CURVE SMOOTH",
"138 318 OFFCURVE",
"179 307 OFFCURVE",
"209 311 CURVE SMOOTH",
"243 315 OFFCURVE",
"266 338 OFFCURVE",
"262 369 CURVE SMOOTH",
"259 396 OFFCURVE",
"239 414 OFFCURVE",
"208 413 CURVE SMOOTH",
"155 410 OFFCURVE",
"155 347 OFFCURVE",
"202 347 CURVE SMOOTH",
"223 347 OFFCURVE",
"220 366 OFFCURVE",
"202 366 CURVE SMOOTH",
"186 366 OFFCURVE",
"179 392 OFFCURVE",
"209 392 CURVE SMOOTH",
"227 392 OFFCURVE",
"239 383 OFFCURVE",
"240 368 CURVE SMOOTH",
"242 350 OFFCURVE",
"239 337 OFFCURVE",
"209 332 CURVE SMOOTH",
"160 326 OFFCURVE",
"136 369 OFFCURVE",
"161 406 CURVE SMOOTH",
"176 425 OFFCURVE",
"204 433 OFFCURVE",
"232 434 CURVE SMOOTH",
"255 436 OFFCURVE",
"273 436 OFFCURVE",
"280 429 CURVE",
"312 398 LINE",
"293 395 OFFCURVE",
"282 391 OFFCURVE",
"274 383 CURVE SMOOTH",
"259 368 OFFCURVE",
"277 354 OFFCURVE",
"286 366 CURVE SMOOTH",
"301 384 OFFCURVE",
"322 387 OFFCURVE",
"334 375 CURVE SMOOTH",
"372 339 LINE",
"276 338 OFFCURVE",
"248 304 OFFCURVE",
"231 277 CURVE SMOOTH",
"213 251 OFFCURVE",
"235 210 OFFCURVE",
"255 186 CURVE SMOOTH"
);
},
{
closed = 1;
nodes = (
"255 220 OFFCURVE",
"236 255 OFFCURVE",
"261 286 CURVE SMOOTH",
"280 308 OFFCURVE",
"318 316 OFFCURVE",
"372 319 CURVE",
"333 279 LINE SMOOTH",
"327 274 OFFCURVE",
"330 267 OFFCURVE",
"333 265 CURVE SMOOTH",
"338 259 OFFCURVE",
"343 260 OFFCURVE",
"348 265 CURVE SMOOTH",
"384 301 LINE",
"377 213 OFFCURVE",
"350 187 OFFCURVE",
"331 184 CURVE SMOOTH",
"318 182 OFFCURVE",
"293 178 OFFCURVE",
"270 202 CURVE SMOOTH"
);
},
{
closed = 1;
nodes = (
"409 193 OFFCURVE",
"422 214 OFFCURVE",
"440 232 CURVE",
"430 218 OFFCURVE",
"430 201 OFFCURVE",
"432 184 CURVE SMOOTH",
"433 169 OFFCURVE",
"455 165 OFFCURVE",
"454 188 CURVE SMOOTH",
"452 209 OFFCURVE",
"444 228 OFFCURVE",
"462 244 CURVE",
"494 209 OFFCURVE",
"490 176 OFFCURVE",
"479 164 CURVE SMOOTH",
"454 134 OFFCURVE",
"411 146 OFFCURVE",
"410 176 CURVE SMOOTH"
);
},
{
closed = 1;
nodes = (
"157 511 OFFCURVE",
"167 532 OFFCURVE",
"180 546 CURVE SMOOTH",
"193 558 OFFCURVE",
"218 569 OFFCURVE",
"237 561 CURVE SMOOTH",
"255 554 OFFCURVE",
"266 532 OFFCURVE",
"271 498 CURVE SMOOTH",
"276 466 LINE",
"258 483 OFFCURVE",
"229 511 OFFCURVE",
"223 504 CURVE SMOOTH",
"216 497 OFFCURVE",
"242 466 OFFCURVE",
"259 449 CURVE",
"233 455 LINE SMOOTH",
"186 463 OFFCURVE",
"172 481 OFFCURVE",
"167 492 CURVE SMOOTH"
);
},
{
closed = 1;
nodes = (
"494 275 OFFCURVE",
"520 271 OFFCURVE",
"535 271 CURVE SMOOTH",
"556 271 OFFCURVE",
"560 290 OFFCURVE",
"542 296 CURVE SMOOTH",
"532 299 OFFCURVE",
"512 297 OFFCURVE",
"494 288 CURVE",
"513 308 OFFCURVE",
"536 315 OFFCURVE",
"549 313 CURVE SMOOTH",
"581 309 OFFCURVE",
"581 254 OFFCURVE",
"560 244 CURVE SMOOTH",
"547 239 OFFCURVE",
"519 228 OFFCURVE",
"479 262 CURVE"
);
},
{
closed = 1;
nodes = (
"459 375 LINE SMOOTH",
"463 379 OFFCURVE",
"464 384 OFFCURVE",
"459 390 CURVE SMOOTH",
"456 392 OFFCURVE",
"448 394 OFFCURVE",
"444 390 CURVE SMOOTH",
"407 354 LINE",
"413 441 OFFCURVE",
"444 463 OFFCURVE",
"462 474 CURVE SMOOTH",
"473 479 OFFCURVE",
"500 472 OFFCURVE",
"519 452 CURVE SMOOTH",
"538 432 OFFCURVE",
"551 406 OFFCURVE",
"542 385 CURVE SMOOTH",
"530 357 OFFCURVE",
"488 343 OFFCURVE",
"422 339 CURVE"
);
},
{
closed = 1;
nodes = (
"168 89 OFFCURVE",
"231 55 OFFCURVE",
"258 92 CURVE",
"243 50 OFFCURVE",
"297 23 OFFCURVE",
"320 59 CURVE",
"310 16 OFFCURVE",
"363 -5 OFFCURVE",
"377 39 CURVE",
"372 -7 OFFCURVE",
"433 -9 OFFCURVE",
"436 32 CURVE",
"440 -10 OFFCURVE",
"485 -7 OFFCURVE",
"488 33 CURVE",
"492 -6 OFFCURVE",
"545 4 OFFCURVE",
"535 44 CURVE",
"549 4 OFFCURVE",
"617 29 OFFCURVE",
"596 74 CURVE",
"617 50 OFFCURVE",
"653 73 OFFCURVE",
"628 100 CURVE",
"653 73 OFFCURVE",
"676 110 OFFCURVE",
"653 131 CURVE",
"700 111 OFFCURVE",
"724 180 OFFCURVE",
"683 193 CURVE",
"724 183 OFFCURVE",
"734 237 OFFCURVE",
"691 240 CURVE",
"735 241 OFFCURVE",
"738 289 OFFCURVE",
"693 290 CURVE",
"738 289 OFFCURVE",
"736 360 OFFCURVE",
"682 346 CURVE",
"736 360 OFFCURVE",
"710 424 OFFCURVE",
"663 406 CURVE",
"710 424 OFFCURVE",
"678 490 OFFCURVE",
"629 466 CURVE",
"678 490 OFFCURVE",
"637 566 OFFCURVE",
"584 524 CURVE",
"636 568 OFFCURVE",
"575 651 OFFCURVE",
"513 587 CURVE",
"575 651 OFFCURVE",
"481 708 OFFCURVE",
"445 626 CURVE",
"481 708 OFFCURVE",
"390 725 OFFCURVE",
"377 649 CURVE",
"390 725 OFFCURVE",
"295 728 OFFCURVE",
"299 659 CURVE",
"295 728 OFFCURVE",
"204 702 OFFCURVE",
"225 646 CURVE",
"195 697 OFFCURVE",
"138 652 OFFCURVE",
"160 617 CURVE",
"136 651 OFFCURVE",
"77 593 OFFCURVE",
"110 568 CURVE",
"74 588 OFFCURVE",
"32 535 OFFCURVE",
"77 505 CURVE",
"25 521 OFFCURVE",
"4 434 OFFCURVE",
"68 429 CURVE",
"1 429 OFFCURVE",
"5 332 OFFCURVE",
"77 350 CURVE",
"4 330 OFFCURVE",
"21 247 OFFCURVE",
"102 281 CURVE",
"21 246 OFFCURVE",
"76 154 OFFCURVE",
"140 210 CURVE",
"78 153 OFFCURVE",
"156 95 OFFCURVE",
"199 140 CURVE"
);
}
);
width = 745;
}
);
unicode = 004C;
},
{
glyphname = M;
lastChange = "2021-02-18 15:38:16 +0000";
layers = (
{
layerId = "A1B629DE-12A3-463D-9110-6FB76C8F6166";
paths = (
{
closed = 1;
nodes = (
"491 673 OFFCURVE",
"412 646 OFFCURVE",
"413 608 CURVE",
"413 590 OFFCURVE",
"430 590 OFFCURVE",
"441 575 CURVE",
"454 557 OFFCURVE",
"442 552 OFFCURVE",
"442 552 CURVE",
"442 552 OFFCURVE",
"422 593 OFFCURVE",
"381 590 CURVE",
"319 587 OFFCURVE",
"323 537 OFFCURVE",
"323 537 CURVE",
"405 540 OFFCURVE",
"383 445 OFFCURVE",
"480 445 CURVE",
"524 445 OFFCURVE",
"515 564 OFFCURVE",
"520 564 CURVE SMOOTH",
"527 564 OFFCURVE",
"516 445 OFFCURVE",
"561 445 CURVE",
"658 445 OFFCURVE",
"637 540 OFFCURVE",
"718 537 CURVE",
"718 537 OFFCURVE",
"721 587 OFFCURVE",
"659 590 CURVE",
"619 593 OFFCURVE",
"598 552 OFFCURVE",
"598 552 CURVE",
"598 552 OFFCURVE",
"588 557 OFFCURVE",
"601 575 CURVE",
"611 590 OFFCURVE",
"626 590 OFFCURVE",
"626 608 CURVE",
"629 646 OFFCURVE",
"549 673 OFFCURVE",
"520 704 CURVE"
);
},
{
closed = 1;
nodes = (
"652 285 OFFCURVE",
"751 266 OFFCURVE",
"751 198 CURVE",
"751 198 OFFCURVE",
"814 194 OFFCURVE",
"814 244 CURVE SMOOTH",
"814 284 OFFCURVE",
"801 291 OFFCURVE",
"801 291 CURVE",
"821 291 OFFCURVE",
"828 260 OFFCURVE",
"850 256 CURVE SMOOTH",
"883 249 OFFCURVE",
"1011 320 OFFCURVE",
"1032 354 CURVE",
"1011 386 OFFCURVE",
"883 459 OFFCURVE",
"850 452 CURVE SMOOTH",
"828 448 OFFCURVE",
"821 415 OFFCURVE",
"801 415 CURVE",
"801 415 OFFCURVE",
"814 423 OFFCURVE",
"814 465 CURVE SMOOTH",
"814 515 OFFCURVE",
"751 508 OFFCURVE",
"751 508 CURVE",
"751 443 OFFCURVE",
"652 422 OFFCURVE",
"652 391 CURVE",
"652 361 OFFCURVE",
"804 354 OFFCURVE",
"804 354 CURVE",
"804 354 OFFCURVE",
"652 351 OFFCURVE",
"652 317 CURVE SMOOTH"
);
},
{
closed = 1;
nodes = (
"549 30 OFFCURVE",
"629 57 OFFCURVE",
"626 95 CURVE",
"626 113 OFFCURVE",
"611 113 OFFCURVE",
"601 128 CURVE",
"588 146 OFFCURVE",
"598 151 OFFCURVE",
"598 151 CURVE",
"598 151 OFFCURVE",
"619 110 OFFCURVE",
"659 113 CURVE",
"721 116 OFFCURVE",
"718 166 OFFCURVE",
"718 166 CURVE",
"637 163 OFFCURVE",
"658 258 OFFCURVE",
"561 258 CURVE",
"516 258 OFFCURVE",
"527 139 OFFCURVE",
"520 139 CURVE SMOOTH",
"515 139 OFFCURVE",
"524 258 OFFCURVE",
"480 258 CURVE",
"383 258 OFFCURVE",
"405 163 OFFCURVE",
"323 166 CURVE",
"323 166 OFFCURVE",
"319 116 OFFCURVE",
"381 113 CURVE",
"422 110 OFFCURVE",
"442 151 OFFCURVE",
"442 151 CURVE",
"442 151 OFFCURVE",
"454 146 OFFCURVE",
"441 128 CURVE",
"430 113 OFFCURVE",
"413 113 OFFCURVE",
"413 95 CURVE",
"412 57 OFFCURVE",
"491 30 OFFCURVE",
"520 -1 CURVE"
);
},
{
closed = 1;
nodes = (
"390 420 OFFCURVE",
"289 441 OFFCURVE",
"289 508 CURVE",
"289 508 OFFCURVE",
"227 515 OFFCURVE",
"227 463 CURVE SMOOTH",
"227 423 OFFCURVE",
"239 415 OFFCURVE",
"239 415 CURVE",
"221 413 OFFCURVE",
"213 445 OFFCURVE",
"192 449 CURVE SMOOTH",
"159 456 OFFCURVE",
"29 386 OFFCURVE",
"10 354 CURVE",
"29 320 OFFCURVE",
"159 246 OFFCURVE",
"192 255 CURVE SMOOTH",
"213 260 OFFCURVE",
"221 291 OFFCURVE",
"239 291 CURVE",
"239 291 OFFCURVE",
"227 284 OFFCURVE",
"227 241 CURVE SMOOTH",
"227 194 OFFCURVE",
"289 198 OFFCURVE",
"289 198 CURVE",
"289 263 OFFCURVE",
"390 285 OFFCURVE",
"390 317 CURVE SMOOTH",
"390 348 OFFCURVE",
"238 354 OFFCURVE",
"238 354 CURVE",
"238 354 OFFCURVE",
"390 355 OFFCURVE",
"390 391 CURVE SMOOTH"
);
},
{
closed = 1;
nodes = (
"409 391 OFFCURVE",
"458 422 OFFCURVE",
"520 422 CURVE",
"586 422 OFFCURVE",
"633 391 OFFCURVE",
"633 354 CURVE",
"633 315 OFFCURVE",
"586 284 OFFCURVE",
"520 284 CURVE",
"458 284 OFFCURVE",
"409 315 OFFCURVE",
"409 354 CURVE"
);
}
);
width = 1042;
}
);
unicode = 004D;
},
{
glyphname = N;
lastChange = "2021-02-18 15:38:48 +0000";
layers = (
{
layerId = "A1B629DE-12A3-463D-9110-6FB76C8F6166";
paths = (
{
closed = 1;
nodes = (
"630 462 LINE SMOOTH",
"697 491 OFFCURVE",
"637 594 OFFCURVE",
"585 561 CURVE",
"621 610 OFFCURVE",
"518 672 OFFCURVE",
"488 603 CURVE SMOOTH",
"399 397 LINE",
"409 391 OFFCURVE",
"418 382 OFFCURVE",
"421 372 CURVE"
);
},
{
closed = 1;
nodes = (
"332 285 LINE",
"323 290 OFFCURVE",
"317 299 OFFCURVE",
"311 308 CURVE",
"102 217 LINE SMOOTH",
"35 188 OFFCURVE",
"94 85 OFFCURVE",
"145 119 CURVE",
"111 73 OFFCURVE",
"215 9 OFFCURVE",
"244 78 CURVE SMOOTH"
);
},
{
closed = 1;
nodes = (
"376 -30 OFFCURVE",
"493 -2 OFFCURVE",
"465 70 CURVE SMOOTH",
"383 278 LINE",
"371 274 OFFCURVE",
"361 274 OFFCURVE",
"348 278 CURVE",
"267 70 LINE SMOOTH",
"239 -2 OFFCURVE",
"356 -30 OFFCURVE",
"368 28 CURVE"
);
},
{
closed = 1;
nodes = (
"305 322 LINE",
"301 335 OFFCURVE",
"301 347 OFFCURVE",
"305 356 CURVE",
"91 444 LINE",
"25 467 OFFCURVE",
"-6 349 OFFCURVE",
"53 341 CURVE",
"-6 332 OFFCURVE",
"25 215 OFFCURVE",
"91 240 CURVE SMOOTH"
);
},
{
closed = 1;
nodes = (
"317 382 OFFCURVE",
"323 391 OFFCURVE",
"332 397 CURVE",
"244 603 LINE SMOOTH",
"214 672 OFFCURVE",
"111 610 OFFCURVE",
"145 561 CURVE",
"94 594 OFFCURVE",
"34 491 OFFCURVE",
"102 462 CURVE SMOOTH",
"311 372 LINE"
);
},
{
closed = 1;
nodes = (
"518 9 OFFCURVE",
"621 73 OFFCURVE",
"585 119 CURVE",
"637 85 OFFCURVE",
"696 188 OFFCURVE",
"630 217 CURVE SMOOTH",
"421 308 LINE",
"418 299 OFFCURVE",
"409 290 OFFCURVE",
"399 285 CURVE",
"488 78 LINE SMOOTH"
);
},
{
closed = 1;
nodes = (
"396 290 OFFCURVE",
"418 312 OFFCURVE",
"418 341 CURVE SMOOTH",
"418 368 OFFCURVE",
"396 391 OFFCURVE",
"368 391 CURVE SMOOTH",
"338 391 OFFCURVE",
"317 368 OFFCURVE",
"317 341 CURVE SMOOTH",
"317 312 OFFCURVE",
"338 290 OFFCURVE",
"368 290 CURVE SMOOTH"
);
},
{
closed = 1;
nodes = (
"706 215 OFFCURVE",
"738 332 OFFCURVE",
"679 341 CURVE",
"738 349 OFFCURVE",
"706 467 OFFCURVE",
"641 444 CURVE",
"427 356 LINE",
"432 347 OFFCURVE",
"432 335 OFFCURVE",
"427 322 CURVE",
"641 240 LINE SMOOTH"
);
},
{
closed = 1;
nodes = (
"361 408 OFFCURVE",
"371 408 OFFCURVE",
"383 405 CURVE",
"465 613 LINE SMOOTH",
"493 683 OFFCURVE",
"376 711 OFFCURVE",
"368 655 CURVE",
"356 711 OFFCURVE",
"240 683 OFFCURVE",
"267 613 CURVE SMOOTH",
"348 405 LINE"
);
}
);
width = 730;
}
);
unicode = 004E;
},
{
glyphname = O;
lastChange = "2021-02-22 15:42:43 +0000";
layers = (
{
layerId = "A1B629DE-12A3-463D-9110-6FB76C8F6166";
paths = (
{
closed = 1;
nodes = (
"32 615 OFFCURVE",
"83 671 OFFCURVE",
"94 661 CURVE SMOOTH",
"110 646 OFFCURVE",
"44 604 OFFCURVE",
"59 594 CURVE SMOOTH",
"75 583 OFFCURVE",
"121 654 OFFCURVE",
"164 654 CURVE SMOOTH",
"201 654 OFFCURVE",
"212 613 OFFCURVE",
"213 580 CURVE SMOOTH",
"214 546 OFFCURVE",
"184 504 OFFCURVE",
"151 456 CURVE SMOOTH",
"100 381 OFFCURVE",
"36 287 OFFCURVE",
"36 168 CURVE SMOOTH",
"36 68 OFFCURVE",
"92 -16 OFFCURVE",
"178 8 CURVE",
"235 -37 OFFCURVE",
"318 -32 OFFCURVE",
"375 8 CURVE",
"460 -16 OFFCURVE",
"516 68 OFFCURVE",
"516 168 CURVE SMOOTH",
"516 287 OFFCURVE",
"452 381 OFFCURVE",
"401 456 CURVE SMOOTH",
"368 504 OFFCURVE",
"339 546 OFFCURVE",
"339 580 CURVE SMOOTH",
"339 613 OFFCURVE",
"351 654 OFFCURVE",
"388 654 CURVE SMOOTH",
"431 654 OFFCURVE",
"477 582 OFFCURVE",
"493 594 CURVE SMOOTH",
"509 606 OFFCURVE",
"443 645 OFFCURVE",
"459 661 CURVE SMOOTH",
"469 671 OFFCURVE",
"515 617 OFFCURVE",
"531 633 CURVE SMOOTH",
"538 640 OFFCURVE",
"518 650 OFFCURVE",
"501 670 CURVE SMOOTH",
"486 688 OFFCURVE",
"480 724 OFFCURVE",
"432 724 CURVE SMOOTH",
"402 724 OFFCURVE",
"361 709 OFFCURVE",
"338 689 CURVE SMOOTH",
"318 672 OFFCURVE",
"293 642 OFFCURVE",
"289 580 CURVE SMOOTH",
"286 532 OFFCURVE",
"321 483 OFFCURVE",
"360 427 CURVE SMOOTH",
"411 354 OFFCURVE",
"467 273 OFFCURVE",
"467 168 CURVE SMOOTH",
"467 118 OFFCURVE",
"447 56 OFFCURVE",
"411 56 CURVE",
"425 73 OFFCURVE",
"432 98 OFFCURVE",
"432 122 CURVE SMOOTH",
"432 174 OFFCURVE",
"411 194 OFFCURVE",
"394 213 CURVE",
"406 230 OFFCURVE",
"417 253 OFFCURVE",
"417 286 CURVE SMOOTH",
"417 357 OFFCURVE",
"380 387 OFFCURVE",
"344 387 CURVE SMOOTH",
"305 387 OFFCURVE",
"276 351 OFFCURVE",
"276 295 CURVE SMOOTH",
"276 253 OFFCURVE",
"287 231 OFFCURVE",
"318 203 CURVE",
"305 186 OFFCURVE",
"289 160 OFFCURVE",
"289 126 CURVE SMOOTH",
"289 89 OFFCURVE",
"298 52 OFFCURVE",
"326 35 CURVE",
"298 12 OFFCURVE",
"255 12 OFFCURVE",
"226 35 CURVE",
"254 52 OFFCURVE",
"263 89 OFFCURVE",
"263 126 CURVE SMOOTH",
"263 160 OFFCURVE",
"247 186 OFFCURVE",
"234 203 CURVE",
"266 231 OFFCURVE",
"276 253 OFFCURVE",
"276 295 CURVE SMOOTH",
"276 351 OFFCURVE",
"247 387 OFFCURVE",
"208 387 CURVE SMOOTH",
"172 387 OFFCURVE",
"136 357 OFFCURVE",
"136 286 CURVE SMOOTH",
"136 253 OFFCURVE",
"146 230 OFFCURVE",
"158 213 CURVE",
"141 194 OFFCURVE",
"120 174 OFFCURVE",
"120 122 CURVE SMOOTH",
"120 98 OFFCURVE",
"128 73 OFFCURVE",
"141 56 CURVE",
"105 56 OFFCURVE",
"86 118 OFFCURVE",
"86 168 CURVE SMOOTH",
"86 273 OFFCURVE",
"141 354 OFFCURVE",
"192 427 CURVE SMOOTH",
"231 483 OFFCURVE",
"263 532 OFFCURVE",
"263 580 CURVE SMOOTH",
"263 642 OFFCURVE",
"235 674 OFFCURVE",
"214 689 CURVE SMOOTH",
"188 707 OFFCURVE",
"150 724 OFFCURVE",
"120 724 CURVE SMOOTH",
"72 724 OFFCURVE",
"67 687 OFFCURVE",
"51 670 CURVE SMOOTH",
"33 651 OFFCURVE",
"16 641 OFFCURVE",
"21 633 CURVE SMOOTH"
);
},
{
closed = 1;
nodes = (
"167 144 OFFCURVE",
"176 157 OFFCURVE",
"192 174 CURVE",
"205 161 OFFCURVE",
"213 147 OFFCURVE",
"213 126 CURVE SMOOTH",
"213 104 OFFCURVE",
"201 76 OFFCURVE",
"185 69 CURVE",
"175 84 OFFCURVE",
"167 106 OFFCURVE",
"167 126 CURVE SMOOTH"
);
},
{
closed = 1;
nodes = (
"185 327 OFFCURVE",
"197 340 OFFCURVE",
"208 340 CURVE SMOOTH",
"218 340 OFFCURVE",
"231 327 OFFCURVE",
"231 287 CURVE SMOOTH",
"231 261 OFFCURVE",
"218 248 OFFCURVE",
"203 239 CURVE",
"192 251 OFFCURVE",
"185 265 OFFCURVE",
"185 286 CURVE SMOOTH"
);
},
{
closed = 1;
nodes = (
"321 327 OFFCURVE",
"334 340 OFFCURVE",
"344 340 CURVE SMOOTH",
"355 340 OFFCURVE",
"367 327 OFFCURVE",
"367 286 CURVE SMOOTH",
"367 265 OFFCURVE",
"360 251 OFFCURVE",
"350 239 CURVE",
"334 248 OFFCURVE",
"321 261 OFFCURVE",
"321 287 CURVE SMOOTH"
);
},
{
closed = 1;
nodes = (
"339 147 OFFCURVE",
"347 161 OFFCURVE",
"360 174 CURVE",
"376 157 OFFCURVE",
"385 144 OFFCURVE",
"385 126 CURVE SMOOTH",
"385 106 OFFCURVE",
"377 84 OFFCURVE",
"367 69 CURVE",
"351 76 OFFCURVE",
"339 104 OFFCURVE",
"339 126 CURVE SMOOTH"
);
}
);
width = 552;
}
);
unicode = 004F;
},
{
glyphname = P;
lastChange = "2021-02-18 15:40:10 +0000";
layers = (
{
layerId = "A1B629DE-12A3-463D-9110-6FB76C8F6166";
paths = (
{
closed = 1;
nodes = (
"370 467 OFFCURVE",
"426 578 OFFCURVE",
"536 652 CURVE SMOOTH",
"545 657 OFFCURVE",
"540 660 OFFCURVE",
"535 660 CURVE SMOOTH",
"495 660 OFFCURVE",
"456 650 OFFCURVE",
"419 636 CURVE",
"418 667 OFFCURVE",
"399 694 OFFCURVE",
"370 710 CURVE",
"342 694 OFFCURVE",
"325 670 OFFCURVE",
"320 636 CURVE",
"282 652 OFFCURVE",
"243 659 OFFCURVE",
"203 660 CURVE SMOOTH",
"198 660 OFFCURVE",
"196 656 OFFCURVE",
"200 653 CURVE SMOOTH",
"315 577 OFFCURVE",
"370 470 OFFCURVE",
"370 350 CURVE SMOOTH"
);
},
{
closed = 1;
nodes = (
"490 350 OFFCURVE",
"598 293 OFFCURVE",
"672 183 CURVE SMOOTH",
"677 175 OFFCURVE",
"680 179 OFFCURVE",
"680 185 CURVE SMOOTH",
"680 224 OFFCURVE",
"670 264 OFFCURVE",
"656 300 CURVE",
"687 302 OFFCURVE",
"714 320 OFFCURVE",
"730 350 CURVE",
"714 378 OFFCURVE",
"690 395 OFFCURVE",
"656 399 CURVE",
"672 437 OFFCURVE",
"680 477 OFFCURVE",
"680 516 CURVE SMOOTH",
"680 522 OFFCURVE",
"676 523 OFFCURVE",
"673 519 CURVE SMOOTH",
"597 405 OFFCURVE",
"490 350 OFFCURVE",
"370 350 CURVE"
);
},
{
closed = 1;
nodes = (
"370 230 OFFCURVE",
"313 121 OFFCURVE",
"203 48 CURVE SMOOTH",
"195 42 OFFCURVE",
"199 39 OFFCURVE",
"205 39 CURVE SMOOTH",
"244 39 OFFCURVE",
"284 49 OFFCURVE",
"320 63 CURVE",
"322 32 OFFCURVE",
"340 6 OFFCURVE",
"370 -10 CURVE",
"398 6 OFFCURVE",
"415 30 OFFCURVE",
"419 63 CURVE",
"457 48 OFFCURVE",
"497 39 OFFCURVE",
"536 39 CURVE SMOOTH",
"542 39 OFFCURVE",
"543 44 OFFCURVE",
"539 46 CURVE SMOOTH",
"425 123 OFFCURVE",
"370 230 OFFCURVE",
"370 350 CURVE"
);
},
{
closed = 1;
nodes = (
"250 350 OFFCURVE",
"141 406 OFFCURVE",
"68 516 CURVE SMOOTH",
"62 525 OFFCURVE",
"59 520 OFFCURVE",
"59 515 CURVE SMOOTH",
"59 475 OFFCURVE",
"69 436 OFFCURVE",
"83 399 CURVE",
"52 398 OFFCURVE",
"26 379 OFFCURVE",
"10 350 CURVE",
"26 322 OFFCURVE",
"50 305 OFFCURVE",
"83 300 CURVE",
"68 262 OFFCURVE",
"59 223 OFFCURVE",
"59 183 CURVE SMOOTH",
"59 178 OFFCURVE",
"64 176 OFFCURVE",
"66 180 CURVE SMOOTH",
"143 295 OFFCURVE",
"250 350 OFFCURVE",
"370 350 CURVE"
);
},
{
closed = 1;
nodes = (
"247 518 OFFCURVE",
"216 585 OFFCURVE",
"162 643 CURVE",
"126 618 OFFCURVE",
"99 588 OFFCURVE",
"81 563 CURVE",
"136 508 OFFCURVE",
"202 474 OFFCURVE",
"272 447 CURVE"
);
},
{
closed = 1;
nodes = (
"538 472 OFFCURVE",
"605 504 OFFCURVE",
"663 557 CURVE",
"638 594 OFFCURVE",
"608 621 OFFCURVE",
"583 639 CURVE",
"528 584 OFFCURVE",
"494 518 OFFCURVE",
"467 447 CURVE"
);
},
{
closed = 1;
nodes = (
"494 180 OFFCURVE",
"525 113 OFFCURVE",
"579 55 CURVE",
"615 80 OFFCURVE",
"642 110 OFFCURVE",
"660 135 CURVE",
"605 190 OFFCURVE",
"539 224 OFFCURVE",
"469 251 CURVE"
);
},
{
closed = 1;
nodes = (
"200 226 OFFCURVE",
"133 195 OFFCURVE",
"75 141 CURVE",
"100 104 OFFCURVE",
"130 77 OFFCURVE",
"155 59 CURVE",
"210 114 OFFCURVE",
"244 180 OFFCURVE",
"271 251 CURVE"
);
}
);
width = 740;
}
);
unicode = 0050;
},
{
glyphname = Q;
lastChange = "2021-02-22 15:42:53 +0000";
layers = (
{
layerId = "A1B629DE-12A3-463D-9110-6FB76C8F6166";
paths = (
{
closed = 1;
nodes = (
"337 414 OFFCURVE",
"328 408 OFFCURVE",
"320 408 CURVE",
"312 408 OFFCURVE",
"303 414 OFFCURVE",
"303 422 CURVE",
"303 432 OFFCURVE",
"312 440 OFFCURVE",
"320 440 CURVE",
"328 440 OFFCURVE",
"337 432 OFFCURVE",
"337 422 CURVE"
);
},
{
closed = 1;
nodes = (
"324 458 OFFCURVE",
"320 451 OFFCURVE",
"312 451 CURVE",
"300 451 OFFCURVE",
"292 458 OFFCURVE",
"292 465 CURVE",
"292 475 OFFCURVE",
"300 482 OFFCURVE",
"312 482 CURVE",
"320 482 OFFCURVE",
"324 475 OFFCURVE",
"324 465 CURVE"
);
},
{
closed = 1;
nodes = (
"312 500 OFFCURVE",
"302 493 OFFCURVE",
"292 493 CURVE",
"285 493 OFFCURVE",
"277 500 OFFCURVE",
"277 510 CURVE",
"277 519 OFFCURVE",
"285 527 OFFCURVE",
"292 527 CURVE",
"302 527 OFFCURVE",
"312 519 OFFCURVE",
"312 510 CURVE"
);
},
{
closed = 1;
nodes = (
"257 579 OFFCURVE",
"251 573 OFFCURVE",
"242 573 CURVE",
"232 573 OFFCURVE",
"226 579 OFFCURVE",
"226 587 CURVE",
"226 595 OFFCURVE",
"232 604 OFFCURVE",
"242 604 CURVE",
"251 604 OFFCURVE",
"257 595 OFFCURVE",
"257 587 CURVE"
);
},
{
closed = 1;
nodes = (
"226 615 OFFCURVE",
"218 608 OFFCURVE",
"211 608 CURVE",
"203 608 OFFCURVE",
"196 615 OFFCURVE",
"196 623 CURVE",
"196 632 OFFCURVE",
"203 640 OFFCURVE",
"211 640 CURVE",
"218 640 OFFCURVE",
"226 632 OFFCURVE",
"226 623 CURVE"
);
},
{
closed = 1;
nodes = (
"194 647 OFFCURVE",
"187 639 OFFCURVE",
"176 639 CURVE",
"168 639 OFFCURVE",
"162 647 OFFCURVE",
"162 654 CURVE",
"162 664 OFFCURVE",
"168 671 OFFCURVE",
"176 671 CURVE",
"187 671 OFFCURVE",
"194 664 OFFCURVE",
"194 654 CURVE"
);
},
{
closed = 1;
nodes = (
"286 541 OFFCURVE",
"279 534 OFFCURVE",
"271 534 CURVE",
"261 534 OFFCURVE",
"254 541 OFFCURVE",
"254 548 CURVE",
"254 559 OFFCURVE",
"261 565 OFFCURVE",
"271 565 CURVE",
"279 565 OFFCURVE",
"286 559 OFFCURVE",
"286 548 CURVE"
);
},
{
closed = 1;
nodes = (
"408 412 OFFCURVE",
"415 407 OFFCURVE",
"423 407 CURVE",
"432 407 OFFCURVE",
"440 412 OFFCURVE",
"440 422 CURVE",
"440 432 OFFCURVE",
"432 440 OFFCURVE",
"423 440 CURVE",
"415 440 OFFCURVE",
"408 432 OFFCURVE",
"408 422 CURVE"
);
},
{
closed = 1;
nodes = (
"418 457 OFFCURVE",
"425 449 OFFCURVE",
"433 449 CURVE",
"443 449 OFFCURVE",
"450 457 OFFCURVE",
"450 465 CURVE",
"450 475 OFFCURVE",
"443 482 OFFCURVE",
"433 482 CURVE",
"425 482 OFFCURVE",
"418 475 OFFCURVE",
"418 465 CURVE"
);
},
{
closed = 1;
nodes = (
"433 500 OFFCURVE",
"442 492 OFFCURVE",
"451 492 CURVE",
"458 492 OFFCURVE",
"465 500 OFFCURVE",
"465 510 CURVE",
"465 519 OFFCURVE",
"458 527 OFFCURVE",
"451 527 CURVE",
"442 527 OFFCURVE",
"433 519 OFFCURVE",
"433 510 CURVE"
);
},
{
closed = 1;
nodes = (
"488 579 OFFCURVE",
"492 572 OFFCURVE",
"500 572 CURVE",
"512 572 OFFCURVE",
"519 579 OFFCURVE",
"519 587 CURVE",
"519 595 OFFCURVE",
"512 604 OFFCURVE",
"500 604 CURVE",
"492 604 OFFCURVE",
"488 595 OFFCURVE",
"488 587 CURVE"
);
},
{
closed = 1;
nodes = (
"517 615 OFFCURVE",
"526 608 OFFCURVE",
"534 608 CURVE",
"542 608 OFFCURVE",
"549 615 OFFCURVE",
"549 622 CURVE",
"549 632 OFFCURVE",
"542 640 OFFCURVE",
"534 640 CURVE",
"526 640 OFFCURVE",
"517 632 OFFCURVE",
"517 622 CURVE"
);
},
{
closed = 1;
nodes = (
"551 647 OFFCURVE",
"556 639 OFFCURVE",
"566 639 CURVE",
"576 639 OFFCURVE",
"583 647 OFFCURVE",
"583 654 CURVE",
"583 663 OFFCURVE",
"576 668 OFFCURVE",
"566 668 CURVE",
"556 668 OFFCURVE",
"551 663 OFFCURVE",
"551 654 CURVE"
);
},
{
closed = 1;
nodes = (
"457 541 OFFCURVE",
"464 534 OFFCURVE",
"471 534 CURVE",
"484 534 OFFCURVE",
"491 541 OFFCURVE",
"491 548 CURVE",
"491 558 OFFCURVE",
"484 565 OFFCURVE",
"471 565 CURVE",
"464 565 OFFCURVE",
"457 558 OFFCURVE",
"457 548 CURVE"
);
},
{
closed = 1;
nodes = (
"198 672 OFFCURVE",
"197 682 OFFCURVE",
"203 690 CURVE",
"207 697 OFFCURVE",
"217 700 OFFCURVE",
"224 693 CURVE",
"231 689 OFFCURVE",
"232 678 OFFCURVE",
"228 671 CURVE",
"222 665 OFFCURVE",
"212 664 OFFCURVE",
"205 668 CURVE"
);
},
{
closed = 1;
nodes = (
"240 657 OFFCURVE",
"238 667 OFFCURVE",
"243 672 CURVE",
"247 681 OFFCURVE",
"257 682 OFFCURVE",
"264 677 CURVE",
"274 671 OFFCURVE",
"275 663 OFFCURVE",
"270 654 CURVE",
"263 649 OFFCURVE",
"254 647 OFFCURVE",
"247 650 CURVE"
);
},
{
closed = 1;
nodes = (
"285 646 OFFCURVE",
"282 653 OFFCURVE",
"288 661 CURVE",
"291 668 OFFCURVE",
"302 668 OFFCURVE",
"312 665 CURVE",
"319 660 OFFCURVE",
"320 650 OFFCURVE",
"314 644 CURVE",
"309 635 OFFCURVE",
"298 633 OFFCURVE",
"289 639 CURVE"
);
},
{
closed = 1;
nodes = (
"377 642 OFFCURVE",
"376 650 OFFCURVE",
"380 658 CURVE",
"387 665 OFFCURVE",
"397 667 OFFCURVE",
"404 663 CURVE",
"409 657 OFFCURVE",
"411 649 OFFCURVE",
"407 640 CURVE",
"403 632 OFFCURVE",
"391 630 OFFCURVE",
"384 635 CURVE"
);
},
{
closed = 1;
nodes = (
"425 647 OFFCURVE",
"423 654 OFFCURVE",
"428 663 CURVE",
"433 668 OFFCURVE",
"443 671 OFFCURVE",
"451 667 CURVE",
"458 661 OFFCURVE",
"460 650 OFFCURVE",
"457 646 CURVE",
"450 636 OFFCURVE",
"439 635 OFFCURVE",
"432 640 CURVE"
);
},
{
closed = 1;
nodes = (
"513 671 OFFCURVE",
"512 681 OFFCURVE",
"516 688 CURVE",
"523 695 OFFCURVE",
"530 696 OFFCURVE",
"538 692 CURVE",
"545 686 OFFCURVE",
"547 677 OFFCURVE",
"542 668 CURVE",
"535 663 OFFCURVE",
"527 661 OFFCURVE",
"521 665 CURVE"
);
},
{
closed = 1;
nodes = (
"468 654 OFFCURVE",
"467 665 OFFCURVE",
"471 671 CURVE",
"478 678 OFFCURVE",
"489 681 OFFCURVE",
"495 675 CURVE",
"500 668 OFFCURVE",
"503 661 OFFCURVE",
"498 653 CURVE",
"493 647 OFFCURVE",
"485 646 OFFCURVE",
"475 650 CURVE"
);
},
{
closed = 1;
nodes = (
"330 640 OFFCURVE",
"328 650 OFFCURVE",
"333 657 CURVE",
"340 664 OFFCURVE",
"348 665 OFFCURVE",
"355 661 CURVE",
"362 657 OFFCURVE",
"363 647 OFFCURVE",
"359 639 CURVE",
"354 630 OFFCURVE",
"344 629 OFFCURVE",
"338 635 CURVE"
);
},
{
closed = 1;
nodes = (
"442 379 OFFCURVE",
"433 388 OFFCURVE",
"433 398 CURVE",
"433 407 OFFCURVE",
"442 412 OFFCURVE",
"451 412 CURVE",
"460 412 OFFCURVE",
"465 407 OFFCURVE",
"465 398 CURVE",
"465 388 OFFCURVE",
"460 379 OFFCURVE",
"451 379 CURVE"
);
},
{
closed = 1;
nodes = (
"486 393 OFFCURVE",
"478 400 OFFCURVE",
"478 408 CURVE",
"478 414 OFFCURVE",
"486 422 OFFCURVE",
"493 422 CURVE",
"503 422 OFFCURVE",
"510 414 OFFCURVE",
"510 408 CURVE",
"510 400 OFFCURVE",
"503 393 OFFCURVE",
"493 393 CURVE"
);
},
{
closed = 1;
nodes = (
"528 408 OFFCURVE",
"523 414 OFFCURVE",
"523 422 CURVE",
"523 432 OFFCURVE",
"528 440 OFFCURVE",
"538 440 CURVE",
"547 440 OFFCURVE",
"552 432 OFFCURVE",
"552 422 CURVE",
"552 414 OFFCURVE",
"547 408 OFFCURVE",
"538 408 CURVE"
);
},
{
closed = 1;
nodes = (
"607 458 OFFCURVE",
"598 465 OFFCURVE",
"598 475 CURVE",
"598 484 OFFCURVE",
"607 491 OFFCURVE",
"615 491 CURVE",
"623 491 OFFCURVE",
"630 484 OFFCURVE",
"630 475 CURVE",
"630 465 OFFCURVE",
"623 458 OFFCURVE",
"615 458 CURVE"
);
},
{
closed = 1;
nodes = (
"642 489 OFFCURVE",
"635 498 OFFCURVE",
"635 506 CURVE",
"635 516 OFFCURVE",
"642 523 OFFCURVE",
"653 523 CURVE",
"661 523 OFFCURVE",
"667 516 OFFCURVE",
"667 506 CURVE",
"667 498 OFFCURVE",
"661 489 OFFCURVE",
"653 489 CURVE"
);
},
{
closed = 1;
nodes = (
"671 524 OFFCURVE",
"665 531 OFFCURVE",
"665 539 CURVE",
"665 546 OFFCURVE",
"671 556 OFFCURVE",
"681 556 CURVE",
"692 556 OFFCURVE",
"698 546 OFFCURVE",
"698 539 CURVE",
"698 531 OFFCURVE",
"692 524 OFFCURVE",
"681 524 CURVE"
);
},
{
closed = 1;
nodes = (
"569 430 OFFCURVE",
"558 437 OFFCURVE",
"558 446 CURVE",
"558 456 OFFCURVE",
"569 463 OFFCURVE",
"577 463 CURVE",
"586 463 OFFCURVE",
"593 456 OFFCURVE",
"593 446 CURVE",
"593 437 OFFCURVE",
"586 430 OFFCURVE",
"577 430 CURVE"
);
},
{
closed = 1;
nodes = (
"442 310 OFFCURVE",
"433 300 OFFCURVE",
"433 291 CURVE",
"433 282 OFFCURVE",
"442 278 OFFCURVE",
"450 278 CURVE",
"458 278 OFFCURVE",
"465 282 OFFCURVE",
"465 291 CURVE",
"465 300 OFFCURVE",
"458 310 OFFCURVE",
"450 310 CURVE"
);
},
{
closed = 1;
nodes = (
"485 298 OFFCURVE",
"478 289 OFFCURVE",
"478 282 CURVE",
"478 277 OFFCURVE",
"485 268 OFFCURVE",
"492 268 CURVE",
"500 268 OFFCURVE",
"510 277 OFFCURVE",
"510 282 CURVE",
"510 289 OFFCURVE",
"500 298 OFFCURVE",
"492 298 CURVE"
);
},
{
closed = 1;
nodes = (
"527 281 OFFCURVE",
"523 278 OFFCURVE",
"523 268 CURVE",
"523 257 OFFCURVE",
"527 250 OFFCURVE",
"535 250 CURVE",
"545 250 OFFCURVE",
"552 257 OFFCURVE",
"552 268 CURVE",
"552 278 OFFCURVE",
"545 281 OFFCURVE",
"535 281 CURVE"
);
},
{
closed = 1;
nodes = (
"605 230 OFFCURVE",
"598 223 OFFCURVE",
"598 214 CURVE",
"598 205 OFFCURVE",
"605 200 OFFCURVE",
"614 200 CURVE",
"623 200 OFFCURVE",
"630 205 OFFCURVE",
"630 214 CURVE",
"630 223 OFFCURVE",
"623 230 OFFCURVE",
"614 230 CURVE"
);
},
{
closed = 1;
nodes = (
"642 200 OFFCURVE",
"635 193 OFFCURVE",
"635 183 CURVE",
"635 173 OFFCURVE",
"642 168 OFFCURVE",
"653 168 CURVE",
"660 168 OFFCURVE",
"665 173 OFFCURVE",
"665 183 CURVE",
"665 193 OFFCURVE",
"660 200 OFFCURVE",
"653 200 CURVE"
);
},
{
closed = 1;
nodes = (
"671 166 OFFCURVE",
"664 159 OFFCURVE",
"664 151 CURVE",
"664 142 OFFCURVE",
"671 134 OFFCURVE",
"681 134 CURVE",
"692 134 OFFCURVE",
"698 142 OFFCURVE",
"698 151 CURVE",
"698 159 OFFCURVE",
"692 166 OFFCURVE",
"681 166 CURVE"
);
},
{
closed = 1;
nodes = (
"569 258 OFFCURVE",
"558 251 OFFCURVE",
"558 243 CURVE",
"558 233 OFFCURVE",
"569 228 OFFCURVE",
"577 228 CURVE",
"586 228 OFFCURVE",
"593 233 OFFCURVE",
"593 243 CURVE",
"593 251 OFFCURVE",
"586 258 OFFCURVE",
"577 258 CURVE"
);
},
{
closed = 1;
nodes = (
"700 519 OFFCURVE",
"710 520 OFFCURVE",
"718 516 CURVE",
"725 510 OFFCURVE",
"727 500 OFFCURVE",
"723 492 CURVE",
"717 485 OFFCURVE",
"706 484 OFFCURVE",
"699 488 CURVE",
"693 493 OFFCURVE",
"692 503 OFFCURVE",
"695 512 CURVE"
);
},
{
closed = 1;
nodes = (
"684 478 OFFCURVE",
"693 479 OFFCURVE",
"700 474 CURVE",
"706 470 OFFCURVE",
"710 458 OFFCURVE",
"703 451 CURVE",
"699 446 OFFCURVE",
"691 444 OFFCURVE",
"681 447 CURVE",
"672 453 OFFCURVE",
"671 463 OFFCURVE",
"677 472 CURVE"
);
},
{
closed = 1;
nodes = (
"670 433 OFFCURVE",
"681 435 OFFCURVE",
"691 428 CURVE",
"695 423 OFFCURVE",
"696 412 OFFCURVE",
"693 408 CURVE",
"689 401 OFFCURVE",
"675 400 OFFCURVE",
"668 404 CURVE",
"663 409 OFFCURVE",
"661 416 OFFCURVE",
"665 425 CURVE"
);
},
{
closed = 1;
nodes = (
"667 340 OFFCURVE",
"677 341 OFFCURVE",
"688 337 CURVE",
"693 331 OFFCURVE",
"693 320 OFFCURVE",
"691 313 CURVE",
"685 307 OFFCURVE",
"672 306 OFFCURVE",
"665 310 CURVE",
"660 314 OFFCURVE",
"660 326 OFFCURVE",
"663 334 CURVE"
);
},
{
closed = 1;
nodes = (
"671 289 OFFCURVE",
"684 292 OFFCURVE",
"691 286 CURVE",
"696 282 OFFCURVE",
"698 274 OFFCURVE",
"693 267 CURVE",
"689 257 OFFCURVE",
"677 256 OFFCURVE",
"670 263 CURVE",
"663 268 OFFCURVE",
"663 278 OFFCURVE",
"667 284 CURVE"
);
},
{
closed = 1;
nodes = (
"698 204 OFFCURVE",
"707 205 OFFCURVE",
"717 201 CURVE",
"723 197 OFFCURVE",
"724 187 OFFCURVE",
"720 176 CURVE",
"716 170 OFFCURVE",
"703 169 OFFCURVE",
"696 175 CURVE",
"691 180 OFFCURVE",
"689 191 OFFCURVE",
"693 198 CURVE"
);
},
{
closed = 1;
nodes = (
"681 247 OFFCURVE",
"693 249 OFFCURVE",
"699 244 CURVE",
"705 239 OFFCURVE",
"707 229 OFFCURVE",
"702 222 CURVE",
"698 214 OFFCURVE",
"689 212 OFFCURVE",
"679 217 CURVE",
"672 223 OFFCURVE",
"670 232 OFFCURVE",
"675 240 CURVE"
);
},
{
closed = 1;
nodes = (
"665 386 OFFCURVE",
"675 388 OFFCURVE",
"685 383 CURVE",
"693 377 OFFCURVE",
"693 369 OFFCURVE",
"689 361 CURVE",
"684 354 OFFCURVE",
"671 352 OFFCURVE",
"664 358 CURVE",
"660 363 OFFCURVE",
"660 373 OFFCURVE",
"663 379 CURVE"
);
},
{
closed = 1;
nodes = (
"405 278 OFFCURVE",
"412 282 OFFCURVE",
"423 282 CURVE",
"430 282 OFFCURVE",
"437 278 OFFCURVE",
"437 268 CURVE",
"437 257 OFFCURVE",
"430 250 OFFCURVE",
"423 250 CURVE",
"412 250 OFFCURVE",
"405 257 OFFCURVE",
"405 268 CURVE"
);
},
{
closed = 1;
nodes = (
"416 232 OFFCURVE",
"423 240 OFFCURVE",
"430 240 CURVE",
"440 240 OFFCURVE",
"449 232 OFFCURVE",
"449 223 CURVE",
"449 214 OFFCURVE",
"440 207 OFFCURVE",
"430 207 CURVE",
"423 207 OFFCURVE",
"416 214 OFFCURVE",
"416 223 CURVE"
);
},
{
closed = 1;
nodes = (
"430 190 OFFCURVE",
"439 197 OFFCURVE",
"449 197 CURVE",
"457 197 OFFCURVE",
"464 190 OFFCURVE",
"464 180 CURVE",
"464 170 OFFCURVE",
"457 163 OFFCURVE",
"449 163 CURVE",
"439 163 OFFCURVE",
"430 170 OFFCURVE",
"430 180 CURVE"
);
},
{
closed = 1;
nodes = (
"485 110 OFFCURVE",
"491 117 OFFCURVE",
"499 117 CURVE",
"510 117 OFFCURVE",
"516 110 OFFCURVE",
"516 103 CURVE",
"516 92 OFFCURVE",
"510 85 OFFCURVE",
"499 85 CURVE",
"491 85 OFFCURVE",
"485 92 OFFCURVE",
"485 103 CURVE"
);
},
{
closed = 1;
nodes = (
"516 75 OFFCURVE",
"524 81 OFFCURVE",
"531 81 CURVE",
"540 81 OFFCURVE",
"547 75 OFFCURVE",
"547 67 CURVE",
"547 57 OFFCURVE",
"540 49 OFFCURVE",
"531 49 CURVE",
"524 49 OFFCURVE",
"516 57 OFFCURVE",
"516 67 CURVE"
);
},
{
closed = 1;
nodes = (
"548 43 OFFCURVE",
"555 50 OFFCURVE",
"565 50 CURVE",
"574 50 OFFCURVE",
"581 43 OFFCURVE",
"581 36 CURVE",
"581 26 OFFCURVE",
"574 21 OFFCURVE",
"565 21 CURVE",
"555 21 OFFCURVE",
"548 26 OFFCURVE",
"548 36 CURVE"
);
},
{
closed = 1;
nodes = (
"457 148 OFFCURVE",
"463 156 OFFCURVE",
"470 156 CURVE",
"479 156 OFFCURVE",
"488 148 OFFCURVE",
"488 142 CURVE",
"488 133 OFFCURVE",
"479 124 OFFCURVE",
"470 124 CURVE",
"463 124 OFFCURVE",
"457 133 OFFCURVE",
"457 142 CURVE"
);
},
{
closed = 1;
nodes = (
"333 277 OFFCURVE",
"326 281 OFFCURVE",
"319 281 CURVE",
"309 281 OFFCURVE",
"300 277 OFFCURVE",
"300 267 CURVE",
"300 256 OFFCURVE",
"309 250 OFFCURVE",
"319 250 CURVE",
"326 250 OFFCURVE",
"333 256 OFFCURVE",
"333 267 CURVE"
);
},
{
closed = 1;
nodes = (
"323 230 OFFCURVE",
"317 239 OFFCURVE",
"307 239 CURVE",
"298 239 OFFCURVE",
"291 230 OFFCURVE",
"291 222 CURVE",
"291 212 OFFCURVE",
"298 207 OFFCURVE",
"307 207 CURVE",
"317 207 OFFCURVE",
"323 212 OFFCURVE",
"323 222 CURVE"
);
},
{
closed = 1;
nodes = (
"307 189 OFFCURVE",
"299 196 OFFCURVE",
"289 196 CURVE",
"284 196 OFFCURVE",
"275 189 OFFCURVE",
"275 176 CURVE",
"275 169 OFFCURVE",
"284 163 OFFCURVE",
"289 163 CURVE",
"299 163 OFFCURVE",
"307 169 OFFCURVE",
"307 176 CURVE"
);
},
{
closed = 1;
nodes = (
"256 109 OFFCURVE",
"250 116 OFFCURVE",
"240 116 CURVE",
"231 116 OFFCURVE",
"222 109 OFFCURVE",
"222 102 CURVE",
"222 92 OFFCURVE",
"231 85 OFFCURVE",
"240 85 CURVE",
"250 85 OFFCURVE",
"256 92 OFFCURVE",
"256 102 CURVE"
);
},
{
closed = 1;
nodes = (
"224 75 OFFCURVE",
"217 81 OFFCURVE",
"208 81 CURVE",
"200 81 OFFCURVE",
"193 75 OFFCURVE",
"193 66 CURVE",
"193 56 OFFCURVE",
"200 47 OFFCURVE",
"208 47 CURVE",
"217 47 OFFCURVE",
"224 56 OFFCURVE",
"224 66 CURVE"
);
},
{
closed = 1;
nodes = (
"190 43 OFFCURVE",
"184 49 OFFCURVE",
"175 49 CURVE",
"166 49 OFFCURVE",
"158 43 OFFCURVE",
"158 35 CURVE",
"158 25 OFFCURVE",
"166 19 OFFCURVE",
"175 19 CURVE",
"184 19 OFFCURVE",
"190 25 OFFCURVE",
"190 35 CURVE"
);
},
{
closed = 1;
nodes = (
"285 148 OFFCURVE",
"277 156 OFFCURVE",
"270 156 CURVE",
"258 156 OFFCURVE",
"253 148 OFFCURVE",
"253 141 CURVE",
"253 131 OFFCURVE",
"258 123 OFFCURVE",
"270 123 CURVE",
"277 123 OFFCURVE",
"285 131 OFFCURVE",
"285 141 CURVE"
);
},
{
closed = 1;
nodes = (
"544 17 OFFCURVE",
"545 4 OFFCURVE",
"540 -2 CURVE",
"534 -9 OFFCURVE",
"526 -10 OFFCURVE",
"519 -6 CURVE",
"512 0 OFFCURVE",
"510 10 OFFCURVE",
"514 18 CURVE",
"519 24 OFFCURVE",
"528 25 OFFCURVE",
"535 21 CURVE"
);
},
{
closed = 1;
nodes = (
"500 32 OFFCURVE",
"503 22 OFFCURVE",
"498 17 CURVE",
"493 7 OFFCURVE",
"485 7 OFFCURVE",
"475 14 CURVE",
"468 18 OFFCURVE",
"467 26 OFFCURVE",
"471 32 CURVE",
"478 40 OFFCURVE",
"489 42 OFFCURVE",
"493 38 CURVE"
);
},
{
closed = 1;
nodes = (
"457 45 OFFCURVE",
"460 35 OFFCURVE",
"456 26 CURVE",
"450 21 OFFCURVE",
"439 19 OFFCURVE",
"430 24 CURVE",
"423 28 OFFCURVE",
"423 40 OFFCURVE",
"428 46 CURVE",
"432 52 OFFCURVE",
"443 54 OFFCURVE",
"451 49 CURVE"
);
},
{
closed = 1;
nodes = (
"363 47 OFFCURVE",
"366 38 OFFCURVE",
"361 29 CURVE",
"355 22 OFFCURVE",
"345 22 OFFCURVE",
"340 26 CURVE",
"331 31 OFFCURVE",
"330 42 OFFCURVE",
"334 49 CURVE",
"340 56 OFFCURVE",
"348 57 OFFCURVE",
"356 52 CURVE"
);
},
{
closed = 1;
nodes = (
"317 43 OFFCURVE",
"319 32 OFFCURVE",
"314 25 CURVE",
"307 21 OFFCURVE",
"298 18 OFFCURVE",
"289 22 CURVE",
"284 26 OFFCURVE",
"282 38 OFFCURVE",
"288 45 CURVE",
"291 52 OFFCURVE",
"302 54 OFFCURVE",
"309 47 CURVE"
);
},
{
closed = 1;
nodes = (
"229 19 OFFCURVE",
"231 7 OFFCURVE",
"226 0 CURVE",
"219 -7 OFFCURVE",
"211 -9 OFFCURVE",
"204 -3 CURVE",
"197 1 OFFCURVE",
"196 14 OFFCURVE",
"200 21 CURVE",
"205 25 OFFCURVE",
"214 26 OFFCURVE",
"221 22 CURVE"
);
},
{
closed = 1;
nodes = (
"274 32 OFFCURVE",
"275 24 OFFCURVE",
"270 18 CURVE",
"263 10 OFFCURVE",
"254 7 OFFCURVE",
"247 15 CURVE",
"240 19 OFFCURVE",
"238 28 OFFCURVE",
"243 35 CURVE",
"247 42 OFFCURVE",
"257 43 OFFCURVE",
"264 40 CURVE"
);
},
{
closed = 1;
nodes = (
"411 47 OFFCURVE",
"412 40 OFFCURVE",
"408 31 CURVE",
"404 24 OFFCURVE",
"391 22 OFFCURVE",
"387 26 CURVE",
"379 32 OFFCURVE",
"377 43 OFFCURVE",
"382 49 CURVE",
"389 57 OFFCURVE",
"398 59 OFFCURVE",
"405 54 CURVE"
);
},
{
closed = 1;
nodes = (
"302 310 OFFCURVE",
"312 300 OFFCURVE",
"312 291 CURVE",
"312 282 OFFCURVE",
"302 278 OFFCURVE",
"292 278 CURVE",
"285 278 OFFCURVE",
"277 282 OFFCURVE",
"277 291 CURVE",
"277 300 OFFCURVE",
"285 310 OFFCURVE",
"292 310 CURVE"
);
},
{
closed = 1;
nodes = (
"258 298 OFFCURVE",
"265 289 OFFCURVE",
"265 282 CURVE",
"265 277 OFFCURVE",
"258 268 OFFCURVE",
"251 268 CURVE",
"242 268 OFFCURVE",
"233 277 OFFCURVE",
"233 282 CURVE",
"233 289 OFFCURVE",
"242 298 OFFCURVE",
"251 298 CURVE"
);
},
{
closed = 1;
nodes = (
"215 281 OFFCURVE",
"222 278 OFFCURVE",
"222 268 CURVE",
"222 257 OFFCURVE",
"215 250 OFFCURVE",
"207 250 CURVE",
"198 250 OFFCURVE",
"190 257 OFFCURVE",
"190 268 CURVE",
"190 278 OFFCURVE",
"198 281 OFFCURVE",
"207 281 CURVE"
);
},
{
closed = 1;
nodes = (
"138 230 OFFCURVE",
"147 223 OFFCURVE",
"147 214 CURVE",
"147 205 OFFCURVE",
"138 200 OFFCURVE",
"128 200 CURVE",
"119 200 OFFCURVE",
"113 205 OFFCURVE",
"113 214 CURVE",
"113 223 OFFCURVE",
"119 230 OFFCURVE",
"128 230 CURVE"
);
},
{
closed = 1;
nodes = (
"102 200 OFFCURVE",
"109 193 OFFCURVE",
"109 183 CURVE",
"109 173 OFFCURVE",
"102 168 OFFCURVE",
"92 168 CURVE",
"84 168 OFFCURVE",
"78 173 OFFCURVE",
"78 183 CURVE",
"78 193 OFFCURVE",
"84 200 OFFCURVE",
"92 200 CURVE"
);
},
{
closed = 1;
nodes = (
"71 166 OFFCURVE",
"80 159 OFFCURVE",
"80 151 CURVE",
"80 142 OFFCURVE",
"71 134 OFFCURVE",
"61 134 CURVE",
"53 134 OFFCURVE",
"47 142 OFFCURVE",
"47 151 CURVE",
"47 159 OFFCURVE",
"53 166 OFFCURVE",
"61 166 CURVE"
);
},
{
closed = 1;
nodes = (
"175 258 OFFCURVE",
"183 251 OFFCURVE",
"183 243 CURVE",
"183 233 OFFCURVE",
"175 228 OFFCURVE",
"166 228 CURVE",
"158 228 OFFCURVE",
"152 233 OFFCURVE",
"152 243 CURVE",
"152 251 OFFCURVE",
"158 258 OFFCURVE",
"166 258 CURVE"
);
},
{
closed = 1;
nodes = (
"302 379 OFFCURVE",
"312 388 OFFCURVE",
"312 398 CURVE",
"312 407 OFFCURVE",
"302 412 OFFCURVE",
"292 412 CURVE",
"285 412 OFFCURVE",
"279 407 OFFCURVE",
"279 398 CURVE",
"279 388 OFFCURVE",
"285 379 OFFCURVE",
"292 379 CURVE"
);
},
{
closed = 1;
nodes = (
"258 393 OFFCURVE",
"265 400 OFFCURVE",
"265 408 CURVE",
"265 414 OFFCURVE",
"258 422 OFFCURVE",
"251 422 CURVE",
"242 422 OFFCURVE",
"235 414 OFFCURVE",
"235 408 CURVE",
"235 400 OFFCURVE",
"242 393 OFFCURVE",
"251 393 CURVE"
);
},
{
closed = 1;
nodes = (
"215 408 OFFCURVE",
"222 414 OFFCURVE",
"222 422 CURVE",
"222 432 OFFCURVE",
"215 440 OFFCURVE",
"207 440 CURVE",
"198 440 OFFCURVE",
"193 432 OFFCURVE",
"193 422 CURVE",
"193 414 OFFCURVE",
"198 408 OFFCURVE",
"207 408 CURVE"
);
},
{
closed = 1;
nodes = (
"138 458 OFFCURVE",
"147 465 OFFCURVE",
"147 475 CURVE",
"147 484 OFFCURVE",
"138 491 OFFCURVE",
"128 491 CURVE",
"119 491 OFFCURVE",
"114 484 OFFCURVE",
"114 475 CURVE",
"114 465 OFFCURVE",
"119 458 OFFCURVE",
"128 458 CURVE"
);
},
{
closed = 1;
nodes = (
"102 489 OFFCURVE",
"110 498 OFFCURVE",
"110 506 CURVE",
"110 516 OFFCURVE",
"102 523 OFFCURVE",
"92 523 CURVE",
"84 523 OFFCURVE",
"78 516 OFFCURVE",
"78 506 CURVE",
"78 498 OFFCURVE",
"84 489 OFFCURVE",
"92 489 CURVE"
);
},
{
closed = 1;
nodes = (
"73 524 OFFCURVE",
"80 531 OFFCURVE",
"80 539 CURVE",
"80 546 OFFCURVE",
"73 556 OFFCURVE",
"64 556 CURVE",
"53 556 OFFCURVE",
"47 546 OFFCURVE",
"47 539 CURVE",
"47 531 OFFCURVE",
"53 524 OFFCURVE",
"64 524 CURVE"
);
},
{
closed = 1;
nodes = (
"176 430 OFFCURVE",
"183 437 OFFCURVE",
"183 446 CURVE",
"183 456 OFFCURVE",
"176 463 OFFCURVE",
"168 463 CURVE",
"158 463 OFFCURVE",
"152 456 OFFCURVE",
"152 446 CURVE",
"152 437 OFFCURVE",
"158 430 OFFCURVE",
"168 430 CURVE"
);
},
{
closed = 1;
nodes = (
"43 170 OFFCURVE",
"33 169 OFFCURVE",
"25 175 CURVE",
"19 180 OFFCURVE",
"18 191 OFFCURVE",
"22 197 CURVE",
"26 204 OFFCURVE",
"38 205 OFFCURVE",
"45 201 CURVE",
"52 196 OFFCURVE",
"53 187 OFFCURVE",
"49 176 CURVE"
);
},
{
closed = 1;
nodes = (
"60 212 OFFCURVE",
"52 210 OFFCURVE",
"43 217 CURVE",
"36 221 OFFCURVE",
"35 230 OFFCURVE",
"40 239 CURVE",
"45 246 OFFCURVE",
"54 247 OFFCURVE",
"61 242 CURVE",
"70 237 OFFCURVE",
"71 226 OFFCURVE",
"67 218 CURVE"
);
},
{
closed = 1;
nodes = (
"73 256 OFFCURVE",
"64 254 OFFCURVE",
"54 260 CURVE",
"49 267 OFFCURVE",
"47 278 OFFCURVE",
"52 282 CURVE",
"56 288 OFFCURVE",
"68 289 OFFCURVE",
"74 285 CURVE",
"82 281 OFFCURVE",
"82 272 OFFCURVE",
"80 264 CURVE"
);
},
{
closed = 1;
nodes = (
"78 349 OFFCURVE",
"67 348 OFFCURVE",
"57 354 CURVE",
"52 359 OFFCURVE",
"50 369 OFFCURVE",
"54 376 CURVE",
"60 383 OFFCURVE",
"71 384 OFFCURVE",
"78 379 CURVE",
"84 375 OFFCURVE",
"85 365 OFFCURVE",
"82 358 CURVE"
);
},
{
closed = 1;
nodes = (
"73 400 OFFCURVE",
"61 398 OFFCURVE",
"53 402 CURVE",
"47 407 OFFCURVE",
"45 415 OFFCURVE",
"52 423 CURVE",
"54 432 OFFCURVE",
"67 433 OFFCURVE",
"74 426 CURVE",
"81 422 OFFCURVE",
"82 411 OFFCURVE",
"78 405 CURVE"
);
},
{
closed = 1;
nodes = (
"47 485 OFFCURVE",
"36 484 OFFCURVE",
"28 488 CURVE",
"21 493 OFFCURVE",
"19 503 OFFCURVE",
"25 512 CURVE",
"29 519 OFFCURVE",
"40 520 OFFCURVE",
"47 514 CURVE",
"53 510 OFFCURVE",
"54 499 OFFCURVE",
"52 492 CURVE"
);
},
{
closed = 1;
nodes = (
"61 443 OFFCURVE",
"52 442 OFFCURVE",
"45 446 CURVE",
"38 451 OFFCURVE",
"36 461 OFFCURVE",
"40 467 CURVE",
"47 475 OFFCURVE",
"54 477 OFFCURVE",
"64 474 CURVE",
"71 465 OFFCURVE",
"73 457 OFFCURVE",
"68 449 CURVE"
);
},
{
closed = 1;
nodes = (
"78 302 OFFCURVE",
"68 300 OFFCURVE",
"60 307 CURVE",
"52 312 OFFCURVE",
"52 320 OFFCURVE",
"54 328 CURVE",
"61 337 OFFCURVE",
"71 338 OFFCURVE",
"80 334 CURVE",
"85 327 OFFCURVE",
"85 317 OFFCURVE",
"82 310 CURVE"
);
},
{
closed = 1;
nodes = (
"348 358 OFFCURVE",
"356 366 OFFCURVE",
"356 375 CURVE",
"356 383 OFFCURVE",
"348 393 OFFCURVE",
"340 393 CURVE",
"331 393 OFFCURVE",
"324 383 OFFCURVE",
"324 375 CURVE",
"324 366 OFFCURVE",
"331 358 OFFCURVE",
"340 358 CURVE"
);
},
{
closed = 1;
nodes = (
"411 358 OFFCURVE",
"419 366 OFFCURVE",
"419 375 CURVE",
"419 383 OFFCURVE",
"411 393 OFFCURVE",
"404 393 CURVE",
"396 393 OFFCURVE",
"389 383 OFFCURVE",
"389 375 CURVE",
"389 366 OFFCURVE",
"396 358 OFFCURVE",
"404 358 CURVE"
);
},
{
closed = 1;
nodes = (
"348 295 OFFCURVE",
"356 302 OFFCURVE",
"356 312 CURVE",
"356 320 OFFCURVE",
"348 328 OFFCURVE",
"340 328 CURVE",
"331 328 OFFCURVE",
"324 320 OFFCURVE",
"324 312 CURVE",
"324 302 OFFCURVE",
"331 295 OFFCURVE",
"340 295 CURVE"
);
},
{
closed = 1;
nodes = (
"411 295 OFFCURVE",
"419 302 OFFCURVE",
"419 312 CURVE",
"419 320 OFFCURVE",
"411 328 OFFCURVE",
"404 328 CURVE",
"396 328 OFFCURVE",
"389 320 OFFCURVE",
"389 312 CURVE",
"389 302 OFFCURVE",
"396 295 OFFCURVE",
"404 295 CURVE"
);
}
);
width = 745;
}
);
unicode = 0051;
},
{
glyphname = R;
lastChange = "2021-02-18 15:41:11 +0000";
layers = (
{
layerId = "A1B629DE-12A3-463D-9110-6FB76C8F6166";
paths = (
{
closed = 1;
nodes = (
"15 294 OFFCURVE",
"70 326 OFFCURVE",
"102 310 CURVE SMOOTH",
"120 301 OFFCURVE",
"95 265 OFFCURVE",
"101 238 CURVE SMOOTH",
"106 209 OFFCURVE",
"147 193 OFFCURVE",
"153 244 CURVE SMOOTH",
"160 294 OFFCURVE",
"223 292 OFFCURVE",
"256 298 CURVE SMOOTH",
"281 304 OFFCURVE",
"288 322 OFFCURVE",
"291 327 CURVE SMOOTH",
"292 330 OFFCURVE",
"292 330 OFFCURVE",
"293 330 CURVE SMOOTH",
"314 330 OFFCURVE",
"339 321 OFFCURVE",
"358 327 CURVE SMOOTH",
"362 329 OFFCURVE",
"362 329 OFFCURVE",
"360 325 CURVE SMOOTH",
"354 306 OFFCURVE",
"363 281 OFFCURVE",
"363 260 CURVE SMOOTH",
"363 259 OFFCURVE",
"363 259 OFFCURVE",
"360 258 CURVE SMOOTH",
"357 256 OFFCURVE",
"337 251 OFFCURVE",
"331 223 CURVE SMOOTH",
"325 190 OFFCURVE",
"330 128 OFFCURVE",
"279 120 CURVE SMOOTH",
"227 113 OFFCURVE",
"243 70 OFFCURVE",
"271 68 CURVE SMOOTH",
"297 65 OFFCURVE",
"338 84 OFFCURVE",
"345 69 CURVE SMOOTH",
"359 39 OFFCURVE",
"327 -18 OFFCURVE",
"375 -18 CURVE SMOOTH",
"422 -18 OFFCURVE",
"391 37 OFFCURVE",
"407 69 CURVE SMOOTH",
"416 87 OFFCURVE",
"451 62 OFFCURVE",
"479 68 CURVE SMOOTH",
"508 73 OFFCURVE",
"524 114 OFFCURVE",
"473 120 CURVE SMOOTH",
"422 127 OFFCURVE",
"425 190 OFFCURVE",
"418 223 CURVE SMOOTH",
"413 248 OFFCURVE",
"395 255 OFFCURVE",
"389 258 CURVE SMOOTH",
"387 259 OFFCURVE",
"387 259 OFFCURVE",
"387 260 CURVE SMOOTH",
"387 281 OFFCURVE",
"396 306 OFFCURVE",
"389 325 CURVE SMOOTH",
"388 329 OFFCURVE",
"388 329 OFFCURVE",
"392 327 CURVE SMOOTH",
"411 321 OFFCURVE",
"436 330 OFFCURVE",
"457 330 CURVE SMOOTH",
"458 330 OFFCURVE",
"458 330 OFFCURVE",
"459 327 CURVE SMOOTH",
"461 324 OFFCURVE",
"466 304 OFFCURVE",
"494 298 CURVE SMOOTH",
"527 292 OFFCURVE",
"589 297 OFFCURVE",
"596 246 CURVE SMOOTH",
"604 194 OFFCURVE",
"647 210 OFFCURVE",
"649 238 CURVE SMOOTH",
"652 264 OFFCURVE",
"633 305 OFFCURVE",
"648 312 CURVE SMOOTH",
"678 326 OFFCURVE",
"735 294 OFFCURVE",
"735 342 CURVE SMOOTH",
"735 389 OFFCURVE",
"680 358 OFFCURVE",
"648 374 CURVE SMOOTH",
"629 383 OFFCURVE",
"654 418 OFFCURVE",
"649 446 CURVE SMOOTH",
"644 475 OFFCURVE",
"603 491 OFFCURVE",
"596 440 CURVE SMOOTH",
"590 389 OFFCURVE",
"527 392 OFFCURVE",
"494 385 CURVE SMOOTH",
"469 380 OFFCURVE",
"462 362 OFFCURVE",
"459 356 CURVE SMOOTH",
"458 354 OFFCURVE",
"458 354 OFFCURVE",
"457 354 CURVE SMOOTH",
"434 354 OFFCURVE",
"411 363 OFFCURVE",
"392 356 CURVE SMOOTH",
"388 355 OFFCURVE",
"388 355 OFFCURVE",
"389 359 CURVE SMOOTH",
"395 376 OFFCURVE",
"387 403 OFFCURVE",
"387 424 CURVE SMOOTH",
"387 425 OFFCURVE",
"387 425 OFFCURVE",
"389 426 CURVE SMOOTH",
"393 428 OFFCURVE",
"413 433 OFFCURVE",
"418 461 CURVE SMOOTH",
"425 494 OFFCURVE",
"420 556 OFFCURVE",
"471 563 CURVE SMOOTH",
"523 571 OFFCURVE",
"507 614 OFFCURVE",
"479 616 CURVE SMOOTH",
"453 619 OFFCURVE",
"412 600 OFFCURVE",
"405 615 CURVE SMOOTH",
"391 645 OFFCURVE",
"422 702 OFFCURVE",
"375 702 CURVE SMOOTH",
"327 702 OFFCURVE",
"359 647 OFFCURVE",
"343 615 CURVE SMOOTH",
"334 596 OFFCURVE",
"298 621 OFFCURVE",
"271 616 CURVE SMOOTH",
"242 611 OFFCURVE",
"226 570 OFFCURVE",
"277 563 CURVE SMOOTH",
"327 557 OFFCURVE",
"325 494 OFFCURVE",
"331 461 CURVE SMOOTH",
"337 436 OFFCURVE",
"355 429 OFFCURVE",
"360 426 CURVE SMOOTH",
"363 425 OFFCURVE",
"363 425 OFFCURVE",
"363 424 CURVE SMOOTH",
"363 403 OFFCURVE",
"355 376 OFFCURVE",
"360 359 CURVE SMOOTH",
"362 355 OFFCURVE",
"362 355 OFFCURVE",
"358 356 CURVE SMOOTH",
"341 362 OFFCURVE",
"314 354 OFFCURVE",
"293 354 CURVE SMOOTH",
"292 354 OFFCURVE",
"292 354 OFFCURVE",
"291 356 CURVE SMOOTH",
"289 360 OFFCURVE",
"284 380 OFFCURVE",
"256 385 CURVE SMOOTH",
"223 392 OFFCURVE",
"161 387 OFFCURVE",
"153 438 CURVE SMOOTH",
"146 490 OFFCURVE",
"103 474 OFFCURVE",
"101 446 CURVE SMOOTH",
"98 420 OFFCURVE",
"117 379 OFFCURVE",
"102 372 CURVE SMOOTH",
"72 358 OFFCURVE",
"15 389 OFFCURVE",
"15 342 CURVE SMOOTH"
);
}
);
width = 750;
}
);
unicode = 0052;
},
{
glyphname = S;
lastChange = "2021-02-22 15:41:16 +0000";
layers = (
{
layerId = "A1B629DE-12A3-463D-9110-6FB76C8F6166";
paths = (
{
closed = 1;
nodes = (
"10 348 LINE",
"374 711 LINE",
"738 348 LINE",
"374 -17 LINE"
);
},
{
closed = 1;
nodes = (
"351 48 LINE",
"347 64 OFFCURVE",
"357 86 OFFCURVE",
"371 97 CURVE",
"344 94 OFFCURVE",
"317 98 OFFCURVE",
"291 107 CURVE"
);
},
{
closed = 1;
nodes = (
"160 241 OFFCURVE",
"160 283 OFFCURVE",
"160 283 CURVE",
"154 280 OFFCURVE",
"145 279 OFFCURVE",
"137 279 CURVE SMOOTH",
"108 279 OFFCURVE",
"79 301 OFFCURVE",
"79 347 CURVE",
"79 399 OFFCURVE",
"128 422 OFFCURVE",
"162 422 CURVE SMOOTH",
"173 422 OFFCURVE",
"181 419 OFFCURVE",
"188 416 CURVE",
"176 426 OFFCURVE",
"163 443 OFFCURVE",
"160 459 CURVE",
"47 348 LINE",
"47 348 OFFCURVE",
"184 207 OFFCURVE",
"171 222 CURVE"
);
},
{
closed = 1;
nodes = (
"150 317 OFFCURVE",
"146 315 OFFCURVE",
"141 315 CURVE SMOOTH",
"133 315 OFFCURVE",
"124 327 OFFCURVE",
"124 339 CURVE SMOOTH",
"124 360 OFFCURVE",
"139 370 OFFCURVE",
"158 370 CURVE SMOOTH",
"176 370 OFFCURVE",
"193 358 OFFCURVE",
"193 323 CURVE",
"193 190 OFFCURVE",
"286 124 OFFCURVE",
"330 118 CURVE",
"249 174 OFFCURVE",
"218 245 OFFCURVE",
"223 326 CURVE",
"274 323 OFFCURVE",
"337 279 OFFCURVE",
"350 229 CURVE",
"351 327 OFFCURVE",
"226 396 OFFCURVE",
"168 396 CURVE SMOOTH",
"128 396 OFFCURVE",
"107 373 OFFCURVE",
"107 347 CURVE SMOOTH",
"107 320 OFFCURVE",
"119 302 OFFCURVE",
"143 302 CURVE SMOOTH",
"158 302 OFFCURVE",
"168 314 OFFCURVE",
"168 328 CURVE SMOOTH",
"168 336 OFFCURVE",
"163 347 OFFCURVE",
"155 347 CURVE SMOOTH",
"145 347 OFFCURVE",
"138 339 OFFCURVE",
"138 335 CURVE SMOOTH",
"138 328 OFFCURVE",
"141 320 OFFCURVE",
"153 320 CURVE"
);
},
{
closed = 1;
nodes = (
"431 98 OFFCURVE",
"404 94 OFFCURVE",
"376 97 CURVE",
"392 86 OFFCURVE",
"400 64 OFFCURVE",
"397 48 CURVE",
"457 107 LINE"
);
},
{
closed = 1;
nodes = (
"274 246 OFFCURVE",
"266 194 OFFCURVE",
"315 169 CURVE",
"315 169 OFFCURVE",
"302 195 OFFCURVE",
"291 205 CURVE",
"291 205 OFFCURVE",
"333 195 OFFCURVE",
"340 174 CURVE",
"340 174 OFFCURVE",
"324 238 OFFCURVE",
"274 246 CURVE"
);
},
{
closed = 1;
nodes = (
"427 238 OFFCURVE",
"412 174 OFFCURVE",
"412 174 CURVE",
"418 195 OFFCURVE",
"460 205 OFFCURVE",
"460 205 CURVE",
"449 195 OFFCURVE",
"438 169 OFFCURVE",
"438 169 CURVE",
"485 194 OFFCURVE",
"477 246 OFFCURVE",
"477 246 CURVE"
);
},
{
closed = 0;
nodes = (
"374 391 LINE"
);
},
{
closed = 1;
nodes = (
"374 252 OFFCURVE",
"385 289 OFFCURVE",
"406 315 CURVE",
"374 339 LINE",
"342 314 LINE",
"363 289 OFFCURVE",
"374 252 OFFCURVE",
"374 231 CURVE"
);
},
{
closed = 1;
nodes = (
"10 348 LINE",
"374 711 LINE",
"738 348 LINE",
"374 -17 LINE"
);
},
{
closed = 1;
nodes = (
"699 348 LINE",
"374 672 LINE",
"45 348 LINE",
"374 20 LINE"
);
},
{
closed = 1;
nodes = (
"328 335 OFFCURVE",
"332 330 OFFCURVE",
"334 326 CURVE",
"374 358 LINE",
"414 326 LINE",
"418 332 OFFCURVE",
"422 336 OFFCURVE",
"427 339 CURVE",
"374 382 LINE",
"323 337 LINE"
);
},
{
closed = 1;
nodes = (
"374 403 LINE",
"438 349 LINE",
"447 358 OFFCURVE",
"455 365 OFFCURVE",
"464 369 CURVE",
"374 438 LINE",
"283 368 LINE",
"295 361 OFFCURVE",
"299 358 OFFCURVE",
"310 351 CURVE"
);
},
{
closed = 1;
nodes = (
"609 320 OFFCURVE",
"613 328 OFFCURVE",
"613 335 CURVE SMOOTH",
"613 339 OFFCURVE",
"606 347 OFFCURVE",
"596 347 CURVE SMOOTH",
"588 347 OFFCURVE",
"582 336 OFFCURVE",
"582 328 CURVE SMOOTH",
"582 314 OFFCURVE",
"593 302 OFFCURVE",
"608 302 CURVE SMOOTH",
"633 302 OFFCURVE",
"644 320 OFFCURVE",
"644 347 CURVE SMOOTH",
"644 373 OFFCURVE",
"625 396 OFFCURVE",
"582 396 CURVE SMOOTH",
"525 396 OFFCURVE",
"400 327 OFFCURVE",
"401 229 CURVE",
"415 279 OFFCURVE",
"477 323 OFFCURVE",
"528 326 CURVE",
"533 245 OFFCURVE",
"503 174 OFFCURVE",
"421 118 CURVE",
"464 124 OFFCURVE",
"559 190 OFFCURVE",
"559 323 CURVE",
"559 358 OFFCURVE",
"575 370 OFFCURVE",
"593 370 CURVE SMOOTH",
"610 370 OFFCURVE",
"627 360 OFFCURVE",
"627 339 CURVE SMOOTH",
"627 327 OFFCURVE",
"618 315 OFFCURVE",
"609 315 CURVE SMOOTH",
"605 315 OFFCURVE",
"602 317 OFFCURVE",
"599 320 CURVE"
);
},
{
closed = 1;
nodes = (
"265 432 OFFCURVE",
"310 483 OFFCURVE",
"374 484 CURVE SMOOTH",
"439 485 OFFCURVE",
"483 432 OFFCURVE",
"482 382 CURVE",
"510 415 OFFCURVE",
"531 450 OFFCURVE",
"531 498 CURVE",
"500 494 OFFCURVE",
"476 484 OFFCURVE",
"452 467 CURVE",
"463 500 OFFCURVE",
"465 532 OFFCURVE",
"463 564 CURVE",
"439 558 OFFCURVE",
"418 547 OFFCURVE",
"398 534 CURVE",
"397 568 OFFCURVE",
"388 606 OFFCURVE",
"374 643 CURVE",
"361 608 OFFCURVE",
"351 569 OFFCURVE",
"347 534 CURVE",
"327 545 OFFCURVE",
"306 556 OFFCURVE",
"283 564 CURVE",
"282 531 OFFCURVE",
"286 500 OFFCURVE",
"295 467 CURVE",
"272 487 OFFCURVE",
"244 496 OFFCURVE",
"217 498 CURVE",
"218 453 OFFCURVE",
"239 416 OFFCURVE",
"265 382 CURVE"
);
},
{
closed = 1;
nodes = (
"562 207 OFFCURVE",
"697 348 OFFCURVE",
"697 348 CURVE",
"588 459 LINE",
"587 441 OFFCURVE",
"574 426 OFFCURVE",
"561 416 CURVE",
"567 421 OFFCURVE",
"575 422 OFFCURVE",
"587 422 CURVE SMOOTH",
"621 422 OFFCURVE",
"665 399 OFFCURVE",
"665 347 CURVE",
"668 301 OFFCURVE",
"638 279 OFFCURVE",
"608 279 CURVE SMOOTH",
"600 279 OFFCURVE",
"592 280 OFFCURVE",
"585 283 CURVE",
"585 283 OFFCURVE",
"588 241 OFFCURVE",
"574 222 CURVE"
);
}
);
width = 748;
}
);
unicode = 0053;
},
{
glyphname = T;
lastChange = "2021-02-18 15:42:11 +0000";
layers = (
{
layerId = "A1B629DE-12A3-463D-9110-6FB76C8F6166";
paths = (
{
closed = 1;
nodes = (
"597 0 OFFCURVE",
"667 28 OFFCURVE",
"688 144 CURVE",
"716 231 OFFCURVE",
"760 213 OFFCURVE",
"760 213 CURVE",
"761 184 OFFCURVE",
"817 176 OFFCURVE",
"817 228 CURVE SMOOTH",
"817 279 OFFCURVE",
"741 312 OFFCURVE",
"690 265 CURVE",
"679 337 OFFCURVE",
"640 421 OFFCURVE",
"587 478 CURVE",
"607 498 OFFCURVE",
"651 531 OFFCURVE",
"694 531 CURVE SMOOTH",
"798 531 OFFCURVE",
"795 478 OFFCURVE",
"795 478 CURVE",
"762 445 OFFCURVE",
"804 393 OFFCURVE",
"858 443 CURVE SMOOTH",
"903 484 OFFCURVE",
"873 575 OFFCURVE",
"755 575 CURVE",
"818 636 OFFCURVE",
"953 679 OFFCURVE",
"953 575 CURVE",
"953 575 OFFCURVE",
"903 569 OFFCURVE",
"903 514 CURVE SMOOTH",
"903 461 OFFCURVE",
"942 445 OFFCURVE",
"980 445 CURVE SMOOTH",
"1016 445 OFFCURVE",
"1078 494 OFFCURVE",
"1050 575 CURVE SMOOTH",
"1030 630 OFFCURVE",
"982 697 OFFCURVE",
"868 699 CURVE SMOOTH",
"784 700 OFFCURVE",
"646 628 OFFCURVE",
"539 531 CURVE",
"434 628 OFFCURVE",
"296 697 OFFCURVE",
"210 699 CURVE SMOOTH",
"99 700 OFFCURVE",
"45 636 OFFCURVE",
"30 575 CURVE SMOOTH",
"11 504 OFFCURVE",
"38 445 OFFCURVE",
"101 445 CURVE SMOOTH",
"138 445 OFFCURVE",
"176 461 OFFCURVE",
"176 514 CURVE SMOOTH",
"176 569 OFFCURVE",
"126 575 OFFCURVE",
"126 575 CURVE",
"126 679 OFFCURVE",
"291 636 OFFCURVE",
"323 575 CURVE",
"200 575 OFFCURVE",
"176 484 OFFCURVE",
"215 443 CURVE SMOOTH",
"259 396 OFFCURVE",
"311 445 OFFCURVE",
"280 478 CURVE",
"280 478 OFFCURVE",
"280 531 OFFCURVE",
"375 531 CURVE SMOOTH",
"424 531 OFFCURVE",
"469 498 OFFCURVE",
"488 478 CURVE",
"438 421 OFFCURVE",
"400 337 OFFCURVE",
"388 263 CURVE",
"338 312 OFFCURVE",
"263 280 OFFCURVE",
"261 228 CURVE SMOOTH",
"260 176 OFFCURVE",
"318 185 OFFCURVE",
"318 213 CURVE",
"318 213 OFFCURVE",
"365 233 OFFCURVE",
"392 144 CURVE",
"415 28 OFFCURVE",
"489 0 OFFCURVE",
"542 0 CURVE SMOOTH"
);
},
{
closed = 1;
nodes = (
"515 91 OFFCURVE",
"454 105 OFFCURVE",
"456 219 CURVE SMOOTH",
"456 276 OFFCURVE",
"495 373 OFFCURVE",
"539 428 CURVE",
"585 373 OFFCURVE",
"622 276 OFFCURVE",
"622 219 CURVE SMOOTH",
"622 100 OFFCURVE",
"570 91 OFFCURVE",
"539 91 CURVE SMOOTH"
);
}
);
width = 1081;
}
);
unicode = 0054;
},
{
glyphname = U;
lastChange = "2021-02-22 15:43:06 +0000";
layers = (
{
layerId = "A1B629DE-12A3-463D-9110-6FB76C8F6166";
paths = (
{
closed = 1;
nodes = (
"392 691 OFFCURVE",
"374 631 OFFCURVE",
"374 609 CURVE SMOOTH",
"374 523 OFFCURVE",
"434 490 OFFCURVE",
"483 490 CURVE SMOOTH",
"553 490 OFFCURVE",
"560 557 OFFCURVE",
"618 548 CURVE SMOOTH",
"675 539 OFFCURVE",
"675 450 OFFCURVE",
"640 432 CURVE",
"640 432 OFFCURVE",
"646 469 OFFCURVE",
"598 469 CURVE SMOOTH",
"546 469 OFFCURVE",
"551 393 OFFCURVE",
"607 393 CURVE SMOOTH",
"745 393 OFFCURVE",
"769 592 OFFCURVE",
"643 628 CURVE SMOOTH",
"565 652 OFFCURVE",
"523 572 OFFCURVE",
"467 569 CURVE SMOOTH",
"401 567 OFFCURVE",
"412 658 OFFCURVE",
"451 658 CURVE",
"443 651 OFFCURVE",
"433 600 OFFCURVE",
"483 600 CURVE SMOOTH",
"531 600 OFFCURVE",
"548 691 OFFCURVE",
"469 691 CURVE SMOOTH"
);
},
{
closed = 1;
nodes = (
"551 296 OFFCURVE",
"551 215 OFFCURVE",
"601 215 CURVE SMOOTH",
"649 215 OFFCURVE",
"640 256 OFFCURVE",
"640 256 CURVE",
"675 239 OFFCURVE",
"678 144 OFFCURVE",
"621 135 CURVE SMOOTH",
"563 128 OFFCURVE",
"556 193 OFFCURVE",
"486 193 CURVE SMOOTH",
"437 193 OFFCURVE",
"377 177 OFFCURVE",
"377 92 CURVE SMOOTH",
"377 47 OFFCURVE",
"399 -12 OFFCURVE",
"457 -12 CURVE SMOOTH",
"535 -12 OFFCURVE",
"530 78 OFFCURVE",
"486 78 CURVE SMOOTH",
"441 78 OFFCURVE",
"444 40 OFFCURVE",
"451 30 CURVE",
"422 36 OFFCURVE",
"404 117 OFFCURVE",
"471 114 CURVE SMOOTH",
"527 111 OFFCURVE",
"569 33 OFFCURVE",
"646 55 CURVE SMOOTH",
"772 90 OFFCURVE",
"745 296 OFFCURVE",
"607 296 CURVE SMOOTH"
);
},
{
closed = 1;
nodes = (
"200 691 OFFCURVE",
"219 600 OFFCURVE",
"265 600 CURVE SMOOTH",
"314 600 OFFCURVE",
"308 649 OFFCURVE",
"300 659 CURVE",
"343 659 OFFCURVE",
"348 567 OFFCURVE",
"280 569 CURVE SMOOTH",
"224 572 OFFCURVE",
"182 651 OFFCURVE",
"105 628 CURVE SMOOTH",
"-21 593 OFFCURVE",
"8 393 OFFCURVE",
"147 393 CURVE SMOOTH",
"203 393 OFFCURVE",
"200 469 OFFCURVE",
"150 469 CURVE SMOOTH",
"102 469 OFFCURVE",
"115 432 OFFCURVE",
"115 432 CURVE",
"77 450 OFFCURVE",
"73 540 OFFCURVE",
"130 548 CURVE SMOOTH",
"188 555 OFFCURVE",
"195 490 OFFCURVE",
"265 490 CURVE SMOOTH",
"314 490 OFFCURVE",
"374 523 OFFCURVE",
"374 609 CURVE SMOOTH",
"374 631 OFFCURVE",
"356 691 OFFCURVE",
"279 691 CURVE SMOOTH"
);
},
{
closed = 1;
nodes = (
"8 296 OFFCURVE",
"-18 92 OFFCURVE",
"108 55 CURVE SMOOTH",
"186 31 OFFCURVE",
"228 111 OFFCURVE",
"284 114 CURVE SMOOTH",
"350 117 OFFCURVE",
"333 36 OFFCURVE",
"301 30 CURVE",
"312 40 OFFCURVE",
"314 78 OFFCURVE",
"273 78 CURVE SMOOTH",
"228 78 OFFCURVE",
"220 -12 OFFCURVE",
"300 -12 CURVE SMOOTH",
"352 -12 OFFCURVE",
"377 47 OFFCURVE",
"377 92 CURVE SMOOTH",
"377 177 OFFCURVE",
"317 193 OFFCURVE",
"268 193 CURVE SMOOTH",
"198 193 OFFCURVE",
"191 127 OFFCURVE",
"133 135 CURVE SMOOTH",
"76 145 OFFCURVE",
"78 239 OFFCURVE",
"115 256 CURVE",
"115 256 OFFCURVE",
"105 215 OFFCURVE",
"153 215 CURVE SMOOTH",
"205 215 OFFCURVE",
"203 296 OFFCURVE",
"147 296 CURVE SMOOTH"
);
},
{
closed = 1;
nodes = (
"205 303 OFFCURVE",
"221 321 OFFCURVE",
"221 341 CURVE SMOOTH",
"221 361 OFFCURVE",
"205 379 OFFCURVE",
"184 379 CURVE SMOOTH",
"164 379 OFFCURVE",
"147 361 OFFCURVE",
"147 341 CURVE SMOOTH",
"147 321 OFFCURVE",
"164 303 OFFCURVE",
"184 303 CURVE SMOOTH"
);
},
{
closed = 1;
nodes = (
"583 303 OFFCURVE",
"600 321 OFFCURVE",
"600 341 CURVE SMOOTH",
"600 361 OFFCURVE",
"583 379 OFFCURVE",
"562 379 CURVE SMOOTH",
"542 379 OFFCURVE",
"525 361 OFFCURVE",
"525 341 CURVE SMOOTH",
"525 321 OFFCURVE",
"542 303 OFFCURVE",
"562 303 CURVE SMOOTH"
);
}
);
width = 752;
}
);
unicode = 0055;
},
{
glyphname = V;
lastChange = "2021-02-22 15:43:22 +0000";
layers = (
{
layerId = "A1B629DE-12A3-463D-9110-6FB76C8F6166";
paths = (
{
closed = 1;
nodes = (
"-32 216 OFFCURVE",
"47 42 OFFCURVE",
"175 42 CURVE SMOOTH",
"269 42 OFFCURVE",
"269 180 OFFCURVE",
"192 180 CURVE SMOOTH",
"183 180 OFFCURVE",
"158 174 OFFCURVE",
"158 148 CURVE SMOOTH",
"158 109 OFFCURVE",
"214 109 OFFCURVE",
"214 138 CURVE",
"228 138 OFFCURVE",
"227 78 OFFCURVE",
"180 78 CURVE SMOOTH",
"75 78 OFFCURVE",
"47 250 OFFCURVE",
"125 306 CURVE",
"125 306 OFFCURVE",
"122 229 OFFCURVE",
"185 229 CURVE SMOOTH",
"249 229 OFFCURVE",
"249 321 OFFCURVE",
"210 321 CURVE SMOOTH",
"196 321 OFFCURVE",
"196 303 OFFCURVE",
"210 303 CURVE SMOOTH",
"226 303 OFFCURVE",
"223 258 OFFCURVE",
"188 258 CURVE SMOOTH",
"155 258 OFFCURVE",
"146 298 OFFCURVE",
"166 329 CURVE SMOOTH",
"227 432 OFFCURVE",
"334 406 OFFCURVE",
"343 541 CURVE",
"343 541 OFFCURVE",
"368 340 OFFCURVE",
"308 340 CURVE SMOOTH",
"280 340 OFFCURVE",
"293 371 OFFCURVE",
"293 371 CURVE",
"261 371 OFFCURVE",
"246 308 OFFCURVE",
"308 308 CURVE SMOOTH",
"322 308 OFFCURVE",
"374 311 OFFCURVE",
"374 436 CURVE",
"374 311 OFFCURVE",
"426 307 OFFCURVE",
"440 308 CURVE SMOOTH",
"502 312 OFFCURVE",
"486 371 OFFCURVE",
"455 371 CURVE",
"455 371 OFFCURVE",
"468 340 OFFCURVE",
"440 340 CURVE SMOOTH",
"381 340 OFFCURVE",
"407 541 OFFCURVE",
"407 541 CURVE",
"414 406 OFFCURVE",
"521 432 OFFCURVE",
"582 329 CURVE SMOOTH",
"600 298 OFFCURVE",
"593 258 OFFCURVE",
"560 258 CURVE SMOOTH",
"525 258 OFFCURVE",
"522 303 OFFCURVE",
"538 303 CURVE SMOOTH",
"552 303 OFFCURVE",
"552 321 OFFCURVE",
"538 321 CURVE SMOOTH",
"499 321 OFFCURVE",
"499 229 OFFCURVE",
"563 229 CURVE SMOOTH",
"625 229 OFFCURVE",
"624 306 OFFCURVE",
"624 306 CURVE",
"702 250 OFFCURVE",
"673 78 OFFCURVE",
"569 78 CURVE SMOOTH",
"521 78 OFFCURVE",
"520 138 OFFCURVE",
"534 138 CURVE",
"534 109 OFFCURVE",
"590 109 OFFCURVE",
"590 148 CURVE SMOOTH",
"590 174 OFFCURVE",
"565 180 OFFCURVE",
"556 180 CURVE SMOOTH",
"479 180 OFFCURVE",
"479 42 OFFCURVE",
"572 42 CURVE SMOOTH",
"702 42 OFFCURVE",
"780 216 OFFCURVE",
"688 329 CURVE SMOOTH",
"593 448 OFFCURVE",
"453 442 OFFCURVE",
"461 518 CURVE",
"481 480 OFFCURVE",
"531 492 OFFCURVE",
"538 501 CURVE",
"529 513 OFFCURVE",
"535 518 OFFCURVE",
"546 505 CURVE",
"564 514 OFFCURVE",
"564 539 OFFCURVE",
"564 539 CURVE",
"542 539 OFFCURVE",
"543 552 OFFCURVE",
"564 550 CURVE",
"563 584 OFFCURVE",
"535 582 OFFCURVE",
"535 582 CURVE",
"535 571 OFFCURVE",
"526 571 OFFCURVE",
"526 582 CURVE",
"496 577 OFFCURVE",
"499 552 OFFCURVE",
"499 552 CURVE",
"525 558 OFFCURVE",
"530 522 OFFCURVE",
"495 522 CURVE SMOOTH",
"455 522 OFFCURVE",
"440 590 OFFCURVE",
"443 590 CURVE SMOOTH",
"465 590 OFFCURVE",
"468 609 OFFCURVE",
"468 609 CURVE",
"492 609 OFFCURVE",
"511 618 OFFCURVE",
"511 644 CURVE",
"511 644 OFFCURVE",
"486 616 OFFCURVE",
"449 657 CURVE SMOOTH",
"421 688 OFFCURVE",
"394 691 OFFCURVE",
"374 691 CURVE SMOOTH",
"354 691 OFFCURVE",
"326 688 OFFCURVE",
"300 657 CURVE SMOOTH",
"261 614 OFFCURVE",
"237 644 OFFCURVE",
"237 644 CURVE",
"237 618 OFFCURVE",
"256 609 OFFCURVE",
"280 609 CURVE",
"280 609 OFFCURVE",
"283 590 OFFCURVE",
"305 590 CURVE SMOOTH",
"308 590 OFFCURVE",
"293 522 OFFCURVE",
"253 522 CURVE SMOOTH",
"218 522 OFFCURVE",
"223 558 OFFCURVE",
"249 552 CURVE",
"249 552 OFFCURVE",
"252 577 OFFCURVE",
"223 582 CURVE",
"223 571 OFFCURVE",
"213 571 OFFCURVE",
"213 582 CURVE",
"213 582 OFFCURVE",
"185 584 OFFCURVE",
"184 550 CURVE",
"204 552 OFFCURVE",
"205 539 OFFCURVE",
"184 539 CURVE",
"184 539 OFFCURVE",
"184 514 OFFCURVE",
"201 505 CURVE",
"213 518 OFFCURVE",
"219 513 OFFCURVE",
"210 501 CURVE",
"217 492 OFFCURVE",
"267 480 OFFCURVE",
"287 518 CURVE",
"295 442 OFFCURVE",
"155 448 OFFCURVE",
"59 329 CURVE SMOOTH"
);
},
{
closed = 1;
nodes = (
"206 -26 OFFCURVE",
"261 -22 OFFCURVE",
"261 4 CURVE SMOOTH",
"261 10 OFFCURVE",
"233 -10 OFFCURVE",
"233 5 CURVE SMOOTH",
"233 22 OFFCURVE",
"250 23 OFFCURVE",
"269 13 CURVE SMOOTH",
"318 -9 OFFCURVE",
"312 21 OFFCURVE",
"374 21 CURVE SMOOTH",
"436 21 OFFCURVE",
"429 -9 OFFCURVE",
"479 13 CURVE SMOOTH",
"498 23 OFFCURVE",
"515 22 OFFCURVE",
"515 5 CURVE SMOOTH",
"515 -10 OFFCURVE",
"486 10 OFFCURVE",
"486 4 CURVE SMOOTH",
"486 -22 OFFCURVE",
"541 -26 OFFCURVE",
"541 23 CURVE SMOOTH",
"541 59 OFFCURVE",
"489 52 OFFCURVE",
"489 52 CURVE",
"489 52 OFFCURVE",
"513 69 OFFCURVE",
"489 82 CURVE SMOOTH",
"449 103 OFFCURVE",
"472 62 OFFCURVE",
"448 47 CURVE SMOOTH",
"433 36 OFFCURVE",
"430 31 OFFCURVE",
"426 31 CURVE SMOOTH",
"425 31 OFFCURVE",
"427 34 OFFCURVE",
"444 52 CURVE SMOOTH",
"457 64 OFFCURVE",
"448 81 OFFCURVE",
"461 95 CURVE SMOOTH",
"483 115 OFFCURVE",
"417 105 OFFCURVE",
"407 62 CURVE SMOOTH",
"404 59 OFFCURVE",
"397 61 OFFCURVE",
"400 65 CURVE SMOOTH",
"418 82 OFFCURVE",
"422 122 OFFCURVE",
"374 122 CURVE SMOOTH",
"326 122 OFFCURVE",
"331 82 OFFCURVE",
"347 65 CURVE SMOOTH",
"352 61 OFFCURVE",
"343 59 OFFCURVE",
"343 62 CURVE SMOOTH",
"332 105 OFFCURVE",
"266 115 OFFCURVE",
"286 95 CURVE SMOOTH",
"300 81 OFFCURVE",
"289 64 OFFCURVE",
"304 52 CURVE SMOOTH",
"322 34 OFFCURVE",
"323 31 OFFCURVE",
"322 31 CURVE SMOOTH",
"317 31 OFFCURVE",
"314 36 OFFCURVE",
"300 47 CURVE SMOOTH",
"278 62 OFFCURVE",
"300 103 OFFCURVE",
"258 82 CURVE SMOOTH",
"233 69 OFFCURVE",
"258 52 OFFCURVE",
"258 52 CURVE",
"258 52 OFFCURVE",
"206 59 OFFCURVE",
"206 23 CURVE SMOOTH"
);
}
);
width = 748;
}
);
unicode = 0056;
},
{
glyphname = W;
lastChange = "2021-02-18 15:43:29 +0000";
layers = (
{
layerId = "A1B629DE-12A3-463D-9110-6FB76C8F6166";
paths = (
{
closed = 1;
nodes = (
"350 -18 OFFCURVE",
"293 61 OFFCURVE",
"334 132 CURVE SMOOTH",
"357 171 OFFCURVE",
"359 211 OFFCURVE",
"349 247 CURVE",
"359 253 LINE",
"370 219 OFFCURVE",
"371 176 OFFCURVE",
"347 138 CURVE SMOOTH",
"291 39 OFFCURVE",
"375 -17 OFFCURVE",
"375 -17 CURVE",
"375 -17 OFFCURVE",
"373 172 OFFCURVE",
"373 261 CURVE",
"374 263 OFFCURVE",
"377 264 OFFCURVE",
"378 264 CURVE",
"383 261 LINE",
"383 -17 LINE",
"383 -17 OFFCURVE",
"466 39 OFFCURVE",
"410 138 CURVE SMOOTH",
"386 176 OFFCURVE",
"387 219 OFFCURVE",
"398 253 CURVE",
"409 245 LINE",
"399 210 OFFCURVE",
"401 170 OFFCURVE",
"423 132 CURVE SMOOTH",
"466 61 OFFCURVE",
"410 -18 OFFCURVE",
"410 -18 CURVE",
"410 -18 OFFCURVE",
"503 51 OFFCURVE",
"447 150 CURVE SMOOTH",
"430 180 OFFCURVE",
"423 208 OFFCURVE",
"423 232 CURVE",
"439 215 OFFCURVE",
"454 190 OFFCURVE",
"463 155 CURVE SMOOTH",
"495 46 OFFCURVE",
"612 65 OFFCURVE",
"612 65 CURVE",
"612 65 OFFCURVE",
"514 80 OFFCURVE",
"494 159 CURVE SMOOTH",
"480 203 OFFCURVE",
"455 235 OFFCURVE",
"425 253 CURVE",
"426 263 LINE",
"456 245 OFFCURVE",
"487 220 OFFCURVE",
"498 176 CURVE SMOOTH",
"528 63 OFFCURVE",
"628 84 OFFCURVE",
"628 84 CURVE",
"628 84 OFFCURVE",
"496 216 OFFCURVE",
"430 281 CURVE",
"430 284 OFFCURVE",
"430 285 OFFCURVE",
"433 287 CURVE",
"633 88 LINE",
"633 88 OFFCURVE",
"652 188 OFFCURVE",
"540 218 CURVE SMOOTH",
"496 230 OFFCURVE",
"470 260 OFFCURVE",
"452 292 CURVE",
"464 293 LINE",
"483 261 OFFCURVE",
"514 233 OFFCURVE",
"558 222 CURVE SMOOTH",
"637 203 OFFCURVE",
"652 106 OFFCURVE",
"652 106 CURVE",
"652 106 OFFCURVE",
"669 222 OFFCURVE",
"562 252 CURVE SMOOTH",
"526 261 OFFCURVE",
"502 277 OFFCURVE",
"484 295 CURVE",
"510 295 OFFCURVE",
"538 288 OFFCURVE",
"568 271 CURVE SMOOTH",
"665 214 OFFCURVE",
"736 311 OFFCURVE",
"736 311 CURVE",
"736 311 OFFCURVE",
"657 252 OFFCURVE",
"586 293 CURVE SMOOTH",
"548 316 OFFCURVE",
"508 319 OFFCURVE",
"472 309 CURVE",
"466 319 LINE",
"499 331 OFFCURVE",
"539 333 OFFCURVE",
"579 308 CURVE SMOOTH",
"679 251 OFFCURVE",
"733 336 OFFCURVE",
"733 336 CURVE",
"458 335 LINE",
"455 339 LINE",
"458 344 LINE",
"735 344 LINE",
"735 344 OFFCURVE",
"679 426 OFFCURVE",
"579 369 CURVE SMOOTH",
"540 347 OFFCURVE",
"500 348 OFFCURVE",
"466 357 CURVE",
"474 368 LINE",
"508 359 OFFCURVE",
"548 361 OFFCURVE",
"586 384 CURVE SMOOTH",
"657 426 OFFCURVE",
"736 369 OFFCURVE",
"736 369 CURVE",
"736 369 OFFCURVE",
"665 462 OFFCURVE",
"568 406 CURVE SMOOTH",
"539 389 OFFCURVE",
"511 384 OFFCURVE",
"487 383 CURVE",
"504 400 OFFCURVE",
"528 416 OFFCURVE",
"563 425 CURVE SMOOTH",
"672 456 OFFCURVE",
"652 573 OFFCURVE",
"652 573 CURVE",
"652 573 OFFCURVE",
"637 474 OFFCURVE",
"559 454 CURVE SMOOTH",
"516 442 OFFCURVE",
"486 416 OFFCURVE",
"467 384 CURVE",
"454 385 LINE",
"470 417 OFFCURVE",
"496 449 OFFCURVE",
"540 460 CURVE SMOOTH",
"653 490 OFFCURVE",
"633 589 OFFCURVE",
"633 589 CURVE",
"435 391 LINE",
"434 391 OFFCURVE",
"433 392 OFFCURVE",
"433 392 CURVE",
"431 395 LINE",
"629 594 LINE",
"629 594 OFFCURVE",
"530 614 OFFCURVE",
"499 501 CURVE SMOOTH",
"488 457 OFFCURVE",
"458 430 OFFCURVE",
"426 414 CURVE",
"425 422 LINE",
"456 442 OFFCURVE",
"484 473 OFFCURVE",
"495 517 CURVE SMOOTH",
"514 598 OFFCURVE",
"611 614 OFFCURVE",
"611 614 CURVE",
"611 614 OFFCURVE",
"495 631 OFFCURVE",
"464 524 CURVE SMOOTH",
"455 489 OFFCURVE",
"439 464 OFFCURVE",
"423 445 CURVE",
"423 470 OFFCURVE",
"430 498 OFFCURVE",
"447 530 CURVE SMOOTH",
"503 626 OFFCURVE",
"410 697 OFFCURVE",
"410 697 CURVE",
"410 697 OFFCURVE",
"466 618 OFFCURVE",
"423 546 CURVE SMOOTH",
"401 508 OFFCURVE",
"399 468 OFFCURVE",
"409 432 CURVE",
"398 424 LINE",
"387 458 OFFCURVE",
"386 502 OFFCURVE",
"410 541 CURVE SMOOTH",
"466 641 OFFCURVE",
"383 695 OFFCURVE",
"383 695 CURVE",
"385 417 LINE",
"379 413 LINE",
"374 417 LINE",
"375 695 LINE",
"375 695 OFFCURVE",
"291 641 OFFCURVE",
"347 541 CURVE SMOOTH",
"371 502 OFFCURVE",
"370 461 OFFCURVE",
"359 425 CURVE",
"349 433 LINE",
"358 469 OFFCURVE",
"355 509 OFFCURVE",
"334 546 CURVE SMOOTH",
"293 618 OFFCURVE",
"350 697 OFFCURVE",
"350 697 CURVE",
"350 697 OFFCURVE",
"256 626 OFFCURVE",
"310 530 CURVE SMOOTH",
"327 500 OFFCURVE",
"334 470 OFFCURVE",
"334 446 CURVE",
"317 464 OFFCURVE",
"301 489 OFFCURVE",
"291 524 CURVE SMOOTH",
"262 631 OFFCURVE",
"148 614 OFFCURVE",
"148 614 CURVE",
"148 614 OFFCURVE",
"242 597 OFFCURVE",
"265 517 CURVE SMOOTH",
"277 472 OFFCURVE",
"302 441 OFFCURVE",
"333 424 CURVE",
"331 412 LINE",
"301 430 OFFCURVE",
"269 457 OFFCURVE",
"258 501 CURVE SMOOTH",
"226 614 OFFCURVE",
"128 594 OFFCURVE",
"128 594 CURVE",
"128 594 OFFCURVE",
"261 462 OFFCURVE",
"326 396 CURVE SMOOTH",
"327 395 OFFCURVE",
"329 392 OFFCURVE",
"327 391 CURVE SMOOTH",
"326 389 OFFCURVE",
"323 389 OFFCURVE",
"322 391 CURVE SMOOTH",
"122 589 LINE",
"122 589 OFFCURVE",
"104 490 OFFCURVE",
"216 460 CURVE SMOOTH",
"260 449 OFFCURVE",
"286 417 OFFCURVE",
"302 385 CURVE",
"290 384 LINE",
"271 414 OFFCURVE",
"240 441 OFFCURVE",
"198 453 CURVE SMOOTH",
"120 472 OFFCURVE",
"105 573 OFFCURVE",
"105 573 CURVE",
"105 573 OFFCURVE",
"87 454 OFFCURVE",
"193 425 CURVE SMOOTH",
"228 416 OFFCURVE",
"253 400 OFFCURVE",
"271 383 CURVE",
"246 383 OFFCURVE",
"218 389 OFFCURVE",
"188 406 CURVE SMOOTH",
"91 462 OFFCURVE",
"21 368 OFFCURVE",
"20 369 CURVE",
"20 369 OFFCURVE",
"99 425 OFFCURVE",
"172 384 CURVE SMOOTH",
"210 361 OFFCURVE",
"249 359 OFFCURVE",
"285 368 CURVE",
"293 359 LINE",
"257 348 OFFCURVE",
"216 345 OFFCURVE",
"177 369 CURVE SMOOTH",
"77 426 OFFCURVE",
"21 344 OFFCURVE",
"21 344 CURVE",
"301 344 LINE",
"303 340 LINE",
"301 335 LINE",
"21 336 LINE",
"21 336 OFFCURVE",
"77 251 OFFCURVE",
"177 308 CURVE SMOOTH",
"217 332 OFFCURVE",
"257 331 OFFCURVE",
"291 320 CURVE",
"285 309 LINE",
"248 319 OFFCURVE",
"209 316 OFFCURVE",
"172 293 CURVE SMOOTH",
"99 252 OFFCURVE",
"20 311 OFFCURVE",
"20 311 CURVE",
"20 311 OFFCURVE",
"91 214 OFFCURVE",
"188 271 CURVE SMOOTH",
"221 289 OFFCURVE",
"250 296 OFFCURVE",
"274 297 CURVE",
"257 279 OFFCURVE",
"230 261 OFFCURVE",
"194 252 CURVE SMOOTH",
"87 222 OFFCURVE",
"104 106 OFFCURVE",
"104 106 CURVE",
"104 106 OFFCURVE",
"120 203 OFFCURVE",
"198 224 CURVE SMOOTH",
"245 235 OFFCURVE",
"277 263 OFFCURVE",
"294 296 CURVE",
"305 295 LINE",
"289 263 OFFCURVE",
"262 230 OFFCURVE",
"217 218 CURVE SMOOTH",
"104 188 OFFCURVE",
"122 88 OFFCURVE",
"122 88 CURVE",
"122 88 OFFCURVE",
"258 226 OFFCURVE",
"323 289 CURVE",
"323 289 OFFCURVE",
"326 291 OFFCURVE",
"329 288 CURVE",
"330 285 OFFCURVE",
"330 284 OFFCURVE",
"329 281 CURVE",
"128 84 LINE",
"128 84 OFFCURVE",
"228 63 OFFCURVE",
"258 176 CURVE SMOOTH",
"269 222 OFFCURVE",
"299 248 OFFCURVE",
"333 264 CURVE",
"334 252 LINE",
"302 233 OFFCURVE",
"277 203 OFFCURVE",
"265 160 CURVE SMOOTH",
"245 80 OFFCURVE",
"145 66 OFFCURVE",
"145 66 CURVE",
"145 66 OFFCURVE",
"264 46 OFFCURVE",
"293 155 CURVE SMOOTH",
"303 191 OFFCURVE",
"318 216 OFFCURVE",
"335 233 CURVE",
"335 210 OFFCURVE",
"329 182 OFFCURVE",
"310 150 CURVE SMOOTH",
"256 51 OFFCURVE",
"350 -18 OFFCURVE",
"350 -18 CURVE"
);
},
{
closed = 1;
nodes = (
"361 331 LINE",
"361 347 LINE",
"373 357 LINE",
"387 357 LINE",
"399 347 LINE",
"399 331 LINE",
"387 319 LINE",
"373 319 LINE"
);
}
);
width = 756;
}
);
unicode = 0057;
},
{
glyphname = X;
lastChange = "2021-02-18 15:43:49 +0000";
layers = (
{
layerId = "A1B629DE-12A3-463D-9110-6FB76C8F6166";
paths = (
{
closed = 1;
nodes = (
"20 135 OFFCURVE",
"30 46 OFFCURVE",
"153 46 CURVE SMOOTH",
"211 46 OFFCURVE",
"248 80 OFFCURVE",
"248 100 CURVE",
"248 80 OFFCURVE",
"244 42 OFFCURVE",
"206 42 CURVE SMOOTH",
"180 42 OFFCURVE",
"173 18 OFFCURVE",
"206 5 CURVE SMOOTH",
"284 -28 OFFCURVE",
"310 -20 OFFCURVE",
"310 1 CURVE",
"310 -20 OFFCURVE",
"336 -28 OFFCURVE",
"414 5 CURVE SMOOTH",
"446 18 OFFCURVE",
"440 42 OFFCURVE",
"414 42 CURVE SMOOTH",
"375 42 OFFCURVE",
"371 80 OFFCURVE",
"371 100 CURVE",
"371 80 OFFCURVE",
"408 46 OFFCURVE",
"467 46 CURVE SMOOTH",
"590 46 OFFCURVE",
"600 135 OFFCURVE",
"600 221 CURVE SMOOTH",
"600 292 OFFCURVE",
"522 441 OFFCURVE",
"522 491 CURVE",
"529 489 OFFCURVE",
"567 485 OFFCURVE",
"567 526 CURVE SMOOTH",
"567 578 OFFCURVE",
"479 584 OFFCURVE",
"482 497 CURVE SMOOTH",
"485 461 OFFCURVE",
"493 408 OFFCURVE",
"520 371 CURVE",
"520 371 OFFCURVE",
"396 474 OFFCURVE",
"479 610 CURVE",
"479 610 OFFCURVE",
"489 594 OFFCURVE",
"512 594 CURVE SMOOTH",
"554 594 OFFCURVE",
"559 668 OFFCURVE",
"500 662 CURVE SMOOTH",
"451 658 OFFCURVE",
"422 609 OFFCURVE",
"414 549 CURVE",
"396 569 OFFCURVE",
"375 557 OFFCURVE",
"375 557 CURVE",
"374 586 OFFCURVE",
"343 584 OFFCURVE",
"330 582 CURVE",
"343 584 OFFCURVE",
"349 593 OFFCURVE",
"359 624 CURVE SMOOTH",
"370 668 OFFCURVE",
"401 683 OFFCURVE",
"390 696 CURVE SMOOTH",
"371 721 OFFCURVE",
"343 690 OFFCURVE",
"343 690 CURVE",
"334 705 OFFCURVE",
"314 703 OFFCURVE",
"310 703 CURVE SMOOTH",
"306 703 OFFCURVE",
"285 705 OFFCURVE",
"277 690 CURVE",
"277 690 OFFCURVE",
"244 721 OFFCURVE",
"229 696 CURVE SMOOTH",
"220 681 OFFCURVE",
"250 668 OFFCURVE",
"261 624 CURVE SMOOTH",
"270 593 OFFCURVE",
"277 584 OFFCURVE",
"289 582 CURVE",
"277 584 OFFCURVE",
"246 586 OFFCURVE",
"244 557 CURVE",
"244 557 OFFCURVE",
"224 569 OFFCURVE",
"206 549 CURVE",
"198 609 OFFCURVE",
"169 658 OFFCURVE",
"120 662 CURVE SMOOTH",
"61 668 OFFCURVE",
"65 594 OFFCURVE",
"107 594 CURVE SMOOTH",
"131 594 OFFCURVE",
"140 610 OFFCURVE",
"140 610 CURVE",
"224 474 OFFCURVE",
"99 371 OFFCURVE",
"99 371 CURVE",
"127 408 OFFCURVE",
"135 461 OFFCURVE",
"138 497 CURVE SMOOTH",
"140 584 OFFCURVE",
"53 578 OFFCURVE",
"53 526 CURVE SMOOTH",
"53 485 OFFCURVE",
"91 489 OFFCURVE",
"98 491 CURVE",
"98 441 OFFCURVE",
"20 292 OFFCURVE",
"20 221 CURVE SMOOTH"
);
},
{
closed = 1;
nodes = (
"73 221 OFFCURVE",
"49 284 OFFCURVE",
"191 367 CURVE SMOOTH",
"270 416 OFFCURVE",
"266 496 OFFCURVE",
"262 513 CURVE",
"272 516 OFFCURVE",
"277 520 OFFCURVE",
"277 520 CURVE",
"277 520 OFFCURVE",
"310 416 OFFCURVE",
"267 382 CURVE",
"233 386 OFFCURVE",
"235 332 OFFCURVE",
"266 336 CURVE",
"266 336 OFFCURVE",
"224 312 OFFCURVE",
"224 241 CURVE SMOOTH",
"224 170 OFFCURVE",
"222 114 OFFCURVE",
"153 114 CURVE SMOOTH",
"76 114 OFFCURVE",
"258 221 OFFCURVE",
"73 221 CURVE"
);
},
{
closed = 1;
nodes = (
"194 419 OFFCURVE",
"203 446 OFFCURVE",
"207 479 CURVE SMOOTH",
"209 490 OFFCURVE",
"209 501 OFFCURVE",
"209 513 CURVE",
"213 506 OFFCURVE",
"222 502 OFFCURVE",
"229 501 CURVE SMOOTH",
"235 501 LINE",
"236 479 OFFCURVE",
"236 429 OFFCURVE",
"185 400 CURVE SMOOTH",
"177 394 LINE"
);
},
{
closed = 1;
nodes = (
"343 520 OFFCURVE",
"348 516 OFFCURVE",
"358 513 CURVE",
"354 496 OFFCURVE",
"349 416 OFFCURVE",
"429 367 CURVE SMOOTH",
"571 284 OFFCURVE",
"546 221 OFFCURVE",
"546 221 CURVE",
"362 221 OFFCURVE",
"544 114 OFFCURVE",
"467 114 CURVE SMOOTH",
"397 114 OFFCURVE",
"396 170 OFFCURVE",
"396 241 CURVE SMOOTH",
"396 312 OFFCURVE",
"354 336 OFFCURVE",
"354 336 CURVE",
"385 332 OFFCURVE",
"386 386 OFFCURVE",
"352 382 CURVE",
"310 416 OFFCURVE",
"343 520 OFFCURVE",
"343 520 CURVE"
);
},
{
closed = 1;
nodes = (
"390 501 LINE SMOOTH",
"397 502 OFFCURVE",
"407 506 OFFCURVE",
"411 513 CURVE",
"411 501 OFFCURVE",
"411 490 OFFCURVE",
"412 479 CURVE SMOOTH",
"416 446 OFFCURVE",
"426 419 OFFCURVE",
"442 394 CURVE",
"434 400 LINE SMOOTH",
"384 429 OFFCURVE",
"384 479 OFFCURVE",
"385 501 CURVE"
);
}
);
width = 620;
}
);
unicode = 0058;
},
{
glyphname = Y;
lastChange = "2021-02-18 15:44:13 +0000";
layers = (
{
layerId = "A1B629DE-12A3-463D-9110-6FB76C8F6166";
paths = (
{
closed = 1;
nodes = (
"521 -16 OFFCURVE",
"616 27 OFFCURVE",
"616 129 CURVE",
"616 189 OFFCURVE",
"628 235 OFFCURVE",
"639 259 CURVE SMOOTH",
"650 235 OFFCURVE",
"664 189 OFFCURVE",
"664 129 CURVE",
"664 27 OFFCURVE",
"758 -16 OFFCURVE",
"815 34 CURVE SMOOTH",
"853 -20 OFFCURVE",
"1012 16 OFFCURVE",
"1003 104 CURVE SMOOTH",
"1045 98 OFFCURVE",
"1153 182 OFFCURVE",
"1114 274 CURVE SMOOTH",
"1136 291 LINE SMOOTH",
"1136 291 OFFCURVE",
"1153 246 OFFCURVE",
"1198 254 CURVE",
"1237 262 OFFCURVE",
"1227 308 OFFCURVE",
"1201 312 CURVE SMOOTH",
"1214 312 OFFCURVE",
"1259 312 OFFCURVE",
"1259 350 CURVE",
"1259 390 OFFCURVE",
"1214 390 OFFCURVE",
"1201 390 CURVE SMOOTH",
"1227 393 OFFCURVE",
"1237 440 OFFCURVE",
"1198 448 CURVE",
"1153 456 OFFCURVE",
"1136 411 OFFCURVE",
"1136 411 CURVE SMOOTH",
"1114 427 LINE SMOOTH",
"1153 519 OFFCURVE",
"1045 603 OFFCURVE",
"1003 598 CURVE SMOOTH",
"1012 686 OFFCURVE",
"853 722 OFFCURVE",
"815 668 CURVE SMOOTH",
"758 718 OFFCURVE",
"664 675 OFFCURVE",
"664 573 CURVE",
"664 513 OFFCURVE",
"650 467 OFFCURVE",
"639 442 CURVE SMOOTH",
"628 467 OFFCURVE",
"616 513 OFFCURVE",
"616 573 CURVE",
"616 675 OFFCURVE",
"521 718 OFFCURVE",
"463 668 CURVE SMOOTH",
"426 722 OFFCURVE",
"266 686 OFFCURVE",
"276 598 CURVE SMOOTH",
"233 603 OFFCURVE",
"126 519 OFFCURVE",
"164 427 CURVE SMOOTH",
"142 411 LINE SMOOTH",
"142 411 OFFCURVE",
"126 456 OFFCURVE",
"81 448 CURVE",
"42 440 OFFCURVE",
"52 393 OFFCURVE",
"78 390 CURVE SMOOTH",
"64 390 OFFCURVE",
"20 390 OFFCURVE",
"20 350 CURVE",
"20 312 OFFCURVE",
"64 312 OFFCURVE",
"78 312 CURVE SMOOTH",
"52 308 OFFCURVE",
"42 262 OFFCURVE",
"81 254 CURVE",
"126 246 OFFCURVE",
"142 291 OFFCURVE",
"142 291 CURVE SMOOTH",
"164 274 LINE SMOOTH",
"126 182 OFFCURVE",
"233 98 OFFCURVE",
"276 104 CURVE SMOOTH",
"266 16 OFFCURVE",
"426 -20 OFFCURVE",
"463 34 CURVE SMOOTH"
);
},
{
closed = 1;
nodes = (
"255 182 OFFCURVE",
"237 195 OFFCURVE",
"237 222 CURVE",
"237 251 OFFCURVE",
"246 258 OFFCURVE",
"281 258 CURVE",
"314 258 OFFCURVE",
"298 295 OFFCURVE",
"298 295 CURVE SMOOTH",
"360 306 OFFCURVE",
"436 306 OFFCURVE",
"448 295 CURVE",
"459 286 OFFCURVE",
"341 186 OFFCURVE",
"292 184 CURVE"
);
},
{
closed = 1;
nodes = (
"346 96 OFFCURVE",
"335 113 OFFCURVE",
"352 130 CURVE",
"363 141 OFFCURVE",
"507 284 OFFCURVE",
"515 284 CURVE SMOOTH",
"521 279 OFFCURVE",
"510 254 OFFCURVE",
"488 226 CURVE",
"463 195 OFFCURVE",
"470 171 OFFCURVE",
"448 134 CURVE",
"430 104 OFFCURVE",
"398 80 OFFCURVE",
"365 89 CURVE"
);
},
{
closed = 1;
nodes = (
"515 101 OFFCURVE",
"547 215 OFFCURVE",
"559 254 CURVE",
"573 291 OFFCURVE",
"605 286 OFFCURVE",
"590 258 CURVE",
"569 219 OFFCURVE",
"575 192 OFFCURVE",
"565 134 CURVE",
"555 78 OFFCURVE",
"511 82 OFFCURVE",
"515 101 CURVE SMOOTH"
);
},
{
closed = 1;
nodes = (
"298 407 OFFCURVE",
"314 444 OFFCURVE",
"281 444 CURVE",
"246 444 OFFCURVE",
"237 451 OFFCURVE",
"237 478 CURVE",
"237 507 OFFCURVE",
"255 519 OFFCURVE",
"292 518 CURVE",
"341 515 OFFCURVE",
"459 416 OFFCURVE",
"448 407 CURVE",
"436 396 OFFCURVE",
"360 396 OFFCURVE",
"298 407 CURVE SMOOTH"
);
},
{
closed = 1;
nodes = (
"767 82 OFFCURVE",
"723 78 OFFCURVE",
"714 134 CURVE",
"704 192 OFFCURVE",
"709 219 OFFCURVE",
"689 258 CURVE",
"675 286 OFFCURVE",
"707 291 OFFCURVE",
"719 254 CURVE",
"731 215 OFFCURVE",
"763 101 OFFCURVE",
"763 101 CURVE SMOOTH"
);
},
{
closed = 1;
nodes = (
"507 418 OFFCURVE",
"363 561 OFFCURVE",
"352 572 CURVE",
"335 588 OFFCURVE",
"346 606 OFFCURVE",
"365 612 CURVE",
"398 621 OFFCURVE",
"430 598 OFFCURVE",
"448 568 CURVE",
"470 530 OFFCURVE",
"463 507 OFFCURVE",
"488 475 CURVE",
"510 448 OFFCURVE",
"521 423 OFFCURVE",
"515 418 CURVE SMOOTH"
);
},
{
closed = 1;
nodes = (
"603 312 OFFCURVE",
"598 342 OFFCURVE",
"598 350 CURVE SMOOTH",
"598 357 OFFCURVE",
"601 390 OFFCURVE",
"639 390 CURVE SMOOTH",
"681 390 OFFCURVE",
"681 354 OFFCURVE",
"681 350 CURVE SMOOTH",
"681 342 OFFCURVE",
"675 312 OFFCURVE",
"639 312 CURVE SMOOTH"
);
},
{
closed = 1;
nodes = (
"880 80 OFFCURVE",
"848 104 OFFCURVE",
"831 134 CURVE",
"809 171 OFFCURVE",
"815 195 OFFCURVE",
"792 226 CURVE",
"769 254 OFFCURVE",
"758 279 OFFCURVE",
"763 284 CURVE SMOOTH",
"771 284 OFFCURVE",
"916 141 OFFCURVE",
"927 130 CURVE",
"943 113 OFFCURVE",
"932 96 OFFCURVE",
"914 89 CURVE"
);
},
{
closed = 1;
nodes = (
"605 416 OFFCURVE",
"573 411 OFFCURVE",
"559 448 CURVE",
"547 486 OFFCURVE",
"515 601 OFFCURVE",
"515 601 CURVE SMOOTH",
"511 620 OFFCURVE",
"555 624 OFFCURVE",
"565 568 CURVE",
"575 510 OFFCURVE",
"569 482 OFFCURVE",
"590 444 CURVE"
);
},
{
closed = 1;
nodes = (
"938 186 OFFCURVE",
"820 286 OFFCURVE",
"831 295 CURVE",
"843 306 OFFCURVE",
"920 306 OFFCURVE",
"981 295 CURVE SMOOTH",
"981 295 OFFCURVE",
"964 258 OFFCURVE",
"997 258 CURVE",
"1033 258 OFFCURVE",
"1042 251 OFFCURVE",
"1042 222 CURVE",
"1042 195 OFFCURVE",
"1023 182 OFFCURVE",
"986 184 CURVE"
);
},
{
closed = 1;
nodes = (
"709 482 OFFCURVE",
"704 510 OFFCURVE",
"714 568 CURVE",
"723 624 OFFCURVE",
"767 620 OFFCURVE",
"763 601 CURVE SMOOTH",
"763 601 OFFCURVE",
"731 486 OFFCURVE",
"719 448 CURVE",
"707 411 OFFCURVE",
"675 416 OFFCURVE",
"689 444 CURVE"
);
},
{
closed = 1;
nodes = (
"758 423 OFFCURVE",
"769 448 OFFCURVE",
"792 475 CURVE SMOOTH",
"815 507 OFFCURVE",
"809 530 OFFCURVE",
"831 568 CURVE",
"848 598 OFFCURVE",
"880 621 OFFCURVE",
"914 612 CURVE",
"932 606 OFFCURVE",
"943 588 OFFCURVE",
"927 572 CURVE",
"916 561 OFFCURVE",
"771 418 OFFCURVE",
"763 418 CURVE SMOOTH"
);
},
{
closed = 1;
nodes = (
"820 416 OFFCURVE",
"938 515 OFFCURVE",
"986 518 CURVE",
"1023 519 OFFCURVE",
"1042 507 OFFCURVE",
"1042 478 CURVE",
"1042 451 OFFCURVE",
"1033 444 OFFCURVE",
"997 444 CURVE",
"964 444 OFFCURVE",
"981 407 OFFCURVE",
"981 407 CURVE SMOOTH",
"920 396 OFFCURVE",
"843 396 OFFCURVE",
"831 407 CURVE"
);
}
);
width = 1279;
}
);
unicode = 0059;
},
{
glyphname = Z;
lastChange = "2021-02-18 15:44:29 +0000";
layers = (
{
layerId = "A1B629DE-12A3-463D-9110-6FB76C8F6166";
paths = (
{
closed = 1;
nodes = (
"420 1 OFFCURVE",
"438 77 OFFCURVE",
"438 77 CURVE",
"438 77 OFFCURVE",
"477 73 OFFCURVE",
"477 114 CURVE",
"477 161 OFFCURVE",
"416 143 OFFCURVE",
"416 186 CURVE",
"416 233 OFFCURVE",
"448 261 OFFCURVE",
"445 258 CURVE",
"445 258 OFFCURVE",
"469 286 OFFCURVE",
"516 286 CURVE",
"559 287 OFFCURVE",
"542 225 OFFCURVE",
"589 225 CURVE",
"629 225 OFFCURVE",
"625 265 OFFCURVE",
"625 265 CURVE",
"625 265 OFFCURVE",
"698 283 OFFCURVE",
"700 346 CURVE",
"698 411 OFFCURVE",
"625 429 OFFCURVE",
"625 429 CURVE",
"625 429 OFFCURVE",
"629 469 OFFCURVE",
"589 469 CURVE",
"542 469 OFFCURVE",
"559 407 OFFCURVE",
"516 407 CURVE",
"469 407 OFFCURVE",
"443 439 OFFCURVE",
"445 436 CURVE SMOOTH",
"449 432 OFFCURVE",
"416 461 OFFCURVE",
"416 508 CURVE",
"416 550 OFFCURVE",
"477 533 OFFCURVE",
"477 580 CURVE",
"477 621 OFFCURVE",
"438 617 OFFCURVE",
"438 617 CURVE",
"438 617 OFFCURVE",
"420 689 OFFCURVE",
"355 692 CURVE",
"291 689 OFFCURVE",
"273 617 OFFCURVE",
"273 617 CURVE",
"273 617 OFFCURVE",
"232 621 OFFCURVE",
"232 580 CURVE",
"232 533 OFFCURVE",
"295 550 OFFCURVE",
"295 508 CURVE",
"293 461 OFFCURVE",
"263 434 OFFCURVE",
"263 434 CURVE",
"266 436 OFFCURVE",
"241 407 OFFCURVE",
"194 407 CURVE",
"151 407 OFFCURVE",
"169 469 OFFCURVE",
"122 469 CURVE",
"80 469 OFFCURVE",
"85 429 OFFCURVE",
"85 429 CURVE",
"83 429 OFFCURVE",
"11 411 OFFCURVE",
"10 346 CURVE",
"13 283 OFFCURVE",
"85 265 OFFCURVE",
"85 265 CURVE",
"85 265 OFFCURVE",
"80 225 OFFCURVE",
"122 225 CURVE",
"169 225 OFFCURVE",
"151 287 OFFCURVE",
"194 286 CURVE",
"241 286 OFFCURVE",
"266 257 OFFCURVE",
"266 257 CURVE SMOOTH",
"266 257 OFFCURVE",
"293 233 OFFCURVE",
"295 186 CURVE",
"295 143 OFFCURVE",
"232 161 OFFCURVE",
"232 114 CURVE",
"232 73 OFFCURVE",
"273 77 OFFCURVE",
"273 77 CURVE",
"273 77 OFFCURVE",
"291 4 OFFCURVE",
"355 2 CURVE SMOOTH"
);
},
{
closed = 1;
nodes = (
"355 275 OFFCURVE",
"274 345 OFFCURVE",
"112 346 CURVE",
"275 346 OFFCURVE",
"355 418 OFFCURVE",
"355 591 CURVE",
"355 418 OFFCURVE",
"441 346 OFFCURVE",
"599 346 CURVE",
"441 346 OFFCURVE",
"355 275 OFFCURVE",
"355 103 CURVE"
);
}
);
width = 710;
}
);
unicode = 005A;
},
{
glyphname = a;
lastChange = "2021-02-18 15:46:43 +0000";
layers = (
{
guideLines = (
{
position = "{396, 428}";
},
{
position = "{119, 461}";
},
{
position = "{345, 413}";
},
{
angle = 180.15;
position = "{441, 254}";
},
{
position = "{652, 39}";
}
);
layerId = "A1B629DE-12A3-463D-9110-6FB76C8F6166";
paths = (
{
closed = 1;
nodes = (
"428 -4 OFFCURVE",
"448 -4 OFFCURVE",
"455 3 CURVE SMOOTH",
"465 13 OFFCURVE",
"464 21 OFFCURVE",
"460 36 CURVE",
"456 50 OFFCURVE",
"465 47 OFFCURVE",
"468 46 CURVE SMOOTH",
"497 31 OFFCURVE",
"516 29 OFFCURVE",
"528 29 CURVE SMOOTH",
"551 29 OFFCURVE",
"557 38 OFFCURVE",
"553 42 CURVE SMOOTH",
"552 43 OFFCURVE",
"537 57 OFFCURVE",
"537 57 CURVE SMOOTH",
"537 57 OFFCURVE",
"556 85 OFFCURVE",
"544 101 CURVE",
"533 116 OFFCURVE",
"517 101 OFFCURVE",
"524 90 CURVE SMOOTH",
"533 75 OFFCURVE",
"523 68 OFFCURVE",
"501 68 CURVE SMOOTH",
"485 68 OFFCURVE",
"468 84 OFFCURVE",
"468 110 CURVE SMOOTH",
"468 148 OFFCURVE",
"507 163 OFFCURVE",
"533 163 CURVE SMOOTH",
"560 163 OFFCURVE",
"602 147 OFFCURVE",
"602 107 CURVE SMOOTH",
"602 71 OFFCURVE",
"586 57 OFFCURVE",
"586 57 CURVE SMOOTH",
"586 57 OFFCURVE",
"644 -1 OFFCURVE",
"742 -1 CURVE SMOOTH",
"818 -1 OFFCURVE",
"856 42 OFFCURVE",
"856 123 CURVE SMOOTH",
"856 192 OFFCURVE",
"814 211 OFFCURVE",
"814 211 CURVE",
"814 271 LINE",
"814 271 OFFCURVE",
"856 290 OFFCURVE",
"856 358 CURVE SMOOTH",
"856 427 OFFCURVE",
"818 481 OFFCURVE",
"742 481 CURVE SMOOTH",
"644 481 OFFCURVE",
"586 423 OFFCURVE",
"586 423 CURVE SMOOTH",
"586 423 OFFCURVE",
"602 411 OFFCURVE",
"602 374 CURVE SMOOTH",
"602 337 OFFCURVE",
"567 317 OFFCURVE",
"533 317 CURVE SMOOTH",
"507 317 OFFCURVE",
"468 334 OFFCURVE",
"468 371 CURVE SMOOTH",
"468 397 OFFCURVE",
"485 413 OFFCURVE",
"501 413 CURVE SMOOTH",
"523 413 OFFCURVE",
"534 401 OFFCURVE",
"524 391 CURVE SMOOTH",
"513 381 OFFCURVE",
"531 365 OFFCURVE",
"544 380 CURVE SMOOTH",
"567 404 OFFCURVE",
"537 424 OFFCURVE",
"537 424 CURVE SMOOTH",
"537 424 OFFCURVE",
"552 438 OFFCURVE",
"553 439 CURVE SMOOTH",
"557 443 OFFCURVE",
"551 452 OFFCURVE",
"528 452 CURVE SMOOTH",
"516 452 OFFCURVE",
"497 448 OFFCURVE",
"468 433 CURVE SMOOTH",
"468 433 OFFCURVE",
"456 430 OFFCURVE",
"460 445 CURVE",
"464 460 OFFCURVE",
"464 468 OFFCURVE",
"455 477 CURVE SMOOTH",
"448 484 OFFCURVE",
"429 484 OFFCURVE",
"421 477 CURVE SMOOTH",
"412 469 OFFCURVE",
"412 460 OFFCURVE",
"415 445 CURVE",
"419 431 OFFCURVE",
"409 432 OFFCURVE",
"406 435 CURVE SMOOTH",
"380 452 OFFCURVE",
"360 452 OFFCURVE",
"347 452 CURVE SMOOTH",
"326 452 OFFCURVE",
"322 443 OFFCURVE",
"325 439 CURVE SMOOTH",
"326 438 OFFCURVE",
"340 424 OFFCURVE",
"340 424 CURVE SMOOTH",
"340 424 OFFCURVE",
"315 404 OFFCURVE",
"331 380 CURVE SMOOTH",
"341 365 OFFCURVE",
"359 380 OFFCURVE",
"351 391 CURVE SMOOTH",
"343 403 OFFCURVE",
"352 413 OFFCURVE",
"374 413 CURVE SMOOTH",
"391 413 OFFCURVE",
"406 397 OFFCURVE",
"406 371 CURVE SMOOTH",
"406 334 OFFCURVE",
"372 317 OFFCURVE",
"342 317 CURVE SMOOTH",
"309 317 OFFCURVE",
"275 335 OFFCURVE",
"275 374 CURVE SMOOTH",
"275 397 OFFCURVE",
"278 406 OFFCURVE",
"288 423 CURVE SMOOTH",
"288 423 OFFCURVE",
"232 481 OFFCURVE",
"133 481 CURVE SMOOTH",
"58 481 OFFCURVE",
"20 427 OFFCURVE",
"20 358 CURVE SMOOTH",
"20 299 OFFCURVE",
"65 271 OFFCURVE",
"65 271 CURVE",
"65 211 LINE",
"65 211 OFFCURVE",
"20 192 OFFCURVE",
"21 123 CURVE SMOOTH",
"22 52 OFFCURVE",
"59 -1 OFFCURVE",
"134 -1 CURVE SMOOTH",
"234 -1 OFFCURVE",
"288 57 OFFCURVE",
"288 57 CURVE SMOOTH",
"288 57 OFFCURVE",
"275 71 OFFCURVE",
"275 107 CURVE SMOOTH",
"275 147 OFFCURVE",
"318 163 OFFCURVE",
"342 163 CURVE SMOOTH",
"368 163 OFFCURVE",
"406 148 OFFCURVE",
"406 110 CURVE SMOOTH",
"406 84 OFFCURVE",
"391 68 OFFCURVE",
"374 68 CURVE SMOOTH",
"352 68 OFFCURVE",
"343 76 OFFCURVE",
"351 90 CURVE SMOOTH",
"358 101 OFFCURVE",
"342 116 OFFCURVE",
"331 101 CURVE",
"322 85 OFFCURVE",
"340 57 OFFCURVE",
"340 57 CURVE SMOOTH",
"340 57 OFFCURVE",
"326 43 OFFCURVE",
"325 42 CURVE SMOOTH",
"322 38 OFFCURVE",
"326 29 OFFCURVE",
"347 29 CURVE SMOOTH",
"360 29 OFFCURVE",
"379 33 OFFCURVE",
"406 46 CURVE SMOOTH",
"408 47 OFFCURVE",
"419 50 OFFCURVE",
"415 36 CURVE",
"412 21 OFFCURVE",
"412 12 OFFCURVE",
"421 3 CURVE SMOOTH"
);
},
{
closed = 1;
nodes = (
"136 118 OFFCURVE",
"131 126 OFFCURVE",
"131 132 CURVE SMOOTH",
"131 136 OFFCURVE",
"136 140 OFFCURVE",
"144 147 CURVE SMOOTH",
"151 152 OFFCURVE",
"148 164 OFFCURVE",
"132 164 CURVE SMOOTH",
"106 164 OFFCURVE",
"105 134 OFFCURVE",
"105 134 CURVE",
"55 134 LINE SMOOTH",
"55 134 OFFCURVE",
"58 199 OFFCURVE",
"123 199 CURVE SMOOTH",
"172 199 OFFCURVE",
"181 172 OFFCURVE",
"181 154 CURVE SMOOTH",
"181 128 OFFCURVE",
"165 118 OFFCURVE",
"148 118 CURVE SMOOTH"
);
},
{
closed = 1;
nodes = (
"55 27 OFFCURVE",
"55 110 OFFCURVE",
"55 110 CURVE",
"105 110 LINE",
"105 110 OFFCURVE",
"118 87 OFFCURVE",
"149 87 CURVE SMOOTH",
"181 87 OFFCURVE",
"205 118 OFFCURVE",
"205 150 CURVE SMOOTH",
"205 198 OFFCURVE",
"157 223 OFFCURVE",
"194 223 CURVE SMOOTH",
"202 223 OFFCURVE",
"204 218 OFFCURVE",
"213 218 CURVE SMOOTH",
"226 218 OFFCURVE",
"228 228 OFFCURVE",
"228 228 CURVE",
"228 221 OFFCURVE",
"260 214 OFFCURVE",
"264 211 CURVE",
"264 176 LINE",
"282 176 LINE",
"226 134 OFFCURVE",
"213 27 OFFCURVE",
"134 27 CURVE SMOOTH"
);
},
{
closed = 1;
nodes = (
"58 282 OFFCURVE",
"54 347 OFFCURVE",
"54 347 CURVE",
"105 347 LINE",
"105 347 OFFCURVE",
"107 316 OFFCURVE",
"132 316 CURVE",
"147 316 OFFCURVE",
"152 331 OFFCURVE",
"144 335 CURVE SMOOTH",
"136 340 OFFCURVE",
"131 343 OFFCURVE",
"131 349 CURVE SMOOTH",
"131 356 OFFCURVE",
"136 361 OFFCURVE",
"148 361 CURVE SMOOTH",
"165 361 OFFCURVE",
"181 352 OFFCURVE",
"181 327 CURVE SMOOTH",
"181 309 OFFCURVE",
"172 282 OFFCURVE",
"123 282 CURVE SMOOTH"
);
},
{
closed = 1;
nodes = (
"228 256 OFFCURVE",
"226 263 OFFCURVE",
"213 263 CURVE SMOOTH",
"204 263 OFFCURVE",
"202 256 OFFCURVE",
"194 256 CURVE SMOOTH",
"157 256 OFFCURVE",
"205 283 OFFCURVE",
"205 331 CURVE SMOOTH",
"205 364 OFFCURVE",
"181 393 OFFCURVE",
"149 393 CURVE SMOOTH",
"118 393 OFFCURVE",
"105 371 OFFCURVE",
"105 371 CURVE SMOOTH",
"54 371 LINE SMOOTH",
"54 371 OFFCURVE",
"54 454 OFFCURVE",
"133 454 CURVE SMOOTH",
"212 454 OFFCURVE",
"226 347 OFFCURVE",
"282 304 CURVE",
"264 304 LINE",
"264 271 LINE",
"260 267 OFFCURVE",
"228 259 OFFCURVE",
"228 253 CURVE"
);
},
{
closed = 1;
nodes = (
"436 148 OFFCURVE",
"430 162 OFFCURVE",
"415 172 CURVE",
"460 172 LINE",
"447 162 OFFCURVE",
"441 148 OFFCURVE",
"438 132 CURVE"
);
},
{
closed = 1;
nodes = (
"292 285 LINE",
"585 285 LINE",
"585 196 LINE",
"292 196 LINE"
);
},
{
closed = 1;
nodes = (
"429 319 OFFCURVE",
"436 333 OFFCURVE",
"438 349 CURVE",
"441 333 OFFCURVE",
"449 320 OFFCURVE",
"460 309 CURVE",
"415 309 LINE"
);
},
{
closed = 1;
nodes = (
"664 27 OFFCURVE",
"649 134 OFFCURVE",
"593 176 CURVE",
"612 176 LINE",
"612 211 LINE",
"615 214 OFFCURVE",
"647 221 OFFCURVE",
"647 228 CURVE",
"647 228 OFFCURVE",
"649 218 OFFCURVE",
"663 218 CURVE SMOOTH",
"670 218 OFFCURVE",
"677 223 OFFCURVE",
"685 223 CURVE SMOOTH",
"719 223 OFFCURVE",
"669 198 OFFCURVE",
"669 150 CURVE SMOOTH",
"669 118 OFFCURVE",
"695 87 OFFCURVE",
"726 87 CURVE SMOOTH",
"758 87 OFFCURVE",
"770 110 OFFCURVE",
"770 110 CURVE",
"821 110 LINE",
"821 110 OFFCURVE",
"822 27 OFFCURVE",
"742 27 CURVE SMOOTH"
);
},
{
closed = 1;
nodes = (
"709 118 OFFCURVE",
"695 128 OFFCURVE",
"695 154 CURVE SMOOTH",
"695 172 OFFCURVE",
"704 199 OFFCURVE",
"752 199 CURVE SMOOTH",
"818 199 OFFCURVE",
"821 134 OFFCURVE",
"821 134 CURVE SMOOTH",
"770 134 LINE",
"770 134 OFFCURVE",
"768 164 OFFCURVE",
"743 164 CURVE SMOOTH",
"728 164 OFFCURVE",
"722 150 OFFCURVE",
"732 147 CURVE SMOOTH",
"741 143 OFFCURVE",
"744 136 OFFCURVE",
"744 132 CURVE SMOOTH",
"744 126 OFFCURVE",
"740 118 OFFCURVE",
"727 118 CURVE SMOOTH"
);
},
{
closed = 1;
nodes = (
"647 259 OFFCURVE",
"615 267 OFFCURVE",
"612 271 CURVE",
"612 304 LINE",
"593 304 LINE",
"649 347 OFFCURVE",
"664 454 OFFCURVE",
"742 454 CURVE SMOOTH",
"822 454 OFFCURVE",
"821 371 OFFCURVE",
"821 371 CURVE SMOOTH",
"770 371 LINE SMOOTH",
"770 371 OFFCURVE",
"758 393 OFFCURVE",
"726 393 CURVE SMOOTH",
"695 393 OFFCURVE",
"669 364 OFFCURVE",
"669 331 CURVE SMOOTH",
"669 283 OFFCURVE",
"719 256 OFFCURVE",
"685 256 CURVE SMOOTH",
"677 256 OFFCURVE",
"670 263 OFFCURVE",
"663 263 CURVE SMOOTH",
"649 263 OFFCURVE",
"647 253 OFFCURVE",
"647 253 CURVE"
);
},
{
closed = 1;
nodes = (
"704 282 OFFCURVE",
"695 309 OFFCURVE",
"695 327 CURVE SMOOTH",
"695 352 OFFCURVE",
"709 361 OFFCURVE",
"727 361 CURVE SMOOTH",
"740 361 OFFCURVE",
"744 356 OFFCURVE",
"744 349 CURVE SMOOTH",
"744 343 OFFCURVE",
"740 340 OFFCURVE",
"732 335 CURVE SMOOTH",
"722 331 OFFCURVE",
"729 316 OFFCURVE",
"743 316 CURVE SMOOTH",
"768 316 OFFCURVE",
"770 347 OFFCURVE",
"770 347 CURVE",
"821 347 LINE",
"821 347 OFFCURVE",
"818 282 OFFCURVE",
"752 282 CURVE SMOOTH"
);
}
);
width = 876;
}
);
unicode = 0061;
},
{
glyphname = b;
lastChange = "2020-01-11 11:02:53 +0000";
layers = (
{
guideLines = (
{
angle = 90;
position = "{267, 166}";
},
{
position = "{354, 253}";
}
);
layerId = "A1B629DE-12A3-463D-9110-6FB76C8F6166";
paths = (
{
closed = 1;
nodes = (
"350 103 OFFCURVE",
"418 170 OFFCURVE",
"418 253 CURVE",
"418 336 OFFCURVE",
"350 405 OFFCURVE",
"267 405 CURVE",
"184 405 OFFCURVE",
"117 336 OFFCURVE",
"117 253 CURVE",
"117 170 OFFCURVE",
"184 103 OFFCURVE",
"267 103 CURVE"
);
},
{
closed = 1;
nodes = (
"109 57 OFFCURVE",
"142 56 OFFCURVE",
"162 76 CURVE SMOOTH",
"181 95 OFFCURVE",
"181 127 OFFCURVE",
"162 148 CURVE",
"142 168 OFFCURVE",
"109 166 OFFCURVE",
"91 148 CURVE SMOOTH",
"70 127 OFFCURVE",
"72 96 OFFCURVE",
"91 76 CURVE SMOOTH"
);
},
{
closed = 1;
nodes = (
"103 105 OFFCURVE",
"102 118 OFFCURVE",
"111 128 CURVE",
"119 136 OFFCURVE",
"133 136 OFFCURVE",
"141 128 CURVE SMOOTH",
"150 118 OFFCURVE",
"150 105 OFFCURVE",
"141 97 CURVE SMOOTH",
"132 89 OFFCURVE",
"119 89 OFFCURVE",
"111 97 CURVE SMOOTH"
);
},
{
closed = 1;
nodes = (
"294 4 OFFCURVE",
"317 28 OFFCURVE",
"317 54 CURVE SMOOTH",
"317 83 OFFCURVE",
"293 106 OFFCURVE",
"267 105 CURVE",
"238 105 OFFCURVE",
"216 82 OFFCURVE",
"216 55 CURVE SMOOTH",
"216 28 OFFCURVE",
"238 4 OFFCURVE",
"267 4 CURVE"
);
},
{
closed = 1;
nodes = (
"255 34 OFFCURVE",
"245 43 OFFCURVE",
"245 55 CURVE SMOOTH",
"245 66 OFFCURVE",
"254 77 OFFCURVE",
"267 77 CURVE SMOOTH",
"279 77 OFFCURVE",
"288 67 OFFCURVE",
"288 55 CURVE SMOOTH",
"288 42 OFFCURVE",
"279 34 OFFCURVE",
"267 34 CURVE SMOOTH"
);
},
{
closed = 1;
nodes = (
"199 133 OFFCURVE",
"145 186 OFFCURVE",
"145 253 CURVE",
"145 322 OFFCURVE",
"199 375 OFFCURVE",
"267 375 CURVE",
"334 375 OFFCURVE",
"387 322 OFFCURVE",
"387 253 CURVE",
"387 186 OFFCURVE",
"334 133 OFFCURVE",
"267 133 CURVE"
);
},
{
closed = 1;
nodes = (
"316 166 OFFCURVE",
"354 205 OFFCURVE",
"354 253 CURVE",
"354 301 OFFCURVE",
"316 340 OFFCURVE",
"267 340 CURVE",
"219 340 OFFCURVE",
"180 301 OFFCURVE",
"180 253 CURVE",
"180 205 OFFCURVE",
"219 166 OFFCURVE",
"267 166 CURVE"
);
},
{
closed = 1;
nodes = (
"494 202 OFFCURVE",
"517 226 OFFCURVE",
"517 252 CURVE SMOOTH",
"517 281 OFFCURVE",
"493 304 OFFCURVE",
"467 303 CURVE",
"438 303 OFFCURVE",
"416 280 OFFCURVE",
"416 253 CURVE SMOOTH",
"416 226 OFFCURVE",
"438 202 OFFCURVE",
"467 202 CURVE"
);
},
{
closed = 1;
nodes = (
"455 232 OFFCURVE",
"445 241 OFFCURVE",
"445 253 CURVE SMOOTH",
"445 264 OFFCURVE",
"454 275 OFFCURVE",
"467 275 CURVE SMOOTH",
"479 275 OFFCURVE",
"488 265 OFFCURVE",
"488 253 CURVE SMOOTH",
"488 240 OFFCURVE",
"479 232 OFFCURVE",
"467 232 CURVE"
);
},
{
closed = 1;
nodes = (
"294 403 OFFCURVE",
"317 427 OFFCURVE",
"317 453 CURVE SMOOTH",
"317 482 OFFCURVE",
"293 505 OFFCURVE",
"267 504 CURVE",
"238 504 OFFCURVE",
"216 481 OFFCURVE",
"216 454 CURVE SMOOTH",
"216 427 OFFCURVE",
"238 403 OFFCURVE",
"267 403 CURVE"
);
},
{
closed = 1;
nodes = (
"255 433 OFFCURVE",
"245 442 OFFCURVE",
"245 454 CURVE SMOOTH",
"245 465 OFFCURVE",
"254 476 OFFCURVE",
"267 476 CURVE SMOOTH",
"279 476 OFFCURVE",
"288 466 OFFCURVE",
"288 454 CURVE SMOOTH",
"288 441 OFFCURVE",
"279 433 OFFCURVE",
"267 433 CURVE SMOOTH"
);
},
{
closed = 1;
nodes = (
"98 203 OFFCURVE",
"121 227 OFFCURVE",
"121 253 CURVE SMOOTH",
"121 282 OFFCURVE",
"97 305 OFFCURVE",
"71 304 CURVE",
"42 304 OFFCURVE",
"20 281 OFFCURVE",
"20 254 CURVE SMOOTH",
"20 227 OFFCURVE",
"42 203 OFFCURVE",
"71 203 CURVE"
);
},
{
closed = 1;
nodes = (
"59 233 OFFCURVE",
"49 242 OFFCURVE",
"49 254 CURVE SMOOTH",
"49 265 OFFCURVE",
"58 276 OFFCURVE",
"71 276 CURVE SMOOTH",
"83 276 OFFCURVE",
"92 266 OFFCURVE",
"92 254 CURVE SMOOTH",
"92 241 OFFCURVE",
"83 233 OFFCURVE",
"71 233 CURVE"
);
},
{
closed = 1;
nodes = (
"109 340 OFFCURVE",
"142 339 OFFCURVE",
"162 359 CURVE SMOOTH",
"181 378 OFFCURVE",
"181 410 OFFCURVE",
"162 431 CURVE",
"142 451 OFFCURVE",
"109 449 OFFCURVE",
"91 431 CURVE SMOOTH",
"70 410 OFFCURVE",
"72 379 OFFCURVE",
"91 359 CURVE SMOOTH"
);
},
{
closed = 1;
nodes = (
"103 388 OFFCURVE",
"102 401 OFFCURVE",
"111 411 CURVE",
"119 419 OFFCURVE",
"133 419 OFFCURVE",
"141 411 CURVE",
"151 401 OFFCURVE",
"150 388 OFFCURVE",
"141 380 CURVE SMOOTH",
"132 372 OFFCURVE",
"119 372 OFFCURVE",
"111 380 CURVE SMOOTH"
);
},
{
closed = 1;
nodes = (
"390 57 OFFCURVE",
"423 56 OFFCURVE",
"443 76 CURVE SMOOTH",
"462 95 OFFCURVE",
"462 127 OFFCURVE",
"443 148 CURVE",
"423 168 OFFCURVE",
"390 166 OFFCURVE",
"372 148 CURVE SMOOTH",
"351 127 OFFCURVE",
"353 96 OFFCURVE",
"372 76 CURVE SMOOTH"
);
},
{
closed = 1;
nodes = (
"384 105 OFFCURVE",
"383 118 OFFCURVE",
"392 128 CURVE",
"400 136 OFFCURVE",
"414 136 OFFCURVE",
"422 128 CURVE SMOOTH",
"432 118 OFFCURVE",
"431 105 OFFCURVE",
"422 97 CURVE SMOOTH",
"413 89 OFFCURVE",
"400 89 OFFCURVE",
"392 97 CURVE SMOOTH"
);
},
{
closed = 1;
nodes = (
"389 340 OFFCURVE",
"422 339 OFFCURVE",
"442 359 CURVE SMOOTH",
"461 378 OFFCURVE",
"461 410 OFFCURVE",
"442 431 CURVE",
"422 451 OFFCURVE",
"389 449 OFFCURVE",
"371 431 CURVE SMOOTH",
"350 410 OFFCURVE",
"352 379 OFFCURVE",
"371 359 CURVE SMOOTH"
);
},
{
closed = 1;
nodes = (
"383 388 OFFCURVE",
"382 401 OFFCURVE",
"391 411 CURVE",
"399 419 OFFCURVE",
"413 419 OFFCURVE",
"421 411 CURVE",
"431 401 OFFCURVE",
"430 388 OFFCURVE",
"421 380 CURVE SMOOTH",
"412 372 OFFCURVE",
"399 372 OFFCURVE",
"391 380 CURVE SMOOTH"
);
}
);
width = 537;
}
);
unicode = 0062;
},
{
glyphname = c;
lastChange = "2021-02-18 15:33:11 +0000";
layers = (
{
guideLines = (
{
angle = 90;
position = "{234, 158}";
},
{
angle = 90;
position = "{287, 158}";
},
{
position = "{260, 349}";
},
{
angle = 90;
position = "{182, 355}";
},
{
position = "{182, 354}";
},
{
angle = 90;
position = "{337, 228}";
}
);
layerId = "A1B629DE-12A3-463D-9110-6FB76C8F6166";
paths = (
{
closed = 1;
nodes = (
"296 7 LINE",
"346 57 LINE",
"346 129 LINE",
"376 159 LINE",
"447 159 LINE",
"500 211 LINE",
"500 282 LINE",
"447 333 LINE",
"376 333 LINE",
"346 362 LINE",
"346 435 LINE",
"296 485 LINE",
"224 485 LINE",
"174 435 LINE",
"174 362 LINE",
"143 332 LINE",
"72 332 LINE",
"20 282 LINE",
"20 210 LINE",
"72 159 LINE",
"143 159 LINE",
"174 129 LINE",
"173 129 LINE",
"173 57 LINE",
"224 7 LINE"
);
},
{
closed = 1;
nodes = (
"282 39 LINE",
"314 71 LINE",
"314 117 LINE",
"282 149 LINE",
"237 149 LINE",
"204 117 LINE",
"204 71 LINE",
"237 39 LINE"
);
},
{
closed = 1;
nodes = (
"37 215 LINE",
"37 274 LINE",
"79 316 LINE",
"137 316 LINE",
"179 274 LINE",
"179 215 LINE",
"137 175 LINE",
"79 175 LINE"
);
},
{
closed = 1;
nodes = (
"130 191 LINE",
"162 223 LINE",
"162 269 LINE",
"130 300 LINE",
"85 300 LINE",
"52 269 LINE",
"52 223 LINE",
"85 191 LINE"
);
},
{
closed = 1;
nodes = (
"130 191 LINE",
"162 223 LINE",
"162 269 LINE",
"130 300 LINE",
"85 300 LINE",
"52 269 LINE",
"52 223 LINE",
"85 191 LINE"
);
},
{
closed = 1;
nodes = (
"158 170 LINE",
"185 196 LINE",
"211 169 LINE",
"185 143 LINE"
);
},
{
closed = 1;
nodes = (
"189 65 LINE",
"189 124 LINE",
"230 165 LINE",
"288 165 LINE",
"330 124 LINE",
"330 65 LINE",
"288 24 LINE",
"230 24 LINE"
);
},
{
closed = 1;
nodes = (
"307 170 LINE",
"334 196 LINE",
"361 169 LINE",
"334 143 LINE"
);
},
{
closed = 1;
nodes = (
"194 210 LINE",
"194 282 LINE",
"224 312 LINE",
"296 312 LINE",
"325 283 LINE",
"325 210 LINE",
"296 180 LINE",
"224 180 LINE"
);
},
{
closed = 1;
nodes = (
"158 323 LINE",
"185 349 LINE",
"211 322 LINE",
"185 296 LINE"
);
},
{
closed = 1;
nodes = (
"307 323 LINE",
"334 349 LINE",
"361 322 LINE",
"334 296 LINE"
);
},
{
closed = 1;
nodes = (
"341 216 LINE",
"341 275 LINE",
"383 316 LINE",
"441 316 LINE",
"482 275 LINE",
"482 216 LINE",
"441 176 LINE",
"383 176 LINE"
);
},
{
closed = 1;
nodes = (
"435 191 LINE",
"467 223 LINE",
"467 269 LINE",
"435 300 LINE",
"390 300 LINE",
"357 269 LINE",
"357 223 LINE",
"390 191 LINE"
);
},
{
closed = 1;
nodes = (
"189 369 LINE",
"189 427 LINE",
"230 469 LINE",
"288 469 LINE",
"330 427 LINE",
"330 369 LINE",
"288 327 LINE",
"230 327 LINE"
);
},
{
closed = 1;
nodes = (
"282 344 LINE",
"314 375 LINE",
"314 420 LINE",
"282 453 LINE",
"237 453 LINE",
"206 420 LINE",
"206 375 LINE",
"237 344 LINE"
);
}
);
width = 520;
}
);
unicode = 0063;
},
{
glyphname = d;
lastChange = "2021-02-22 15:43:29 +0000";
layers = (
{
guideLines = (
{
angle = 270;
position = "{352, -62}";
}
);
layerId = "A1B629DE-12A3-463D-9110-6FB76C8F6166";
paths = (
{
closed = 1;
nodes = (
"10 95 OFFCURVE",
"37 66 OFFCURVE",
"69 66 CURVE SMOOTH",
"124 66 OFFCURVE",
"119 153 OFFCURVE",
"69 153 CURVE SMOOTH",
"50 153 OFFCURVE",
"50 129 OFFCURVE",
"69 129 CURVE SMOOTH",
"102 129 OFFCURVE",
"103 88 OFFCURVE",
"68 88 CURVE SMOOTH",
"55 88 OFFCURVE",
"29 101 OFFCURVE",
"29 136 CURVE SMOOTH",
"29 169 OFFCURVE",
"50 189 OFFCURVE",
"78 189 CURVE SMOOTH",
"109 189 OFFCURVE",
"124 166 OFFCURVE",
"143 137 CURVE",
"132 126 OFFCURVE",
"124 112 OFFCURVE",
"124 97 CURVE SMOOTH",
"124 62 OFFCURVE",
"159 60 OFFCURVE",
"168 70 CURVE SMOOTH",
"174 77 OFFCURVE",
"167 90 OFFCURVE",
"159 82 CURVE SMOOTH",
"148 71 OFFCURVE",
"138 85 OFFCURVE",
"138 97 CURVE SMOOTH",
"138 110 OFFCURVE",
"143 121 OFFCURVE",
"150 127 CURVE",
"166 103 LINE SMOOTH",
"192 64 OFFCURVE",
"239 -7 OFFCURVE",
"285 -7 CURVE SMOOTH",
"310 -7 OFFCURVE",
"346 6 OFFCURVE",
"346 55 CURVE SMOOTH",
"346 96 OFFCURVE",
"319 121 OFFCURVE",
"285 121 CURVE SMOOTH",
"239 121 OFFCURVE",
"225 59 OFFCURVE",
"260 42 CURVE SMOOTH",
"262 41 OFFCURVE",
"262 40 OFFCURVE",
"259 41 CURVE SMOOTH",
"202 60 OFFCURVE",
"221 188 OFFCURVE",
"267 147 CURVE SMOOTH",
"285 131 OFFCURVE",
"300 151 OFFCURVE",
"281 165 CURVE SMOOTH",
"270 173 OFFCURVE",
"258 178 OFFCURVE",
"244 178 CURVE",
"275 189 OFFCURVE",
"298 204 OFFCURVE",
"298 225 CURVE",
"335 225 OFFCURVE",
"331 118 OFFCURVE",
"331 118 CURVE",
"343 118 OFFCURVE",
"349 99 OFFCURVE",
"352 91 CURVE",
"355 99 OFFCURVE",
"361 118 OFFCURVE",
"373 118 CURVE",
"373 118 OFFCURVE",
"369 225 OFFCURVE",
"406 225 CURVE",
"406 204 OFFCURVE",
"429 189 OFFCURVE",
"460 178 CURVE",
"446 178 OFFCURVE",
"434 173 OFFCURVE",
"423 165 CURVE SMOOTH",
"404 151 OFFCURVE",
"419 131 OFFCURVE",
"437 147 CURVE SMOOTH",
"483 188 OFFCURVE",
"502 60 OFFCURVE",
"445 41 CURVE SMOOTH",
"442 40 OFFCURVE",
"442 41 OFFCURVE",
"444 42 CURVE SMOOTH",
"479 59 OFFCURVE",
"465 121 OFFCURVE",
"419 121 CURVE SMOOTH",
"385 121 OFFCURVE",
"358 96 OFFCURVE",
"358 55 CURVE SMOOTH",
"358 6 OFFCURVE",
"394 -7 OFFCURVE",
"419 -7 CURVE SMOOTH",
"465 -7 OFFCURVE",
"512 64 OFFCURVE",
"538 103 CURVE SMOOTH",
"554 127 LINE",
"561 121 OFFCURVE",
"566 110 OFFCURVE",
"566 97 CURVE SMOOTH",
"566 85 OFFCURVE",
"556 71 OFFCURVE",
"545 82 CURVE SMOOTH",
"537 90 OFFCURVE",
"530 77 OFFCURVE",
"536 70 CURVE SMOOTH",
"545 60 OFFCURVE",
"580 62 OFFCURVE",
"580 97 CURVE SMOOTH",
"580 112 OFFCURVE",
"572 126 OFFCURVE",
"561 137 CURVE",
"580 166 OFFCURVE",
"595 189 OFFCURVE",
"626 189 CURVE SMOOTH",
"654 189 OFFCURVE",
"675 169 OFFCURVE",
"675 136 CURVE SMOOTH",
"675 101 OFFCURVE",
"649 88 OFFCURVE",
"636 88 CURVE SMOOTH",
"601 88 OFFCURVE",
"602 129 OFFCURVE",
"635 129 CURVE SMOOTH",
"654 129 OFFCURVE",
"654 153 OFFCURVE",
"635 153 CURVE SMOOTH",
"585 153 OFFCURVE",
"580 66 OFFCURVE",
"635 66 CURVE SMOOTH",
"667 66 OFFCURVE",
"694 95 OFFCURVE",
"694 136 CURVE SMOOTH",
"694 189 OFFCURVE",
"661 210 OFFCURVE",
"626 210 CURVE SMOOTH",
"586 210 OFFCURVE",
"566 182 OFFCURVE",
"547 151 CURVE",
"512 179 OFFCURVE",
"460 199 OFFCURVE",
"460 210 CURVE",
"460 210 OFFCURVE",
"507 182 OFFCURVE",
"522 222 CURVE",
"578 222 LINE SMOOTH",
"583 222 OFFCURVE",
"585 220 OFFCURVE",
"585 217 CURVE",
"585 217 OFFCURVE",
"646 215 OFFCURVE",
"646 229 CURVE SMOOTH",
"646 233 OFFCURVE",
"649 233 OFFCURVE",
"649 229 CURVE SMOOTH",
"649 222 OFFCURVE",
"667 222 OFFCURVE",
"667 236 CURVE SMOOTH",
"667 250 OFFCURVE",
"649 250 OFFCURVE",
"649 243 CURVE SMOOTH",
"649 239 OFFCURVE",
"646 239 OFFCURVE",
"646 243 CURVE SMOOTH",
"646 257 OFFCURVE",
"585 255 OFFCURVE",
"585 255 CURVE",
"585 252 OFFCURVE",
"583 250 OFFCURVE",
"578 250 CURVE SMOOTH",
"522 250 LINE",
"507 290 OFFCURVE",
"460 262 OFFCURVE",
"460 262 CURVE",
"460 273 OFFCURVE",
"512 293 OFFCURVE",
"547 321 CURVE",
"566 290 OFFCURVE",
"586 262 OFFCURVE",
"626 262 CURVE SMOOTH",
"661 262 OFFCURVE",
"694 283 OFFCURVE",
"694 336 CURVE SMOOTH",
"694 377 OFFCURVE",
"667 406 OFFCURVE",
"635 406 CURVE SMOOTH",
"580 406 OFFCURVE",
"585 319 OFFCURVE",
"635 319 CURVE SMOOTH",
"654 319 OFFCURVE",
"654 343 OFFCURVE",
"635 343 CURVE SMOOTH",
"602 343 OFFCURVE",
"601 384 OFFCURVE",
"636 384 CURVE SMOOTH",
"649 384 OFFCURVE",
"675 371 OFFCURVE",
"675 336 CURVE SMOOTH",
"675 303 OFFCURVE",
"654 283 OFFCURVE",
"626 283 CURVE SMOOTH",
"595 283 OFFCURVE",
"580 306 OFFCURVE",
"561 335 CURVE",
"572 346 OFFCURVE",
"580 360 OFFCURVE",
"580 375 CURVE SMOOTH",
"580 410 OFFCURVE",
"545 412 OFFCURVE",
"536 402 CURVE SMOOTH",
"530 395 OFFCURVE",
"537 382 OFFCURVE",
"545 390 CURVE SMOOTH",
"556 401 OFFCURVE",
"566 387 OFFCURVE",
"566 375 CURVE SMOOTH",
"566 362 OFFCURVE",
"561 351 OFFCURVE",
"554 345 CURVE",
"538 369 LINE SMOOTH",
"512 408 OFFCURVE",
"465 479 OFFCURVE",
"419 479 CURVE SMOOTH",
"394 479 OFFCURVE",
"358 466 OFFCURVE",
"358 417 CURVE SMOOTH",
"358 376 OFFCURVE",
"385 351 OFFCURVE",
"419 351 CURVE SMOOTH",
"465 351 OFFCURVE",
"479 413 OFFCURVE",
"444 430 CURVE SMOOTH",
"442 431 OFFCURVE",
"442 432 OFFCURVE",
"445 431 CURVE SMOOTH",
"502 412 OFFCURVE",
"483 284 OFFCURVE",
"437 325 CURVE SMOOTH",
"419 341 OFFCURVE",
"404 321 OFFCURVE",
"423 307 CURVE SMOOTH",
"434 299 OFFCURVE",
"446 294 OFFCURVE",
"460 294 CURVE",
"429 283 OFFCURVE",
"406 268 OFFCURVE",
"406 247 CURVE",
"369 247 OFFCURVE",
"373 354 OFFCURVE",
"373 354 CURVE",
"361 354 OFFCURVE",
"355 373 OFFCURVE",
"352 381 CURVE",
"349 373 OFFCURVE",
"343 354 OFFCURVE",
"331 354 CURVE",
"331 354 OFFCURVE",
"335 247 OFFCURVE",
"298 247 CURVE",
"298 268 OFFCURVE",
"275 283 OFFCURVE",
"244 294 CURVE",
"258 294 OFFCURVE",
"270 299 OFFCURVE",
"281 307 CURVE SMOOTH",
"300 321 OFFCURVE",
"285 341 OFFCURVE",
"267 325 CURVE SMOOTH",
"221 284 OFFCURVE",
"202 412 OFFCURVE",
"259 431 CURVE SMOOTH",
"262 432 OFFCURVE",
"262 431 OFFCURVE",
"260 430 CURVE SMOOTH",
"225 413 OFFCURVE",
"239 351 OFFCURVE",
"285 351 CURVE SMOOTH",
"319 351 OFFCURVE",
"346 376 OFFCURVE",
"346 417 CURVE SMOOTH",
"346 466 OFFCURVE",
"310 479 OFFCURVE",
"285 479 CURVE SMOOTH",
"239 479 OFFCURVE",
"192 408 OFFCURVE",
"166 369 CURVE SMOOTH",
"150 345 LINE",
"143 351 OFFCURVE",
"138 362 OFFCURVE",
"138 375 CURVE SMOOTH",
"138 387 OFFCURVE",
"148 401 OFFCURVE",
"159 390 CURVE SMOOTH",
"167 382 OFFCURVE",
"174 395 OFFCURVE",
"168 402 CURVE SMOOTH",
"159 412 OFFCURVE",
"124 410 OFFCURVE",
"124 375 CURVE SMOOTH",
"124 360 OFFCURVE",
"132 346 OFFCURVE",
"143 335 CURVE",
"124 306 OFFCURVE",
"109 283 OFFCURVE",
"78 283 CURVE SMOOTH",
"50 283 OFFCURVE",
"29 303 OFFCURVE",
"29 336 CURVE SMOOTH",
"29 371 OFFCURVE",
"55 384 OFFCURVE",
"68 384 CURVE SMOOTH",
"103 384 OFFCURVE",
"102 343 OFFCURVE",
"69 343 CURVE SMOOTH",
"50 343 OFFCURVE",
"50 319 OFFCURVE",
"69 319 CURVE SMOOTH",
"119 319 OFFCURVE",
"124 406 OFFCURVE",
"69 406 CURVE SMOOTH",
"37 406 OFFCURVE",
"10 377 OFFCURVE",
"10 336 CURVE SMOOTH",
"10 283 OFFCURVE",
"43 262 OFFCURVE",
"78 262 CURVE SMOOTH",
"118 262 OFFCURVE",
"138 290 OFFCURVE",
"157 321 CURVE",
"192 293 OFFCURVE",
"244 273 OFFCURVE",
"244 262 CURVE",
"244 262 OFFCURVE",
"197 290 OFFCURVE",
"182 250 CURVE",
"126 250 LINE SMOOTH",
"121 250 OFFCURVE",
"119 252 OFFCURVE",
"119 255 CURVE",
"119 255 OFFCURVE",
"58 257 OFFCURVE",
"58 243 CURVE SMOOTH",
"58 239 OFFCURVE",
"55 239 OFFCURVE",
"55 243 CURVE SMOOTH",
"55 250 OFFCURVE",
"37 250 OFFCURVE",
"37 236 CURVE SMOOTH",
"37 222 OFFCURVE",
"55 222 OFFCURVE",
"55 229 CURVE SMOOTH",
"55 233 OFFCURVE",
"58 233 OFFCURVE",
"58 229 CURVE SMOOTH",
"58 215 OFFCURVE",
"119 217 OFFCURVE",
"119 217 CURVE",
"119 220 OFFCURVE",
"121 222 OFFCURVE",
"126 222 CURVE SMOOTH",
"182 222 LINE",
"197 182 OFFCURVE",
"244 210 OFFCURVE",
"244 210 CURVE",
"244 199 OFFCURVE",
"192 179 OFFCURVE",
"157 151 CURVE",
"138 182 OFFCURVE",
"118 210 OFFCURVE",
"78 210 CURVE SMOOTH",
"43 210 OFFCURVE",
"10 189 OFFCURVE",
"10 136 CURVE SMOOTH"
);
},
{
closed = 1;
nodes = (
"182 151 OFFCURVE",
"204 161 OFFCURVE",
"224 168 CURVE",
"215 161 OFFCURVE",
"208 141 OFFCURVE",
"208 114 CURVE SMOOTH",
"208 66 OFFCURVE",
"239 35 OFFCURVE",
"281 35 CURVE SMOOTH",
"302 35 OFFCURVE",
"310 58 OFFCURVE",
"282 58 CURVE SMOOTH",
"248 58 OFFCURVE",
"251 100 OFFCURVE",
"285 100 CURVE SMOOTH",
"301 100 OFFCURVE",
"329 91 OFFCURVE",
"329 55 CURVE SMOOTH",
"329 32 OFFCURVE",
"318 13 OFFCURVE",
"285 13 CURVE SMOOTH",
"250 13 OFFCURVE",
"211 73 OFFCURVE",
"178 117 CURVE SMOOTH",
"163 137 LINE"
);
},
{
closed = 1;
nodes = (
"178 355 LINE SMOOTH",
"211 399 OFFCURVE",
"250 459 OFFCURVE",
"285 459 CURVE SMOOTH",
"318 459 OFFCURVE",
"329 440 OFFCURVE",
"329 417 CURVE SMOOTH",
"329 381 OFFCURVE",
"301 372 OFFCURVE",
"285 372 CURVE SMOOTH",
"251 372 OFFCURVE",
"248 414 OFFCURVE",
"282 414 CURVE SMOOTH",
"310 414 OFFCURVE",
"302 437 OFFCURVE",
"281 437 CURVE SMOOTH",
"239 437 OFFCURVE",
"208 406 OFFCURVE",
"208 358 CURVE SMOOTH",
"208 331 OFFCURVE",
"215 311 OFFCURVE",
"224 304 CURVE",
"204 311 OFFCURVE",
"182 321 OFFCURVE",
"163 335 CURVE"
);
},
{
closed = 1;
nodes = (
"336 239 OFFCURVE",
"337 252 OFFCURVE",
"352 253 CURVE",
"367 252 OFFCURVE",
"368 239 OFFCURVE",
"368 236 CURVE SMOOTH",
"368 233 OFFCURVE",
"367 220 OFFCURVE",
"352 219 CURVE",
"337 220 OFFCURVE",
"336 233 OFFCURVE",
"336 236 CURVE SMOOTH"
);
},
{
closed = 1;
nodes = (
"375 440 OFFCURVE",
"386 459 OFFCURVE",
"419 459 CURVE SMOOTH",
"454 459 OFFCURVE",
"493 399 OFFCURVE",
"526 355 CURVE SMOOTH",
"541 335 LINE",
"522 321 OFFCURVE",
"500 311 OFFCURVE",
"480 304 CURVE",
"489 311 OFFCURVE",
"496 331 OFFCURVE",
"496 358 CURVE SMOOTH",
"496 406 OFFCURVE",
"465 437 OFFCURVE",
"423 437 CURVE SMOOTH",
"402 437 OFFCURVE",
"394 414 OFFCURVE",
"422 414 CURVE SMOOTH",
"456 414 OFFCURVE",
"453 372 OFFCURVE",
"419 372 CURVE SMOOTH",
"403 372 OFFCURVE",
"375 381 OFFCURVE",
"375 417 CURVE SMOOTH"
);
},
{
closed = 1;
nodes = (
"376 91 OFFCURVE",
"404 100 OFFCURVE",
"420 100 CURVE SMOOTH",
"454 100 OFFCURVE",
"457 58 OFFCURVE",
"423 58 CURVE SMOOTH",
"395 58 OFFCURVE",
"403 35 OFFCURVE",
"424 35 CURVE SMOOTH",
"466 35 OFFCURVE",
"497 66 OFFCURVE",
"497 114 CURVE SMOOTH",
"497 141 OFFCURVE",
"490 161 OFFCURVE",
"481 168 CURVE",
"501 161 OFFCURVE",
"523 151 OFFCURVE",
"542 137 CURVE",
"527 117 LINE SMOOTH",
"494 73 OFFCURVE",
"455 13 OFFCURVE",
"420 13 CURVE SMOOTH",
"387 13 OFFCURVE",
"376 32 OFFCURVE",
"376 55 CURVE SMOOTH"
);
}
);
width = 704;
}
);
unicode = 0064;
},
{
glyphname = e;
lastChange = "2020-01-15 16:59:16 +0000";
layers = (
{
guideLines = (
{
angle = 90;
position = "{276, 444}";
},
{
position = "{273, 241}";
}
);
layerId = "A1B629DE-12A3-463D-9110-6FB76C8F6166";
paths = (
{
closed = 1;
nodes = (
"539 251 LINE",
"276 518 LINE",
"10 251 LINE",
"276 -10 LINE"
);
},
{
closed = 1;
nodes = (
"49 249 LINE",
"276 478 LINE",
"499 251 LINE",
"274 26 LINE"
);
},
{
closed = 1;
nodes = (
"262 227 OFFCURVE",
"250 237 OFFCURVE",
"250 251 CURVE",
"250 267 OFFCURVE",
"262 277 OFFCURVE",
"276 277 CURVE",
"290 277 OFFCURVE",
"302 267 OFFCURVE",
"302 251 CURVE",
"302 237 OFFCURVE",
"290 227 OFFCURVE",
"276 227 CURVE"
);
},
{
closed = 1;
nodes = (
"315 366 OFFCURVE",
"338 322 OFFCURVE",
"307 286 CURVE",
"342 313 OFFCURVE",
"390 287 OFFCURVE",
"431 253 CURVE",
"392 218 OFFCURVE",
"344 188 OFFCURVE",
"309 219 CURVE",
"333 190 OFFCURVE",
"320 147 OFFCURVE",
"275 94 CURVE",
"235 138 OFFCURVE",
"212 181 OFFCURVE",
"243 217 CURVE",
"208 191 OFFCURVE",
"162 215 OFFCURVE",
"119 250 CURVE",
"158 285 OFFCURVE",
"206 316 OFFCURVE",
"242 284 CURVE",
"217 315 OFFCURVE",
"230 357 OFFCURVE",
"274 410 CURVE"
);
},
{
closed = 1;
nodes = (
"229 398 OFFCURVE",
"202 361 OFFCURVE",
"202 325 CURVE",
"165 323 OFFCURVE",
"139 304 OFFCURVE",
"77 250 CURVE",
"136 200 OFFCURVE",
"166 182 OFFCURVE",
"202 178 CURVE",
"202 142 OFFCURVE",
"225 108 OFFCURVE",
"276 53 CURVE",
"330 113 OFFCURVE",
"339 132 OFFCURVE",
"349 178 CURVE",
"385 180 OFFCURVE",
"411 200 OFFCURVE",
"473 253 CURVE",
"414 304 OFFCURVE",
"384 321 OFFCURVE",
"349 325 CURVE",
"349 358 OFFCURVE",
"327 390 OFFCURVE",
"274 451 CURVE"
);
}
);
width = 549;
}
);
unicode = 0065;
},
{
glyphname = f;
lastChange = "2021-02-22 15:43:39 +0000";
layers = (
{
guideLines = (
{
position = "{341, 529}";
},
{
position = "{221, -42}";
}
);
layerId = "A1B629DE-12A3-463D-9110-6FB76C8F6166";
paths = (
{
closed = 1;
nodes = (
"65 187 OFFCURVE",
"55 212 OFFCURVE",
"68 212 CURVE SMOOTH",
"91 212 OFFCURVE",
"115 176 OFFCURVE",
"115 112 CURVE",
"92 112 OFFCURVE",
"81 111 OFFCURVE",
"85 130 CURVE SMOOTH",
"89 147 OFFCURVE",
"67 147 OFFCURVE",
"67 130 CURVE SMOOTH",
"67 125 OFFCURVE",
"69 117 OFFCURVE",
"85 103 CURVE SMOOTH",
"119 76 OFFCURVE",
"82 -13 OFFCURVE",
"159 -13 CURVE SMOOTH",
"190 -13 OFFCURVE",
"121 51 OFFCURVE",
"158 51 CURVE SMOOTH",
"162 51 OFFCURVE",
"163 112 OFFCURVE",
"163 158 CURVE SMOOTH",
"163 290 OFFCURVE",
"115 312 OFFCURVE",
"147 312 CURVE SMOOTH",
"160 312 OFFCURVE",
"173 316 OFFCURVE",
"178 323 CURVE",
"178 -13 LINE",
"212 -13 LINE",
"212 323 LINE",
"216 316 OFFCURVE",
"229 312 OFFCURVE",
"242 312 CURVE SMOOTH",
"274 312 OFFCURVE",
"226 290 OFFCURVE",
"226 158 CURVE SMOOTH",
"226 112 OFFCURVE",
"227 51 OFFCURVE",
"231 51 CURVE SMOOTH",
"268 51 OFFCURVE",
"199 -13 OFFCURVE",
"230 -13 CURVE SMOOTH",
"306 -13 OFFCURVE",
"270 76 OFFCURVE",
"303 103 CURVE SMOOTH",
"320 117 OFFCURVE",
"322 125 OFFCURVE",
"322 130 CURVE SMOOTH",
"322 147 OFFCURVE",
"299 147 OFFCURVE",
"303 130 CURVE SMOOTH",
"309 111 OFFCURVE",
"297 112 OFFCURVE",
"274 112 CURVE",
"274 176 OFFCURVE",
"298 212 OFFCURVE",
"321 212 CURVE SMOOTH",
"334 212 OFFCURVE",
"323 187 OFFCURVE",
"346 187 CURVE SMOOTH",
"379 187 OFFCURVE",
"377 237 OFFCURVE",
"331 238 CURVE SMOOTH",
"280 239 OFFCURVE",
"250 124 OFFCURVE",
"243 124 CURVE",
"243 187 OFFCURVE",
"343 303 OFFCURVE",
"343 395 CURVE SMOOTH",
"343 475 OFFCURVE",
"306 522 OFFCURVE",
"248 522 CURVE SMOOTH",
"209 522 OFFCURVE",
"202 483 OFFCURVE",
"217 483 CURVE SMOOTH",
"229 483 OFFCURVE",
"207 454 OFFCURVE",
"222 454 CURVE SMOOTH",
"240 454 OFFCURVE",
"222 425 OFFCURVE",
"231 409 CURVE SMOOTH",
"244 390 OFFCURVE",
"233 393 OFFCURVE",
"233 380 CURVE SMOOTH",
"233 361 OFFCURVE",
"298 364 OFFCURVE",
"274 404 CURVE SMOOTH",
"268 416 OFFCURVE",
"254 422 OFFCURVE",
"249 437 CURVE SMOOTH",
"243 457 OFFCURVE",
"259 460 OFFCURVE",
"278 457 CURVE SMOOTH",
"350 440 OFFCURVE",
"248 213 OFFCURVE",
"248 213 CURVE",
"248 273 OFFCURVE",
"299 358 OFFCURVE",
"238 358 CURVE SMOOTH",
"229 358 OFFCURVE",
"216 354 OFFCURVE",
"212 351 CURVE",
"212 446 LINE",
"212 446 OFFCURVE",
"206 453 OFFCURVE",
"206 457 CURVE",
"206 457 OFFCURVE",
"212 460 OFFCURVE",
"212 467 CURVE SMOOTH",
"212 476 OFFCURVE",
"203 481 OFFCURVE",
"200 481 CURVE SMOOTH",
"200 481 OFFCURVE",
"196 505 OFFCURVE",
"208 509 CURVE SMOOTH",
"223 513 OFFCURVE",
"210 549 OFFCURVE",
"194 549 CURVE",
"177 549 OFFCURVE",
"168 511 OFFCURVE",
"181 509 CURVE SMOOTH",
"192 506 OFFCURVE",
"189 481 OFFCURVE",
"189 481 CURVE SMOOTH",
"186 481 OFFCURVE",
"177 476 OFFCURVE",
"177 467 CURVE SMOOTH",
"177 460 OFFCURVE",
"183 457 OFFCURVE",
"183 457 CURVE",
"183 453 OFFCURVE",
"178 446 OFFCURVE",
"178 446 CURVE",
"178 351 LINE",
"173 354 OFFCURVE",
"160 358 OFFCURVE",
"150 358 CURVE SMOOTH",
"90 358 OFFCURVE",
"141 273 OFFCURVE",
"141 213 CURVE",
"141 213 OFFCURVE",
"38 440 OFFCURVE",
"111 457 CURVE SMOOTH",
"129 460 OFFCURVE",
"145 457 OFFCURVE",
"140 437 CURVE SMOOTH",
"136 422 OFFCURVE",
"121 416 OFFCURVE",
"115 404 CURVE SMOOTH",
"91 364 OFFCURVE",
"156 361 OFFCURVE",
"156 380 CURVE SMOOTH",
"156 393 OFFCURVE",
"146 389 OFFCURVE",
"158 409 CURVE SMOOTH",
"166 426 OFFCURVE",
"148 454 OFFCURVE",
"167 454 CURVE SMOOTH",
"182 454 OFFCURVE",
"160 483 OFFCURVE",
"171 483 CURVE SMOOTH",
"187 483 OFFCURVE",
"180 522 OFFCURVE",
"141 522 CURVE SMOOTH",
"82 522 OFFCURVE",
"46 475 OFFCURVE",
"46 395 CURVE SMOOTH",
"46 303 OFFCURVE",
"146 187 OFFCURVE",
"146 124 CURVE",
"139 124 OFFCURVE",
"108 238 OFFCURVE",
"58 238 CURVE SMOOTH",
"12 238 OFFCURVE",
"10 187 OFFCURVE",
"42 187 CURVE SMOOTH"
);
}
);
width = 388;
}
);
unicode = 0066;
},
{
glyphname = g;
lastChange = "2021-02-18 15:35:40 +0000";
layers = (
{
guideLines = (
{
position = "{507, 328}";
},
{
position = "{368, 35}";
}
);
layerId = "A1B629DE-12A3-463D-9110-6FB76C8F6166";
paths = (
{
closed = 1;
nodes = (
"61 149 OFFCURVE",
"36 228 OFFCURVE",
"78 270 CURVE SMOOTH",
"120 312 OFFCURVE",
"168 301 OFFCURVE",
"168 275 CURVE SMOOTH",
"168 262 OFFCURVE",
"158 262 OFFCURVE",
"158 254 CURVE SMOOTH",
"158 248 OFFCURVE",
"161 242 OFFCURVE",
"171 244 CURVE",
"169 242 OFFCURVE",
"169 233 OFFCURVE",
"171 232 CURVE",
"155 239 OFFCURVE",
"131 240 OFFCURVE",
"106 224 CURVE SMOOTH",
"70 201 OFFCURVE",
"61 155 OFFCURVE",
"61 149 CURVE"
);
},
{
closed = 1;
nodes = (
"77 305 OFFCURVE",
"101 337 OFFCURVE",
"143 349 CURVE SMOOTH",
"200 365 OFFCURVE",
"200 330 OFFCURVE",
"186 304 CURVE",
"178 311 OFFCURVE",
"158 320 OFFCURVE",
"138 320 CURVE SMOOTH",
"110 320 OFFCURVE",
"78 304 OFFCURVE",
"67 294 CURVE"
);
},
{
closed = 1;
nodes = (
"94 172 OFFCURVE",
"116 196 OFFCURVE",
"138 196 CURVE SMOOTH",
"165 196 OFFCURVE",
"171 170 OFFCURVE",
"155 170 CURVE",
"155 165 OFFCURVE",
"164 159 OFFCURVE",
"173 159 CURVE SMOOTH",
"196 159 OFFCURVE",
"207 189 OFFCURVE",
"186 211 CURVE",
"207 212 OFFCURVE",
"219 198 OFFCURVE",
"222 189 CURVE",
"222 189 OFFCURVE",
"214 194 OFFCURVE",
"209 187 CURVE SMOOTH",
"205 181 OFFCURVE",
"211 175 OFFCURVE",
"208 166 CURVE SMOOTH",
"204 154 OFFCURVE",
"202 140 OFFCURVE",
"204 132 CURVE",
"204 132 OFFCURVE",
"137 156 OFFCURVE",
"137 73 CURVE",
"137 73 OFFCURVE",
"94 94 OFFCURVE",
"94 132 CURVE SMOOTH"
);
},
{
closed = 1;
nodes = (
"136 421 OFFCURVE",
"149 431 OFFCURVE",
"166 420 CURVE SMOOTH",
"181 410 OFFCURVE",
"211 384 OFFCURVE",
"197 384 CURVE SMOOTH",
"177 384 OFFCURVE",
"171 388 OFFCURVE",
"164 398 CURVE SMOOTH",
"160 404 OFFCURVE",
"136 394 OFFCURVE",
"136 411 CURVE SMOOTH"
);
},
{
closed = 1;
nodes = (
"148 96 OFFCURVE",
"203 111 OFFCURVE",
"202 65 CURVE",
"182 59 OFFCURVE",
"163 61 OFFCURVE",
"147 70 CURVE"
);
},
{
closed = 1;
nodes = (
"163 443 OFFCURVE",
"181 483 OFFCURVE",
"207 471 CURVE SMOOTH",
"230 460 OFFCURVE",
"233 408 OFFCURVE",
"219 408 CURVE SMOOTH",
"194 408 OFFCURVE",
"192 443 OFFCURVE",
"177 443 CURVE SMOOTH"
);
},
{
closed = 1;
nodes = (
"248 181 OFFCURVE",
"277 172 OFFCURVE",
"277 152 CURVE SMOOTH",
"277 132 OFFCURVE",
"259 138 OFFCURVE",
"259 113 CURVE",
"248 104 LINE",
"237 113 LINE",
"237 138 OFFCURVE",
"219 132 OFFCURVE",
"219 152 CURVE SMOOTH",
"219 172 OFFCURVE",
"248 182 OFFCURVE",
"248 182 CURVE"
);
},
{
closed = 1;
nodes = (
"236 432 OFFCURVE",
"243 442 OFFCURVE",
"248 447 CURVE",
"253 442 OFFCURVE",
"260 432 OFFCURVE",
"260 420 CURVE SMOOTH",
"260 410 OFFCURVE",
"253 404 OFFCURVE",
"248 398 CURVE",
"243 404 OFFCURVE",
"236 410 OFFCURVE",
"236 420 CURVE SMOOTH"
);
},
{
closed = 1;
nodes = (
"277 198 OFFCURVE",
"289 212 OFFCURVE",
"310 211 CURVE",
"289 189 OFFCURVE",
"300 159 OFFCURVE",
"323 159 CURVE SMOOTH",
"332 159 OFFCURVE",
"340 165 OFFCURVE",
"340 170 CURVE",
"325 170 OFFCURVE",
"331 196 OFFCURVE",
"358 196 CURVE SMOOTH",
"380 196 OFFCURVE",
"402 171 OFFCURVE",
"402 132 CURVE SMOOTH",
"402 94 OFFCURVE",
"359 73 OFFCURVE",
"359 73 CURVE",
"359 156 OFFCURVE",
"292 132 OFFCURVE",
"292 132 CURVE",
"294 140 OFFCURVE",
"293 154 OFFCURVE",
"288 166 CURVE SMOOTH",
"284 176 OFFCURVE",
"291 181 OFFCURVE",
"287 187 CURVE SMOOTH",
"282 194 OFFCURVE",
"274 189 OFFCURVE",
"274 189 CURVE"
);
},
{
closed = 1;
nodes = (
"263 408 OFFCURVE",
"266 460 OFFCURVE",
"289 471 CURVE SMOOTH",
"315 483 OFFCURVE",
"333 443 OFFCURVE",
"319 443 CURVE SMOOTH",
"304 443 OFFCURVE",
"302 408 OFFCURVE",
"277 408 CURVE SMOOTH"
);
},
{
closed = 1;
nodes = (
"298 111 OFFCURVE",
"348 96 OFFCURVE",
"349 70 CURVE",
"333 61 OFFCURVE",
"314 59 OFFCURVE",
"294 65 CURVE"
);
},
{
closed = 1;
nodes = (
"285 384 OFFCURVE",
"315 411 OFFCURVE",
"330 420 CURVE SMOOTH",
"347 430 OFFCURVE",
"360 421 OFFCURVE",
"360 411 CURVE SMOOTH",
"360 394 OFFCURVE",
"336 404 OFFCURVE",
"332 398 CURVE SMOOTH",
"325 388 OFFCURVE",
"319 384 OFFCURVE",
"298 384 CURVE SMOOTH"
);
},
{
closed = 1;
nodes = (
"296 330 OFFCURVE",
"296 367 OFFCURVE",
"353 349 CURVE SMOOTH",
"395 336 OFFCURVE",
"419 305 OFFCURVE",
"429 294 CURVE",
"418 304 OFFCURVE",
"386 320 OFFCURVE",
"358 320 CURVE SMOOTH",
"338 320 OFFCURVE",
"318 311 OFFCURVE",
"310 304 CURVE"
);
},
{
closed = 1;
nodes = (
"326 233 OFFCURVE",
"326 242 OFFCURVE",
"325 244 CURVE",
"335 242 OFFCURVE",
"338 248 OFFCURVE",
"338 254 CURVE SMOOTH",
"338 262 OFFCURVE",
"328 262 OFFCURVE",
"328 275 CURVE SMOOTH",
"328 301 OFFCURVE",
"376 311 OFFCURVE",
"418 270 CURVE SMOOTH",
"461 228 OFFCURVE",
"435 149 OFFCURVE",
"435 149 CURVE",
"435 155 OFFCURVE",
"425 199 OFFCURVE",
"390 224 CURVE SMOOTH",
"366 241 OFFCURVE",
"340 239 OFFCURVE",
"325 232 CURVE"
);
},
{
closed = 1;
nodes = (
"608 287 OFFCURVE",
"368 375 CURVE",
"392 388 OFFCURVE",
"376 447 OFFCURVE",
"342 437 CURVE",
"346 467 OFFCURVE",
"323 497 OFFCURVE",
"282 492 CURVE",
"282 492 OFFCURVE",
"274 521 OFFCURVE",
"253 530 CURVE",
"249 532 OFFCURVE",
"247 532 OFFCURVE",
"243 530 CURVE",
"222 521 OFFCURVE",
"214 492 OFFCURVE",
"214 492 CURVE",
"173 497 OFFCURVE",
"150 467 OFFCURVE",
"154 437 CURVE",
"120 447 OFFCURVE",
"104 388 OFFCURVE",
"128 375 CURVE",
"-105 287 OFFCURVE",
"89 -104 OFFCURVE",
"248 57 CURVE",
"409 -104 OFFCURVE"
);
}
);
width = 499;
}
);
unicode = 0067;
},
{
glyphname = h;
lastChange = "2020-01-15 13:57:00 +0000";
layers = (
{
layerId = "A1B629DE-12A3-463D-9110-6FB76C8F6166";
paths = (
{
closed = 1;
nodes = (
"205 290 OFFCURVE",
"233 319 OFFCURVE",
"271 319 CURVE SMOOTH",
"308 319 OFFCURVE",
"336 290 OFFCURVE",
"336 254 CURVE SMOOTH",
"336 216 OFFCURVE",
"308 188 OFFCURVE",
"271 188 CURVE SMOOTH",
"233 188 OFFCURVE",
"205 216 OFFCURVE",
"205 254 CURVE SMOOTH"
);
},
{
closed = 1;
nodes = (
"245 267 OFFCURVE",
"256 279 OFFCURVE",
"271 279 CURVE",
"286 279 OFFCURVE",
"296 267 OFFCURVE",
"296 253 CURVE",
"296 239 OFFCURVE",
"286 228 OFFCURVE",
"271 228 CURVE",
"256 228 OFFCURVE",
"245 239 OFFCURVE",
"245 253 CURVE"
);
},
{
closed = 1;
nodes = (
"414 283 OFFCURVE",
"396 301 OFFCURVE",
"374 306 CURVE",
"393 325 OFFCURVE",
"402 345 OFFCURVE",
"383 364 CURVE SMOOTH",
"363 384 OFFCURVE",
"333 370 OFFCURVE",
"324 355 CURVE",
"318 379 OFFCURVE",
"296 397 OFFCURVE",
"271 397 CURVE SMOOTH",
"245 397 OFFCURVE",
"224 379 OFFCURVE",
"217 355 CURVE",
"206 372 OFFCURVE",
"179 386 OFFCURVE",
"158 364 CURVE SMOOTH",
"140 345 OFFCURVE",
"145 320 OFFCURVE",
"168 306 CURVE",
"144 298 OFFCURVE",
"127 277 OFFCURVE",
"127 254 CURVE SMOOTH",
"127 225 OFFCURVE",
"143 208 OFFCURVE",
"168 201 CURVE",
"148 182 OFFCURVE",
"144 158 OFFCURVE",
"158 143 CURVE SMOOTH",
"178 122 OFFCURVE",
"206 135 OFFCURVE",
"217 153 CURVE",
"221 128 OFFCURVE",
"245 110 OFFCURVE",
"271 110 CURVE SMOOTH",
"296 110 OFFCURVE",
"318 128 OFFCURVE",
"324 153 CURVE",
"342 134 OFFCURVE",
"369 130 OFFCURVE",
"383 143 CURVE SMOOTH",
"404 164 OFFCURVE",
"396 185 OFFCURVE",
"374 201 CURVE",
"399 206 OFFCURVE",
"414 230 OFFCURVE",
"414 254 CURVE SMOOTH"
);
},
{
closed = 1;
nodes = (
"215 407 OFFCURVE",
"224 415 OFFCURVE",
"243 420 CURVE",
"243 420 OFFCURVE",
"268 501 OFFCURVE",
"217 501 CURVE SMOOTH",
"187 501 OFFCURVE",
"187 473 OFFCURVE",
"187 473 CURVE",
"187 473 OFFCURVE",
"169 498 OFFCURVE",
"142 484 CURVE SMOOTH",
"101 463 OFFCURVE",
"162 401 OFFCURVE",
"162 401 CURVE",
"176 405 OFFCURVE",
"189 403 OFFCURVE",
"206 399 CURVE"
);
},
{
closed = 1;
nodes = (
"328 407 OFFCURVE",
"316 415 OFFCURVE",
"300 420 CURVE",
"300 420 OFFCURVE",
"277 501 OFFCURVE",
"326 501 CURVE",
"358 501 OFFCURVE",
"358 473 OFFCURVE",
"358 473 CURVE",
"358 473 OFFCURVE",
"373 501 OFFCURVE",
"402 484 CURVE SMOOTH",
"441 462 OFFCURVE",
"381 401 OFFCURVE",
"381 401 CURVE",
"370 405 OFFCURVE",
"353 403 OFFCURVE",
"335 399 CURVE"
);
},
{
closed = 1;
nodes = (
"116 201 OFFCURVE",
"106 212 OFFCURVE",
"100 228 CURVE",
"100 228 OFFCURVE",
"20 252 OFFCURVE",
"20 204 CURVE SMOOTH",
"20 173 OFFCURVE",
"49 173 OFFCURVE",
"49 173 CURVE",
"49 173 OFFCURVE",
"23 158 OFFCURVE",
"38 128 CURVE SMOOTH",
"58 88 OFFCURVE",
"123 144 OFFCURVE",
"123 144 CURVE",
"118 160 OFFCURVE",
"119 174 OFFCURVE",
"125 191 CURVE"
);
},
{
closed = 1;
nodes = (
"116 308 OFFCURVE",
"106 295 OFFCURVE",
"100 279 CURVE",
"100 279 OFFCURVE",
"20 252 OFFCURVE",
"20 306 CURVE SMOOTH",
"20 335 OFFCURVE",
"49 338 OFFCURVE",
"49 338 CURVE",
"49 338 OFFCURVE",
"21 352 OFFCURVE",
"38 382 CURVE SMOOTH",
"60 422 OFFCURVE",
"123 363 OFFCURVE",
"123 363 CURVE",
"118 349 OFFCURVE",
"119 333 OFFCURVE",
"125 316 CURVE"
);
},
{
closed = 1;
nodes = (
"326 99 OFFCURVE",
"315 92 OFFCURVE",
"298 87 CURVE",
"298 87 OFFCURVE",
"271 8 OFFCURVE",
"324 6 CURVE SMOOTH",
"353 5 OFFCURVE",
"356 35 OFFCURVE",
"356 35 CURVE",
"356 35 OFFCURVE",
"374 11 OFFCURVE",
"400 22 CURVE SMOOTH",
"441 41 OFFCURVE",
"380 106 OFFCURVE",
"380 106 CURVE",
"368 102 OFFCURVE",
"351 104 OFFCURVE",
"333 108 CURVE"
);
},
{
closed = 1;
nodes = (
"215 99 OFFCURVE",
"227 92 OFFCURVE",
"243 87 CURVE",
"243 87 OFFCURVE",
"271 8 OFFCURVE",
"217 6 CURVE SMOOTH",
"187 5 OFFCURVE",
"187 35 OFFCURVE",
"187 35 CURVE",
"187 35 OFFCURVE",
"166 7 OFFCURVE",
"142 22 CURVE SMOOTH",
"102 49 OFFCURVE",
"162 106 OFFCURVE",
"162 106 CURVE",
"174 102 OFFCURVE",
"189 104 OFFCURVE",
"206 108 CURVE"
);
},
{
closed = 1;
nodes = (
"430 308 OFFCURVE",
"437 295 OFFCURVE",
"441 279 CURVE",
"441 279 OFFCURVE",
"521 254 OFFCURVE",
"521 306 CURVE SMOOTH",
"521 338 OFFCURVE",
"493 338 OFFCURVE",
"493 338 CURVE",
"493 338 OFFCURVE",
"521 355 OFFCURVE",
"506 381 CURVE SMOOTH",
"483 418 OFFCURVE",
"420 363 OFFCURVE",
"420 363 CURVE",
"424 346 OFFCURVE",
"422 333 OFFCURVE",
"416 316 CURVE"
);
},
{
closed = 1;
nodes = (
"427 201 OFFCURVE",
"435 212 OFFCURVE",
"441 228 CURVE",
"441 228 OFFCURVE",
"521 254 OFFCURVE",
"521 204 CURVE SMOOTH",
"521 171 OFFCURVE",
"493 173 OFFCURVE",
"493 173 CURVE",
"493 173 OFFCURVE",
"516 149 OFFCURVE",
"505 128 CURVE",
"482 88 OFFCURVE",
"420 144 OFFCURVE",
"420 144 CURVE",
"423 160 OFFCURVE",
"422 174 OFFCURVE",
"416 191 CURVE"
);
}
);
width = 541;
}
);
unicode = 0068;
},
{
glyphname = i;
lastChange = "2021-02-18 15:36:51 +0000";
layers = (
{
layerId = "A1B629DE-12A3-463D-9110-6FB76C8F6166";
paths = (
{
closed = 1;
nodes = (
"72 179 OFFCURVE",
"94 138 OFFCURVE",
"89 94 CURVE",
"116 76 OFFCURVE",
"136 47 OFFCURVE",
"139 15 CURVE",
"243 25 LINE",
"348 15 LINE",
"351 47 OFFCURVE",
"372 76 OFFCURVE",
"396 94 CURVE",
"393 138 OFFCURVE",
"415 179 OFFCURVE",
"453 201 CURVE",
"429 243 OFFCURVE",
"436 286 OFFCURVE",
"453 328 CURVE",
"415 356 OFFCURVE",
"382 404 OFFCURVE",
"380 448 CURVE",
"371 447 OFFCURVE",
"362 446 OFFCURVE",
"351 446 CURVE SMOOTH",
"309 446 OFFCURVE",
"262 460 OFFCURVE",
"243 486 CURVE",
"224 460 OFFCURVE",
"177 446 OFFCURVE",
"135 446 CURVE SMOOTH",
"125 446 OFFCURVE",
"116 447 OFFCURVE",
"106 448 CURVE",
"104 405 OFFCURVE",
"73 356 OFFCURVE",
"35 328 CURVE",
"50 286 OFFCURVE",
"58 243 OFFCURVE",
"35 201 CURVE"
);
},
{
closed = 1;
nodes = (
"98 328 OFFCURVE",
"110 342 OFFCURVE",
"120 359 CURVE SMOOTH",
"127 371 OFFCURVE",
"135 382 OFFCURVE",
"139 394 CURVE",
"172 350 LINE",
"115 270 LINE",
"87 306 LINE",
"85 315 LINE"
);
},
{
closed = 1;
nodes = (
"115 253 LINE",
"171 175 LINE",
"131 122 LINE",
"129 139 OFFCURVE",
"124 159 OFFCURVE",
"116 176 CURVE SMOOTH",
"109 191 OFFCURVE",
"98 204 OFFCURVE",
"87 215 CURVE"
);
},
{
closed = 1;
nodes = (
"92 247 OFFCURVE",
"93 255 OFFCURVE",
"93 265 CURVE SMOOTH",
"93 272 OFFCURVE",
"92 277 OFFCURVE",
"92 283 CURVE",
"108 260 LINE",
"91 238 LINE"
);
},
{
closed = 1;
nodes = (
"177 340 LINE",
"235 263 LINE",
"177 183 LINE",
"120 260 LINE"
);
},
{
closed = 1;
nodes = (
"177 167 LINE",
"235 86 LINE",
"220 66 LINE",
"170 61 LINE",
"162 80 OFFCURVE",
"150 95 OFFCURVE",
"137 111 CURVE"
);
},
{
closed = 1;
nodes = (
"171 404 OFFCURVE",
"199 410 OFFCURVE",
"224 419 CURVE",
"177 358 LINE",
"147 403 LINE"
);
},
{
closed = 1;
nodes = (
"241 255 LINE",
"299 175 LINE",
"241 96 LINE",
"183 175 LINE"
);
},
{
closed = 1;
nodes = (
"241 426 LINE",
"298 350 LINE",
"241 273 LINE",
"185 350 LINE"
);
},
{
closed = 1;
nodes = (
"241 80 LINE",
"249 68 LINE",
"247 68 OFFCURVE",
"245 68 OFFCURVE",
"243 68 CURVE SMOOTH",
"239 68 LINE",
"233 67 LINE"
);
},
{
closed = 1;
nodes = (
"305 167 LINE",
"349 109 LINE",
"336 95 OFFCURVE",
"323 80 OFFCURVE",
"316 61 CURVE",
"262 66 LINE",
"248 86 LINE"
);
},
{
closed = 1;
nodes = (
"304 340 LINE",
"360 261 LINE",
"305 183 LINE",
"248 263 LINE"
);
},
{
closed = 1;
nodes = (
"283 412 OFFCURVE",
"312 405 OFFCURVE",
"339 403 CURVE",
"304 358 LINE",
"258 423 LINE"
);
},
{
closed = 1;
nodes = (
"368 253 LINE",
"396 212 LINE",
"386 201 OFFCURVE",
"377 190 OFFCURVE",
"371 176 CURVE SMOOTH",
"363 157 OFFCURVE",
"355 137 OFFCURVE",
"353 117 CURVE",
"310 175 LINE"
);
},
{
closed = 1;
nodes = (
"347 398 LINE",
"351 385 OFFCURVE",
"357 372 OFFCURVE",
"365 359 CURVE SMOOTH",
"375 343 OFFCURVE",
"387 329 OFFCURVE",
"401 315 CURVE",
"368 270 LINE",
"310 350 LINE"
);
},
{
closed = 1;
nodes = (
"396 293 LINE",
"395 284 OFFCURVE",
"395 276 OFFCURVE",
"394 265 CURVE SMOOTH",
"393 254 OFFCURVE",
"394 244 OFFCURVE",
"395 233 CURVE",
"374 261 LINE"
);
}
);
width = 488;
}
);
unicode = 0069;
},
